<mxfile host="Electron" modified="2024-05-24T02:28:13.125Z" agent="Mozilla/5.0 (Windows NT 10.0; Win64; x64) AppleWebKit/537.36 (KHTML, like Gecko) draw.io/24.4.6 Chrome/124.0.6367.207 Electron/30.0.6 Safari/537.36" etag="7UmyqRKrSfNHHKu0QEdW" version="24.4.6" type="device" pages="2">
  <diagram name="ETL" id="KwzBkOvxIAPHTXA6_VUw">
    <mxGraphModel dx="1683" dy="750" grid="1" gridSize="10" guides="1" tooltips="1" connect="1" arrows="1" fold="1" page="1" pageScale="1" pageWidth="850" pageHeight="1100" math="0" shadow="0">
      <root>
        <mxCell id="0" />
        <mxCell id="1" parent="0" />
        <UserObject label="" link="404.html" id="PEcHKm6xACgB4PoNaAM6-83">
          <mxCell style="rounded=0;whiteSpace=wrap;html=1;fillColor=#fff2cc;strokeColor=#d6b656;" parent="1" vertex="1">
            <mxGeometry x="1025.9" width="974.1" height="660" as="geometry" />
          </mxCell>
        </UserObject>
        <mxCell id="PEcHKm6xACgB4PoNaAM6-127" value="" style="rounded=0;whiteSpace=wrap;html=1;fillColor=#CCFFCC;" parent="1" vertex="1">
          <mxGeometry x="1401.9" y="10" width="270" height="620" as="geometry" />
        </mxCell>
        <mxCell id="PEcHKm6xACgB4PoNaAM6-118" value="" style="rounded=0;whiteSpace=wrap;html=1;labelPosition=center;verticalLabelPosition=top;align=center;verticalAlign=bottom;fillColor=#66B2FF;strokeColor=#9673a6;" parent="1" vertex="1">
          <mxGeometry x="1045.9" y="60" width="354.1" height="570" as="geometry" />
        </mxCell>
        <mxCell id="bvXX3VI6meTwJhk8ZJgl-4" value="" style="shape=cylinder3;whiteSpace=wrap;html=1;boundedLbl=1;backgroundOutline=1;size=15;labelPosition=left;verticalLabelPosition=top;align=right;verticalAlign=bottom;fillColor=#dae8fc;strokeColor=#6c8ebf;container=0;" parent="1" vertex="1">
          <mxGeometry x="10" y="220" width="850" height="212" as="geometry" />
        </mxCell>
        <mxCell id="PEcHKm6xACgB4PoNaAM6-28" value="" style="rounded=0;whiteSpace=wrap;html=1;fillColor=#d5e8d4;strokeColor=#82b366;" parent="1" vertex="1">
          <mxGeometry x="195" y="257" width="230" height="170" as="geometry" />
        </mxCell>
        <mxCell id="nR5QhHKI7_N6D_NkmcnW-14" value="" style="rounded=0;whiteSpace=wrap;html=1;fillColor=#d5e8d4;strokeColor=#82b366;" parent="1" vertex="1">
          <mxGeometry x="10" y="10" width="490" height="200" as="geometry" />
        </mxCell>
        <mxCell id="8YMny8PN7TnS6Zknv3in-1" value="Python/Jupyter Notebook&lt;div&gt;CSV_Groundwater_To_SQLiteETL.ipynb&lt;br&gt;&lt;/div&gt;" style="rounded=0;whiteSpace=wrap;html=1;strokeWidth=5;" parent="1" vertex="1">
          <mxGeometry x="10" y="10" width="230" height="40.6" as="geometry" />
        </mxCell>
        <mxCell id="PEcHKm6xACgB4PoNaAM6-4" value="&lt;span style=&quot;background-color: initial;&quot;&gt;sations&lt;/span&gt;.csv" style="shape=document;whiteSpace=wrap;html=1;boundedLbl=1;align=center;" parent="1" vertex="1">
          <mxGeometry x="47" y="91.84" width="110" height="23.44" as="geometry" />
        </mxCell>
        <mxCell id="ddtsMOl4UW6Yk28fR5wZ-11" style="edgeStyle=orthogonalEdgeStyle;rounded=0;orthogonalLoop=1;jettySize=auto;html=1;entryX=0;entryY=0.5;entryDx=0;entryDy=0;exitX=0;exitY=0.5;exitDx=0;exitDy=0;fillColor=#0050ef;strokeColor=#001DBC;strokeWidth=5;" parent="1" source="PEcHKm6xACgB4PoNaAM6-7" target="vJMPCamCU8jCB5T21oYa-11" edge="1">
          <mxGeometry relative="1" as="geometry">
            <Array as="points">
              <mxPoint x="20" y="69" />
              <mxPoint x="20" y="355" />
            </Array>
          </mxGeometry>
        </mxCell>
        <mxCell id="PEcHKm6xACgB4PoNaAM6-7" value="&lt;span style=&quot;background-color: initial;&quot;&gt;measurements.csv&lt;/span&gt;" style="shape=document;whiteSpace=wrap;html=1;boundedLbl=1;align=center;" parent="1" vertex="1">
          <mxGeometry x="47" y="57" width="110" height="23.12" as="geometry" />
        </mxCell>
        <mxCell id="ddtsMOl4UW6Yk28fR5wZ-13" style="edgeStyle=orthogonalEdgeStyle;rounded=0;orthogonalLoop=1;jettySize=auto;html=1;entryX=0;entryY=0.25;entryDx=0;entryDy=0;exitX=0;exitY=0.5;exitDx=0;exitDy=0;fillColor=#0050ef;strokeColor=#001DBC;strokeWidth=5;" parent="1" source="PEcHKm6xACgB4PoNaAM6-8" target="vJMPCamCU8jCB5T21oYa-13" edge="1">
          <mxGeometry relative="1" as="geometry" />
        </mxCell>
        <mxCell id="PEcHKm6xACgB4PoNaAM6-8" value="&lt;span style=&quot;background-color: initial;&quot;&gt;perforations&lt;/span&gt;.csv" style="shape=document;whiteSpace=wrap;html=1;boundedLbl=1;align=center;" parent="1" vertex="1">
          <mxGeometry x="37" y="128.91" width="93.26" height="26.43" as="geometry" />
        </mxCell>
        <mxCell id="PEcHKm6xACgB4PoNaAM6-136" style="edgeStyle=orthogonalEdgeStyle;rounded=0;orthogonalLoop=1;jettySize=auto;html=1;entryX=0;entryY=0.5;entryDx=0;entryDy=0;fontFamily=Helvetica;fontSize=12;fontColor=default;exitX=1;exitY=0.5;exitDx=0;exitDy=0;strokeWidth=4;fillColor=#008a00;strokeColor=#005700;" parent="1" source="ddtsMOl4UW6Yk28fR5wZ-14" target="PEcHKm6xACgB4PoNaAM6-135" edge="1">
          <mxGeometry relative="1" as="geometry">
            <mxPoint x="872.9" y="44" as="sourcePoint" />
          </mxGeometry>
        </mxCell>
        <mxCell id="PEcHKm6xACgB4PoNaAM6-142" style="edgeStyle=orthogonalEdgeStyle;rounded=0;orthogonalLoop=1;jettySize=auto;html=1;entryX=0;entryY=0.5;entryDx=0;entryDy=0;fontFamily=Helvetica;fontSize=12;fontColor=default;strokeWidth=5;fillColor=#b1ddf0;strokeColor=#10739e;" parent="1" source="ddtsMOl4UW6Yk28fR5wZ-7" target="PEcHKm6xACgB4PoNaAM6-139" edge="1">
          <mxGeometry relative="1" as="geometry">
            <mxPoint x="872.9" y="44" as="sourcePoint" />
          </mxGeometry>
        </mxCell>
        <UserObject label="@app.route(&#39;/Data_Overview&#39;)&#xa;def Data_Overview():" link="@app.route(&#39;/Data_Overview&#39;)&#xa;def Data_Overview():" id="PEcHKm6xACgB4PoNaAM6-107">
          <mxCell style="rounded=0;whiteSpace=wrap;html=1;fillColor=#d80073;fontColor=#ffffff;strokeColor=#A50040;" parent="1" vertex="1">
            <mxGeometry x="1471.9" y="151" width="160" height="30" as="geometry" />
          </mxCell>
        </UserObject>
        <mxCell id="PEcHKm6xACgB4PoNaAM6-108" value="&lt;div&gt;@app.route(&#39;/Scatter_Plot_Average_Percent&#39;&lt;/div&gt;&lt;div&gt;&lt;span style=&quot;background-color: initial;&quot;&gt;&amp;nbsp;&lt;/span&gt;&lt;span style=&quot;background-color: initial;&quot;&gt;def scatter_plot_page():&lt;/span&gt;&lt;/div&gt;" style="rounded=0;whiteSpace=wrap;html=1;fillColor=#e3c800;fontColor=#000000;strokeColor=#B09500;" parent="1" vertex="1">
          <mxGeometry x="1441.9" y="216" width="202.1" height="30" as="geometry" />
        </mxCell>
        <mxCell id="PEcHKm6xACgB4PoNaAM6-137" style="edgeStyle=orthogonalEdgeStyle;rounded=0;orthogonalLoop=1;jettySize=auto;html=1;fontFamily=Helvetica;fontSize=12;fontColor=default;fillColor=#e3c800;strokeColor=#B09500;strokeWidth=5;" parent="1" source="PEcHKm6xACgB4PoNaAM6-135" target="PEcHKm6xACgB4PoNaAM6-108" edge="1">
          <mxGeometry relative="1" as="geometry" />
        </mxCell>
        <mxCell id="ddtsMOl4UW6Yk28fR5wZ-10" style="edgeStyle=orthogonalEdgeStyle;rounded=0;orthogonalLoop=1;jettySize=auto;html=1;entryX=0.5;entryY=0;entryDx=0;entryDy=0;fillColor=#e51400;strokeColor=#B20000;strokeWidth=4;" parent="1" source="ddtsMOl4UW6Yk28fR5wZ-3" target="ddtsMOl4UW6Yk28fR5wZ-7" edge="1">
          <mxGeometry relative="1" as="geometry" />
        </mxCell>
        <UserObject label="&lt;div style=&quot;forced-color-adjust: none; padding: 0px; margin: 0px; color: rgb(0, 0, 0); font-family: Helvetica; font-size: 12px; font-style: normal; font-variant-ligatures: normal; font-variant-caps: normal; font-weight: 400; letter-spacing: normal; orphans: 2; text-align: left; text-indent: 0px; text-transform: none; widows: 2; word-spacing: 0px; -webkit-text-stroke-width: 0px; white-space: normal; background-color: rgb(251, 251, 251); text-decoration-thickness: initial; text-decoration-style: initial; text-decoration-color: initial;&quot;&gt;DataDictionary_perforations.csv&lt;/div&gt;" link="&#xa;&lt;span style=&quot;color: rgb(0, 0, 0); font-family: Helvetica; font-size: 12px; font-style: normal; font-variant-ligatures: normal; font-variant-caps: normal; font-weight: 400; letter-spacing: normal; orphans: 2; text-align: left; text-indent: 0px; text-transform: none; widows: 2; word-spacing: 0px; -webkit-text-stroke-width: 0px; white-space: normal; background-color: rgb(251, 251, 251); text-decoration-thickness: initial; text-decoration-style: initial; text-decoration-color: initial; display: inline !important; float: none;&quot;&gt;DataDictionary_measurements.csv&lt;/span&gt;&lt;div style=&quot;forced-color-adjust: none; padding: 0px; margin: 0px; color: rgb(0, 0, 0); font-family: Helvetica; font-size: 12px; font-style: normal; font-variant-ligatures: normal; font-variant-caps: normal; font-weight: 400; letter-spacing: normal; orphans: 2; text-align: left; text-indent: 0px; text-transform: none; widows: 2; word-spacing: 0px; -webkit-text-stroke-width: 0px; white-space: normal; background-color: rgb(251, 251, 251); text-decoration-thickness: initial; text-decoration-style: initial; text-decoration-color: initial;&quot;&gt;DataDictionary_perforations.csv&lt;/div&gt;&lt;div style=&quot;forced-color-adjust: none; padding: 0px; margin: 0px; color: rgb(0, 0, 0); font-family: Helvetica; font-size: 12px; font-style: normal; font-variant-ligatures: normal; font-variant-caps: normal; font-weight: 400; letter-spacing: normal; orphans: 2; text-align: left; text-indent: 0px; text-transform: none; widows: 2; word-spacing: 0px; -webkit-text-stroke-width: 0px; white-space: normal; background-color: rgb(251, 251, 251); text-decoration-thickness: initial; text-decoration-style: initial; text-decoration-color: initial;&quot;&gt;DataDictionary_stations.csv&lt;/div&gt;&#xa;&#xa;" id="ddtsMOl4UW6Yk28fR5wZ-3">
          <mxCell style="shape=document;whiteSpace=wrap;html=1;boundedLbl=1;" parent="1" vertex="1">
            <mxGeometry x="266.27" y="113.17" width="200" height="40" as="geometry" />
          </mxCell>
        </UserObject>
        <mxCell id="ddtsMOl4UW6Yk28fR5wZ-9" style="edgeStyle=orthogonalEdgeStyle;rounded=0;orthogonalLoop=1;jettySize=auto;html=1;fillColor=#e51400;strokeColor=#B20000;strokeWidth=4;" parent="1" source="ddtsMOl4UW6Yk28fR5wZ-4" target="ddtsMOl4UW6Yk28fR5wZ-7" edge="1">
          <mxGeometry relative="1" as="geometry" />
        </mxCell>
        <UserObject label="&lt;div style=&quot;forced-color-adjust: none; padding: 0px; margin: 0px; color: rgb(0, 0, 0); font-family: Helvetica; font-size: 12px; font-style: normal; font-variant-ligatures: normal; font-variant-caps: normal; font-weight: 400; letter-spacing: normal; orphans: 2; text-align: left; text-indent: 0px; text-transform: none; widows: 2; word-spacing: 0px; -webkit-text-stroke-width: 0px; white-space: normal; background-color: rgb(251, 251, 251); text-decoration-thickness: initial; text-decoration-style: initial; text-decoration-color: initial;&quot;&gt;DataDictionary_stations.csv&lt;/div&gt;" link="&#xa;&lt;span style=&quot;color: rgb(0, 0, 0); font-family: Helvetica; font-size: 12px; font-style: normal; font-variant-ligatures: normal; font-variant-caps: normal; font-weight: 400; letter-spacing: normal; orphans: 2; text-align: left; text-indent: 0px; text-transform: none; widows: 2; word-spacing: 0px; -webkit-text-stroke-width: 0px; white-space: normal; background-color: rgb(251, 251, 251); text-decoration-thickness: initial; text-decoration-style: initial; text-decoration-color: initial; display: inline !important; float: none;&quot;&gt;DataDictionary_measurements.csv&lt;/span&gt;&lt;div style=&quot;forced-color-adjust: none; padding: 0px; margin: 0px; color: rgb(0, 0, 0); font-family: Helvetica; font-size: 12px; font-style: normal; font-variant-ligatures: normal; font-variant-caps: normal; font-weight: 400; letter-spacing: normal; orphans: 2; text-align: left; text-indent: 0px; text-transform: none; widows: 2; word-spacing: 0px; -webkit-text-stroke-width: 0px; white-space: normal; background-color: rgb(251, 251, 251); text-decoration-thickness: initial; text-decoration-style: initial; text-decoration-color: initial;&quot;&gt;DataDictionary_perforations.csv&lt;/div&gt;&lt;div style=&quot;forced-color-adjust: none; padding: 0px; margin: 0px; color: rgb(0, 0, 0); font-family: Helvetica; font-size: 12px; font-style: normal; font-variant-ligatures: normal; font-variant-caps: normal; font-weight: 400; letter-spacing: normal; orphans: 2; text-align: left; text-indent: 0px; text-transform: none; widows: 2; word-spacing: 0px; -webkit-text-stroke-width: 0px; white-space: normal; background-color: rgb(251, 251, 251); text-decoration-thickness: initial; text-decoration-style: initial; text-decoration-color: initial;&quot;&gt;DataDictionary_stations.csv&lt;/div&gt;&#xa;&#xa;" id="ddtsMOl4UW6Yk28fR5wZ-4">
          <mxCell style="shape=document;whiteSpace=wrap;html=1;boundedLbl=1;" parent="1" vertex="1">
            <mxGeometry x="263.27" y="61.39" width="200" height="40" as="geometry" />
          </mxCell>
        </UserObject>
        <mxCell id="ddtsMOl4UW6Yk28fR5wZ-8" style="edgeStyle=orthogonalEdgeStyle;rounded=0;orthogonalLoop=1;jettySize=auto;html=1;fillColor=#e51400;strokeColor=#B20000;strokeWidth=4;" parent="1" source="ddtsMOl4UW6Yk28fR5wZ-5" target="ddtsMOl4UW6Yk28fR5wZ-7" edge="1">
          <mxGeometry relative="1" as="geometry" />
        </mxCell>
        <UserObject label="&lt;span style=&quot;color: rgb(0, 0, 0); font-family: Helvetica; font-size: 12px; font-style: normal; font-variant-ligatures: normal; font-variant-caps: normal; font-weight: 400; letter-spacing: normal; orphans: 2; text-align: left; text-indent: 0px; text-transform: none; widows: 2; word-spacing: 0px; -webkit-text-stroke-width: 0px; white-space: normal; background-color: rgb(251, 251, 251); text-decoration-thickness: initial; text-decoration-style: initial; text-decoration-color: initial; display: inline !important; float: none;&quot;&gt;DataDictionary_measurements.csv&lt;/span&gt;" link="&#xa;&lt;span style=&quot;color: rgb(0, 0, 0); font-family: Helvetica; font-size: 12px; font-style: normal; font-variant-ligatures: normal; font-variant-caps: normal; font-weight: 400; letter-spacing: normal; orphans: 2; text-align: left; text-indent: 0px; text-transform: none; widows: 2; word-spacing: 0px; -webkit-text-stroke-width: 0px; white-space: normal; background-color: rgb(251, 251, 251); text-decoration-thickness: initial; text-decoration-style: initial; text-decoration-color: initial; display: inline !important; float: none;&quot;&gt;DataDictionary_measurements.csv&lt;/span&gt;&lt;div style=&quot;forced-color-adjust: none; padding: 0px; margin: 0px; color: rgb(0, 0, 0); font-family: Helvetica; font-size: 12px; font-style: normal; font-variant-ligatures: normal; font-variant-caps: normal; font-weight: 400; letter-spacing: normal; orphans: 2; text-align: left; text-indent: 0px; text-transform: none; widows: 2; word-spacing: 0px; -webkit-text-stroke-width: 0px; white-space: normal; background-color: rgb(251, 251, 251); text-decoration-thickness: initial; text-decoration-style: initial; text-decoration-color: initial;&quot;&gt;DataDictionary_perforations.csv&lt;/div&gt;&lt;div style=&quot;forced-color-adjust: none; padding: 0px; margin: 0px; color: rgb(0, 0, 0); font-family: Helvetica; font-size: 12px; font-style: normal; font-variant-ligatures: normal; font-variant-caps: normal; font-weight: 400; letter-spacing: normal; orphans: 2; text-align: left; text-indent: 0px; text-transform: none; widows: 2; word-spacing: 0px; -webkit-text-stroke-width: 0px; white-space: normal; background-color: rgb(251, 251, 251); text-decoration-thickness: initial; text-decoration-style: initial; text-decoration-color: initial;&quot;&gt;DataDictionary_stations.csv&lt;/div&gt;&#xa;&#xa;" id="ddtsMOl4UW6Yk28fR5wZ-5">
          <mxCell style="shape=document;whiteSpace=wrap;html=1;boundedLbl=1;" parent="1" vertex="1">
            <mxGeometry x="263.27" y="16.83" width="200" height="40" as="geometry" />
          </mxCell>
        </UserObject>
        <mxCell id="ddtsMOl4UW6Yk28fR5wZ-12" style="edgeStyle=orthogonalEdgeStyle;rounded=0;orthogonalLoop=1;jettySize=auto;html=1;entryX=0;entryY=0.5;entryDx=0;entryDy=0;exitX=0;exitY=0.5;exitDx=0;exitDy=0;fillColor=#0050ef;strokeColor=#001DBC;strokeWidth=5;" parent="1" source="PEcHKm6xACgB4PoNaAM6-4" target="vJMPCamCU8jCB5T21oYa-12" edge="1">
          <mxGeometry relative="1" as="geometry">
            <Array as="points">
              <mxPoint x="10" y="104" />
              <mxPoint x="10" y="385" />
              <mxPoint x="60" y="385" />
            </Array>
          </mxGeometry>
        </mxCell>
        <mxCell id="--BF2uBDJJ6zDiC4mo0v-18" style="edgeStyle=orthogonalEdgeStyle;rounded=0;orthogonalLoop=1;jettySize=auto;html=1;strokeWidth=5;fillColor=#f0a30a;strokeColor=#BD7000;" parent="1" source="PEcHKm6xACgB4PoNaAM6-135" target="--BF2uBDJJ6zDiC4mo0v-12" edge="1">
          <mxGeometry relative="1" as="geometry">
            <Array as="points">
              <mxPoint x="498" y="270" />
              <mxPoint x="1143" y="270" />
            </Array>
          </mxGeometry>
        </mxCell>
        <mxCell id="--BF2uBDJJ6zDiC4mo0v-24" style="edgeStyle=orthogonalEdgeStyle;rounded=0;orthogonalLoop=1;jettySize=auto;html=1;entryX=0;entryY=0.5;entryDx=0;entryDy=0;fillColor=#f0a30a;strokeColor=#BD7000;strokeWidth=4;" parent="1" source="ddtsMOl4UW6Yk28fR5wZ-20" target="--BF2uBDJJ6zDiC4mo0v-19" edge="1">
          <mxGeometry relative="1" as="geometry" />
        </mxCell>
        <mxCell id="ddtsMOl4UW6Yk28fR5wZ-20" value="&lt;div style=&quot;text-align: left;&quot;&gt;&lt;pre&gt;&lt;font face=&quot;Helvetica&quot;&gt;vw_groundwater&lt;/font&gt;&lt;/pre&gt;&lt;/div&gt;" style="shape=document;whiteSpace=wrap;html=1;boundedLbl=1;align=center;fillColor=#f0a30a;fontColor=#000000;strokeColor=#BD7000;" parent="1" vertex="1">
          <mxGeometry x="435" y="302" width="125" height="30" as="geometry" />
        </mxCell>
        <mxCell id="ddtsMOl4UW6Yk28fR5wZ-23" style="edgeStyle=orthogonalEdgeStyle;rounded=0;orthogonalLoop=1;jettySize=auto;html=1;entryX=0;entryY=0.75;entryDx=0;entryDy=0;exitX=0.982;exitY=0.167;exitDx=0;exitDy=0;exitPerimeter=0;fillColor=#f0a30a;strokeColor=#BD7000;strokeWidth=4;" parent="1" source="vJMPCamCU8jCB5T21oYa-13" target="ddtsMOl4UW6Yk28fR5wZ-20" edge="1">
          <mxGeometry relative="1" as="geometry">
            <Array as="points">
              <mxPoint x="148" y="400" />
              <mxPoint x="180" y="400" />
              <mxPoint x="180" y="324" />
            </Array>
          </mxGeometry>
        </mxCell>
        <mxCell id="ddtsMOl4UW6Yk28fR5wZ-21" style="edgeStyle=orthogonalEdgeStyle;rounded=0;orthogonalLoop=1;jettySize=auto;html=1;entryX=-0.008;entryY=0.044;entryDx=0;entryDy=0;exitX=0.917;exitY=0.042;exitDx=0;exitDy=0;exitPerimeter=0;entryPerimeter=0;fillColor=#f0a30a;strokeColor=#BD7000;strokeWidth=4;" parent="1" source="vJMPCamCU8jCB5T21oYa-11" target="ddtsMOl4UW6Yk28fR5wZ-20" edge="1">
          <mxGeometry relative="1" as="geometry" />
        </mxCell>
        <mxCell id="ddtsMOl4UW6Yk28fR5wZ-22" style="edgeStyle=orthogonalEdgeStyle;rounded=0;orthogonalLoop=1;jettySize=auto;html=1;entryX=0;entryY=0.5;entryDx=0;entryDy=0;exitX=0.982;exitY=0.114;exitDx=0;exitDy=0;exitPerimeter=0;fillColor=#f0a30a;strokeColor=#BD7000;strokeWidth=4;" parent="1" source="vJMPCamCU8jCB5T21oYa-12" target="ddtsMOl4UW6Yk28fR5wZ-20" edge="1">
          <mxGeometry relative="1" as="geometry">
            <Array as="points">
              <mxPoint x="190" y="376" />
              <mxPoint x="190" y="317" />
            </Array>
          </mxGeometry>
        </mxCell>
        <mxCell id="8YMny8PN7TnS6Zknv3in-3" value="SQLite&lt;div&gt;Groundwater.db&lt;br&gt;&lt;/div&gt;" style="rounded=0;whiteSpace=wrap;html=1;strokeWidth=5;" parent="1" vertex="1">
          <mxGeometry x="28.29" y="262" width="141.71" height="40" as="geometry" />
        </mxCell>
        <mxCell id="ddtsMOl4UW6Yk28fR5wZ-16" style="edgeStyle=orthogonalEdgeStyle;rounded=0;orthogonalLoop=1;jettySize=auto;html=1;exitX=0.833;exitY=0.667;exitDx=0;exitDy=0;exitPerimeter=0;entryX=0.75;entryY=0;entryDx=0;entryDy=0;fillColor=#e51400;strokeColor=#B20000;" parent="1" source="PEcHKm6xACgB4PoNaAM6-59" target="ddtsMOl4UW6Yk28fR5wZ-14" edge="1">
          <mxGeometry relative="1" as="geometry" />
        </mxCell>
        <mxCell id="PEcHKm6xACgB4PoNaAM6-59" value="&lt;div style=&quot;text-align: left;&quot;&gt;&lt;span style=&quot;background-color: initial;&quot;&gt;measurements_gwe_avg&lt;/span&gt;&lt;/div&gt;" style="shape=document;whiteSpace=wrap;html=1;boundedLbl=1;align=center;fillColor=#6d8764;fontColor=#ffffff;strokeColor=#3A5431;" parent="1" vertex="1">
          <mxGeometry x="437" y="341" width="270" height="30" as="geometry" />
        </mxCell>
        <UserObject label="&lt;div style=&quot;forced-color-adjust: none; padding: 0px; margin: 0px; color: rgb(0, 0, 0); font-family: Helvetica; font-size: 12px; font-style: normal; font-variant-ligatures: normal; font-variant-caps: normal; font-weight: 400; letter-spacing: normal; orphans: 2; text-align: left; text-indent: 0px; text-transform: none; widows: 2; word-spacing: 0px; -webkit-text-stroke-width: 0px; white-space: normal; background-color: rgb(251, 251, 251); text-decoration-thickness: initial; text-decoration-style: initial; text-decoration-color: initial;&quot;&gt;Combined_Data_Dictionaries&lt;br&gt;&lt;/div&gt;" id="ddtsMOl4UW6Yk28fR5wZ-7">
          <mxCell style="shape=document;whiteSpace=wrap;html=1;boundedLbl=1;fillColor=#FF3333;" parent="1" vertex="1">
            <mxGeometry x="600" y="289" width="200" height="40" as="geometry" />
          </mxCell>
        </UserObject>
        <mxCell id="vJMPCamCU8jCB5T21oYa-11" value="&lt;div style=&quot;forced-color-adjust: none; color: rgb(0, 0, 0); font-family: Helvetica; font-size: 12px; font-style: normal; font-variant-ligatures: normal; font-variant-caps: normal; font-weight: 400; letter-spacing: normal; orphans: 2; text-indent: 0px; text-transform: none; widows: 2; word-spacing: 0px; -webkit-text-stroke-width: 0px; white-space: normal; background-color: rgb(251, 251, 251); text-decoration-thickness: initial; text-decoration-style: initial; text-decoration-color: initial;&quot;&gt;Measurements&lt;br&gt;&lt;/div&gt;" style="shape=document;whiteSpace=wrap;html=1;boundedLbl=1;align=center;fillColor=#0050ef;fontColor=#ffffff;strokeColor=#001DBC;" parent="1" vertex="1">
          <mxGeometry x="60" y="345" width="90" height="20" as="geometry" />
        </mxCell>
        <mxCell id="vJMPCamCU8jCB5T21oYa-12" value="&lt;div style=&quot;forced-color-adjust: none; color: rgb(0, 0, 0); font-family: Helvetica; font-size: 12px; font-style: normal; font-variant-ligatures: normal; font-variant-caps: normal; font-weight: 400; letter-spacing: normal; orphans: 2; text-indent: 0px; text-transform: none; widows: 2; word-spacing: 0px; -webkit-text-stroke-width: 0px; white-space: normal; background-color: rgb(251, 251, 251); text-decoration-thickness: initial; text-decoration-style: initial; text-decoration-color: initial;&quot;&gt;&lt;span style=&quot;text-align: left;&quot;&gt;Stations&lt;/span&gt;&lt;br&gt;&lt;/div&gt;" style="shape=document;whiteSpace=wrap;html=1;boundedLbl=1;align=center;fillColor=#0050ef;fontColor=#ffffff;strokeColor=#001DBC;" parent="1" vertex="1">
          <mxGeometry x="60" y="374" width="90" height="21" as="geometry" />
        </mxCell>
        <mxCell id="vJMPCamCU8jCB5T21oYa-13" value="&lt;div style=&quot;forced-color-adjust: none; color: rgb(0, 0, 0); font-family: Helvetica; font-size: 12px; font-style: normal; font-variant-ligatures: normal; font-variant-caps: normal; font-weight: 400; letter-spacing: normal; orphans: 2; text-indent: 0px; text-transform: none; widows: 2; word-spacing: 0px; -webkit-text-stroke-width: 0px; white-space: normal; background-color: rgb(251, 251, 251); text-decoration-thickness: initial; text-decoration-style: initial; text-decoration-color: initial;&quot;&gt;&lt;span style=&quot;text-align: left;&quot;&gt;Perforations&lt;/span&gt;&lt;br&gt;&lt;/div&gt;" style="shape=document;whiteSpace=wrap;html=1;boundedLbl=1;align=center;fillColor=#0050ef;fontColor=#ffffff;strokeColor=#001DBC;" parent="1" vertex="1">
          <mxGeometry x="60" y="400" width="90" height="20" as="geometry" />
        </mxCell>
        <mxCell id="PEcHKm6xACgB4PoNaAM6-29" value="Python/Jupyter Notebook&lt;div&gt;Create_Views_And_Tables.ipynb&lt;br&gt;&lt;/div&gt;" style="rounded=0;whiteSpace=wrap;html=1;strokeWidth=5;" parent="1" vertex="1">
          <mxGeometry x="195" y="249" width="230" height="40.6" as="geometry" />
        </mxCell>
        <mxCell id="ddtsMOl4UW6Yk28fR5wZ-14" value="&lt;div style=&quot;text-align: left;&quot;&gt;&lt;span style=&quot;background-color: initial;&quot;&gt;measurements_gwe_avg_percent_change_table&lt;/span&gt;&lt;/div&gt;" style="shape=document;whiteSpace=wrap;html=1;boundedLbl=1;align=center;fillColor=#e3c800;fontColor=#000000;strokeColor=#B09500;" parent="1" vertex="1">
          <mxGeometry x="437" y="389" width="270" height="30" as="geometry" />
        </mxCell>
        <mxCell id="ddtsMOl4UW6Yk28fR5wZ-15" style="edgeStyle=orthogonalEdgeStyle;rounded=0;orthogonalLoop=1;jettySize=auto;html=1;fillColor=#008a00;strokeColor=#005700;strokeWidth=5;" parent="1" source="vJMPCamCU8jCB5T21oYa-11" target="PEcHKm6xACgB4PoNaAM6-59" edge="1">
          <mxGeometry relative="1" as="geometry" />
        </mxCell>
        <mxCell id="ddtsMOl4UW6Yk28fR5wZ-17" style="edgeStyle=orthogonalEdgeStyle;rounded=0;orthogonalLoop=1;jettySize=auto;html=1;fillColor=#e3c800;strokeColor=#B09500;strokeWidth=5;" parent="1" source="vJMPCamCU8jCB5T21oYa-12" target="ddtsMOl4UW6Yk28fR5wZ-14" edge="1">
          <mxGeometry relative="1" as="geometry" />
        </mxCell>
        <mxCell id="ddtsMOl4UW6Yk28fR5wZ-18" style="edgeStyle=orthogonalEdgeStyle;rounded=0;orthogonalLoop=1;jettySize=auto;html=1;entryX=0;entryY=0.75;entryDx=0;entryDy=0;fillColor=#e3c800;strokeColor=#B09500;strokeWidth=5;" parent="1" source="vJMPCamCU8jCB5T21oYa-13" target="ddtsMOl4UW6Yk28fR5wZ-14" edge="1">
          <mxGeometry relative="1" as="geometry" />
        </mxCell>
        <UserObject label="&lt;div style=&quot;forced-color-adjust: none; padding: 0px; margin: 0px; color: rgb(0, 0, 0); font-family: Helvetica; font-size: 12px; font-style: normal; font-variant-ligatures: normal; font-variant-caps: normal; font-weight: 400; letter-spacing: normal; orphans: 2; text-align: left; text-indent: 0px; text-transform: none; widows: 2; word-spacing: 0px; -webkit-text-stroke-width: 0px; white-space: normal; background-color: rgb(251, 251, 251); text-decoration-thickness: initial; text-decoration-style: initial; text-decoration-color: initial;&quot;&gt;DataDictionary_created_fields.csv&lt;/div&gt;" link="&#xa;&lt;span style=&quot;color: rgb(0, 0, 0); font-family: Helvetica; font-size: 12px; font-style: normal; font-variant-ligatures: normal; font-variant-caps: normal; font-weight: 400; letter-spacing: normal; orphans: 2; text-align: left; text-indent: 0px; text-transform: none; widows: 2; word-spacing: 0px; -webkit-text-stroke-width: 0px; white-space: normal; background-color: rgb(251, 251, 251); text-decoration-thickness: initial; text-decoration-style: initial; text-decoration-color: initial; display: inline !important; float: none;&quot;&gt;DataDictionary_measurements.csv&lt;/span&gt;&lt;div style=&quot;forced-color-adjust: none; padding: 0px; margin: 0px; color: rgb(0, 0, 0); font-family: Helvetica; font-size: 12px; font-style: normal; font-variant-ligatures: normal; font-variant-caps: normal; font-weight: 400; letter-spacing: normal; orphans: 2; text-align: left; text-indent: 0px; text-transform: none; widows: 2; word-spacing: 0px; -webkit-text-stroke-width: 0px; white-space: normal; background-color: rgb(251, 251, 251); text-decoration-thickness: initial; text-decoration-style: initial; text-decoration-color: initial;&quot;&gt;DataDictionary_perforations.csv&lt;/div&gt;&lt;div style=&quot;forced-color-adjust: none; padding: 0px; margin: 0px; color: rgb(0, 0, 0); font-family: Helvetica; font-size: 12px; font-style: normal; font-variant-ligatures: normal; font-variant-caps: normal; font-weight: 400; letter-spacing: normal; orphans: 2; text-align: left; text-indent: 0px; text-transform: none; widows: 2; word-spacing: 0px; -webkit-text-stroke-width: 0px; white-space: normal; background-color: rgb(251, 251, 251); text-decoration-thickness: initial; text-decoration-style: initial; text-decoration-color: initial;&quot;&gt;DataDictionary_stations.csv&lt;/div&gt;&#xa;&#xa;" id="r7mZ_6ua5eMgXTl5qFnp-1">
          <mxCell style="shape=document;whiteSpace=wrap;html=1;boundedLbl=1;" parent="1" vertex="1">
            <mxGeometry x="266.27" y="163" width="200" height="40" as="geometry" />
          </mxCell>
        </UserObject>
        <mxCell id="r7mZ_6ua5eMgXTl5qFnp-2" style="edgeStyle=orthogonalEdgeStyle;rounded=0;orthogonalLoop=1;jettySize=auto;html=1;fillColor=#e51400;strokeColor=#B20000;strokeWidth=4;exitX=1;exitY=0.5;exitDx=0;exitDy=0;" parent="1" source="r7mZ_6ua5eMgXTl5qFnp-1" edge="1">
          <mxGeometry relative="1" as="geometry">
            <mxPoint x="476" y="143" as="sourcePoint" />
            <mxPoint x="700" y="290" as="targetPoint" />
          </mxGeometry>
        </mxCell>
        <mxCell id="--BF2uBDJJ6zDiC4mo0v-6" value="&lt;span style=&quot;text-align: left;&quot;&gt;@app.route(&#39;/missing_values&lt;/span&gt;&lt;br style=&quot;padding: 0px; margin: 0px; text-align: left;&quot;&gt;&lt;span style=&quot;text-align: left;&quot;&gt;def missing_values():&lt;/span&gt;" style="rounded=0;whiteSpace=wrap;html=1;fillColor=#008a00;fontColor=#ffffff;strokeColor=#005700;" parent="1" vertex="1">
          <mxGeometry x="1431.76" y="458" width="182.24" height="30" as="geometry" />
        </mxCell>
        <mxCell id="--BF2uBDJJ6zDiC4mo0v-7" style="edgeStyle=orthogonalEdgeStyle;rounded=0;orthogonalLoop=1;jettySize=auto;html=1;entryX=0;entryY=0.5;entryDx=0;entryDy=0;strokeWidth=5;fillColor=#008a00;strokeColor=#005700;" parent="1" source="--BF2uBDJJ6zDiC4mo0v-2" target="--BF2uBDJJ6zDiC4mo0v-6" edge="1">
          <mxGeometry relative="1" as="geometry" />
        </mxCell>
        <mxCell id="--BF2uBDJJ6zDiC4mo0v-8" style="edgeStyle=orthogonalEdgeStyle;rounded=0;orthogonalLoop=1;jettySize=auto;html=1;fillColor=#008a00;strokeColor=#005700;strokeWidth=5;" parent="1" source="--BF2uBDJJ6zDiC4mo0v-3" target="--BF2uBDJJ6zDiC4mo0v-6" edge="1">
          <mxGeometry relative="1" as="geometry" />
        </mxCell>
        <mxCell id="PEcHKm6xACgB4PoNaAM6-91" value="" style="rounded=0;whiteSpace=wrap;html=1;labelPosition=center;verticalLabelPosition=top;align=center;verticalAlign=bottom;fillColor=#e1d5e7;strokeColor=#9673a6;container=0;" parent="1" vertex="1">
          <mxGeometry x="1672.9" y="10" width="313.1" height="620" as="geometry" />
        </mxCell>
        <mxCell id="PEcHKm6xACgB4PoNaAM6-99" value="&lt;div&gt;Templates&lt;/div&gt;" style="rounded=0;whiteSpace=wrap;html=1;strokeWidth=5;strokeColor=#6666FF;container=0;" parent="1" vertex="1">
          <mxGeometry x="1672.9" y="12" width="120" height="30.566666666666663" as="geometry" />
        </mxCell>
        <UserObject label="404.html" id="PEcHKm6xACgB4PoNaAM6-92">
          <mxCell style="shape=document;whiteSpace=wrap;html=1;boundedLbl=1;container=0;fillColor=#f0a30a;fontColor=#000000;strokeColor=#BD7000;" parent="1" vertex="1">
            <mxGeometry x="1692.9" y="394.41666666666663" width="120" height="41.483333333333334" as="geometry" />
          </mxCell>
        </UserObject>
        <UserObject label="index.html" id="PEcHKm6xACgB4PoNaAM6-95">
          <mxCell style="shape=document;whiteSpace=wrap;html=1;boundedLbl=1;container=0;fillColor=#e3c800;fontColor=#000000;strokeColor=#B09500;" parent="1" vertex="1">
            <mxGeometry x="1692.9" y="73.66666666666666" width="120" height="41.483333333333334" as="geometry" />
          </mxCell>
        </UserObject>
        <UserObject label="Scatter_Plot_Average_Percent.html" id="PEcHKm6xACgB4PoNaAM6-96">
          <mxCell style="shape=document;whiteSpace=wrap;html=1;boundedLbl=1;container=0;fillColor=#e3c800;fontColor=#000000;strokeColor=#B09500;" parent="1" vertex="1">
            <mxGeometry x="1692.9" y="210.42" width="253.1" height="41.48" as="geometry" />
          </mxCell>
        </UserObject>
        <UserObject label="data_overview.html" id="PEcHKm6xACgB4PoNaAM6-94">
          <mxCell style="shape=document;whiteSpace=wrap;html=1;boundedLbl=1;container=0;fillColor=#d80073;fontColor=#ffffff;strokeColor=#A50040;" parent="1" vertex="1">
            <mxGeometry x="1692.9" y="147.83333333333334" width="140" height="41.483333333333334" as="geometry" />
          </mxCell>
        </UserObject>
        <UserObject label="Combined_Data_Dictionaries.html" id="PEcHKm6xACgB4PoNaAM6-93">
          <mxCell style="shape=document;whiteSpace=wrap;html=1;boundedLbl=1;container=0;fillColor=#0050ef;fontColor=#ffffff;strokeColor=#001DBC;" parent="1" vertex="1">
            <mxGeometry x="1686" y="341.515" width="200" height="41.483333333333334" as="geometry" />
          </mxCell>
        </UserObject>
        <UserObject label="&lt;span style=&quot;color: rgb(0, 0, 0); font-family: Helvetica; font-size: 12px; font-style: normal; font-variant-ligatures: normal; font-variant-caps: normal; font-weight: 400; letter-spacing: normal; orphans: 2; text-align: left; text-indent: 0px; text-transform: none; widows: 2; word-spacing: 0px; -webkit-text-stroke-width: 0px; white-space: normal; background-color: rgb(251, 251, 251); text-decoration-thickness: initial; text-decoration-style: initial; text-decoration-color: initial; display: inline !important; float: none;&quot;&gt;missing_values.html&lt;/span&gt;" id="--BF2uBDJJ6zDiC4mo0v-10">
          <mxCell style="shape=document;whiteSpace=wrap;html=1;boundedLbl=1;container=0;fillColor=#008a00;fontColor=#ffffff;strokeColor=#005700;" parent="1" vertex="1">
            <mxGeometry x="1702.9" y="457.9966666666666" width="120" height="41.483333333333334" as="geometry" />
          </mxCell>
        </UserObject>
        <mxCell id="--BF2uBDJJ6zDiC4mo0v-11" style="edgeStyle=orthogonalEdgeStyle;rounded=0;orthogonalLoop=1;jettySize=auto;html=1;fillColor=#008a00;strokeColor=#005700;strokeWidth=5;" parent="1" source="--BF2uBDJJ6zDiC4mo0v-6" target="--BF2uBDJJ6zDiC4mo0v-10" edge="1">
          <mxGeometry relative="1" as="geometry" />
        </mxCell>
        <mxCell id="PEcHKm6xACgB4PoNaAM6-114" style="edgeStyle=orthogonalEdgeStyle;rounded=0;orthogonalLoop=1;jettySize=auto;html=1;strokeWidth=5;fillColor=#0050ef;strokeColor=#001DBC;" parent="1" source="PEcHKm6xACgB4PoNaAM6-106" target="PEcHKm6xACgB4PoNaAM6-93" edge="1">
          <mxGeometry relative="1" as="geometry" />
        </mxCell>
        <mxCell id="PEcHKm6xACgB4PoNaAM6-141" style="edgeStyle=orthogonalEdgeStyle;rounded=0;orthogonalLoop=1;jettySize=auto;html=1;fontFamily=Helvetica;fontSize=12;fontColor=default;strokeWidth=5;fillColor=#fa6800;strokeColor=#C73500;" parent="1" source="PEcHKm6xACgB4PoNaAM6-111" target="PEcHKm6xACgB4PoNaAM6-92" edge="1">
          <mxGeometry relative="1" as="geometry" />
        </mxCell>
        <mxCell id="PEcHKm6xACgB4PoNaAM6-113" style="edgeStyle=orthogonalEdgeStyle;rounded=0;orthogonalLoop=1;jettySize=auto;html=1;fillColor=#d80073;strokeColor=#A50040;strokeWidth=5;" parent="1" source="PEcHKm6xACgB4PoNaAM6-107" target="PEcHKm6xACgB4PoNaAM6-94" edge="1">
          <mxGeometry relative="1" as="geometry" />
        </mxCell>
        <mxCell id="PEcHKm6xACgB4PoNaAM6-112" style="edgeStyle=orthogonalEdgeStyle;rounded=0;orthogonalLoop=1;jettySize=auto;html=1;fillColor=#f0a30a;strokeColor=#BD7000;strokeWidth=5;" parent="1" source="PEcHKm6xACgB4PoNaAM6-88" target="PEcHKm6xACgB4PoNaAM6-95" edge="1">
          <mxGeometry relative="1" as="geometry" />
        </mxCell>
        <mxCell id="PEcHKm6xACgB4PoNaAM6-115" style="edgeStyle=orthogonalEdgeStyle;rounded=0;orthogonalLoop=1;jettySize=auto;html=1;strokeWidth=5;fillColor=#e3c800;strokeColor=#B09500;" parent="1" source="PEcHKm6xACgB4PoNaAM6-108" target="PEcHKm6xACgB4PoNaAM6-96" edge="1">
          <mxGeometry relative="1" as="geometry" />
        </mxCell>
        <mxCell id="--BF2uBDJJ6zDiC4mo0v-12" value="query_vw_groundwater" style="rounded=0;whiteSpace=wrap;html=1;fillColor=#6a00ff;fontColor=#ffffff;strokeColor=#3700CC;" parent="1" vertex="1">
          <mxGeometry x="1078.8502702702704" y="553" width="128.1081081081081" height="30.000000000000007" as="geometry" />
        </mxCell>
        <mxCell id="--BF2uBDJJ6zDiC4mo0v-13" value="&lt;div&gt;@app.route(&#39;/JavaScript&#39;)&lt;/div&gt;&lt;div&gt;def JavaScript():&lt;/div&gt;" style="rounded=0;whiteSpace=wrap;html=1;fillColor=#6a00ff;fontColor=#ffffff;strokeColor=#3700CC;" parent="1" vertex="1">
          <mxGeometry x="1448.9" y="555" width="202.1" height="30" as="geometry" />
        </mxCell>
        <mxCell id="--BF2uBDJJ6zDiC4mo0v-14" style="edgeStyle=orthogonalEdgeStyle;rounded=0;orthogonalLoop=1;jettySize=auto;html=1;fontFamily=Helvetica;fontSize=12;fontColor=default;fillColor=#6a00ff;strokeColor=#3700CC;strokeWidth=5;" parent="1" source="--BF2uBDJJ6zDiC4mo0v-12" target="--BF2uBDJJ6zDiC4mo0v-13" edge="1">
          <mxGeometry relative="1" as="geometry" />
        </mxCell>
        <UserObject label="Scatter_Plot_Average_Percent.html" id="--BF2uBDJJ6zDiC4mo0v-15">
          <mxCell style="shape=document;whiteSpace=wrap;html=1;boundedLbl=1;container=0;fillColor=#6a00ff;fontColor=#ffffff;strokeColor=#3700CC;" parent="1" vertex="1">
            <mxGeometry x="1699.9" y="549.4200000000001" width="246.1" height="41.48" as="geometry" />
          </mxCell>
        </UserObject>
        <mxCell id="--BF2uBDJJ6zDiC4mo0v-16" style="edgeStyle=orthogonalEdgeStyle;rounded=0;orthogonalLoop=1;jettySize=auto;html=1;strokeWidth=5;fillColor=#6a00ff;strokeColor=#3700CC;" parent="1" source="--BF2uBDJJ6zDiC4mo0v-13" target="--BF2uBDJJ6zDiC4mo0v-15" edge="1">
          <mxGeometry relative="1" as="geometry" />
        </mxCell>
        <mxCell id="PEcHKm6xACgB4PoNaAM6-84" value="Flask Web Server&lt;div&gt;app.py&lt;br&gt;&lt;/div&gt;" style="rounded=0;whiteSpace=wrap;html=1;strokeWidth=5;" parent="1" vertex="1">
          <mxGeometry x="1025.9" y="2.0000000000000004" width="128.1081081081081" height="40.00000000000001" as="geometry" />
        </mxCell>
        <mxCell id="PEcHKm6xACgB4PoNaAM6-88" value="&lt;div&gt;@app.route(&#39;/&#39;)&lt;/div&gt;&lt;div&gt;def index():&lt;/div&gt;" style="rounded=0;whiteSpace=wrap;html=1;fillColor=#e3c800;fontColor=#000000;strokeColor=#B09500;" parent="1" vertex="1">
          <mxGeometry x="1482.1702702702703" y="75.00000000000001" width="128.1081081081081" height="30.000000000000007" as="geometry" />
        </mxCell>
        <mxCell id="PEcHKm6xACgB4PoNaAM6-111" value="@app.errorhandler(404)&#xa;def page_not_found(error):" style="rounded=0;whiteSpace=wrap;html=1;fillColor=#fa6800;fontColor=#000000;strokeColor=#C73500;" parent="1" vertex="1">
          <mxGeometry x="1421.764864864865" y="398.00000000000006" width="213.51351351351352" height="30.000000000000007" as="geometry" />
        </mxCell>
        <mxCell id="PEcHKm6xACgB4PoNaAM6-87" value="Routes" style="rounded=0;whiteSpace=wrap;html=1;strokeColor=#66FF66;strokeWidth=5;" parent="1" vertex="1">
          <mxGeometry x="1400.9" y="10" width="120" height="32" as="geometry" />
        </mxCell>
        <mxCell id="PEcHKm6xACgB4PoNaAM6-128" value="Functions" style="rounded=0;whiteSpace=wrap;html=1;strokeColor=#3399FF;strokeWidth=5;" parent="1" vertex="1">
          <mxGeometry x="1045.9" y="61.39" width="120" height="32" as="geometry" />
        </mxCell>
        <mxCell id="PEcHKm6xACgB4PoNaAM6-139" value="data_dictionaries" style="rounded=0;whiteSpace=wrap;html=1;fillColor=#0050ef;fontColor=#ffffff;strokeColor=#001DBC;" parent="1" vertex="1">
          <mxGeometry x="1071.8502702702704" y="345" width="128.1081081081081" height="30.000000000000007" as="geometry" />
        </mxCell>
        <mxCell id="--BF2uBDJJ6zDiC4mo0v-2" value="&lt;span style=&quot;text-align: left;&quot;&gt;get_missing_Percent_well_use&lt;/span&gt;" style="rounded=0;whiteSpace=wrap;html=1;fillColor=#60a917;strokeColor=#2D7600;fontColor=#ffffff;" parent="1" vertex="1">
          <mxGeometry x="1055.9" y="440" width="182.11" height="30" as="geometry" />
        </mxCell>
        <mxCell id="--BF2uBDJJ6zDiC4mo0v-3" value="&lt;span style=&quot;text-align: left;&quot;&gt;get_measurements_gwe_avg_percent_change_table&lt;/span&gt;" style="rounded=0;whiteSpace=wrap;html=1;fillColor=#60a917;strokeColor=#2D7600;fontColor=#ffffff;" parent="1" vertex="1">
          <mxGeometry x="1055.9" y="482" width="296.21" height="30" as="geometry" />
        </mxCell>
        <UserObject label="@app.route(&#39;/Combined_Data_Dictionaries&#39;)&#xa;def combined_data_dictionaries():" id="PEcHKm6xACgB4PoNaAM6-106">
          <mxCell style="rounded=0;whiteSpace=wrap;html=1;fillColor=#0050ef;fontColor=#ffffff;strokeColor=#001DBC;" parent="1" vertex="1">
            <mxGeometry x="1401.9" y="345" width="260" height="30" as="geometry" />
          </mxCell>
        </UserObject>
        <mxCell id="PEcHKm6xACgB4PoNaAM6-140" style="edgeStyle=orthogonalEdgeStyle;rounded=0;orthogonalLoop=1;jettySize=auto;html=1;fontFamily=Helvetica;fontSize=12;fontColor=default;fillColor=#0050ef;strokeColor=#001DBC;strokeWidth=5;" parent="1" source="PEcHKm6xACgB4PoNaAM6-139" target="PEcHKm6xACgB4PoNaAM6-106" edge="1">
          <mxGeometry relative="1" as="geometry" />
        </mxCell>
        <mxCell id="--BF2uBDJJ6zDiC4mo0v-19" value="query_vw_groundwater" style="rounded=0;whiteSpace=wrap;html=1;fillColor=#e51400;fontColor=#ffffff;strokeColor=#B20000;" parent="1" vertex="1">
          <mxGeometry x="1079.3702702702703" y="597.5799999999999" width="128.1081081081081" height="30.000000000000007" as="geometry" />
        </mxCell>
        <mxCell id="--BF2uBDJJ6zDiC4mo0v-20" value="&lt;div&gt;@app.route(&#39;/Scatter_Plot_Average_Percent&#39;&lt;/div&gt;&lt;div&gt;&lt;span style=&quot;background-color: initial;&quot;&gt;&amp;nbsp;&lt;/span&gt;&lt;span style=&quot;background-color: initial;&quot;&gt;def scatter_plot_page():&lt;/span&gt;&lt;/div&gt;" style="rounded=0;whiteSpace=wrap;html=1;fillColor=#e51400;fontColor=#ffffff;strokeColor=#B20000;" parent="1" vertex="1">
          <mxGeometry x="1449.42" y="599.5799999999999" width="202.1" height="30" as="geometry" />
        </mxCell>
        <mxCell id="--BF2uBDJJ6zDiC4mo0v-21" style="edgeStyle=orthogonalEdgeStyle;rounded=0;orthogonalLoop=1;jettySize=auto;html=1;fontFamily=Helvetica;fontSize=12;fontColor=default;fillColor=#e51400;strokeColor=#B20000;strokeWidth=5;" parent="1" source="--BF2uBDJJ6zDiC4mo0v-19" target="--BF2uBDJJ6zDiC4mo0v-20" edge="1">
          <mxGeometry relative="1" as="geometry" />
        </mxCell>
        <UserObject label="JavaScript.html" id="--BF2uBDJJ6zDiC4mo0v-22">
          <mxCell style="shape=document;whiteSpace=wrap;html=1;boundedLbl=1;container=0;fillColor=#e51400;fontColor=#ffffff;strokeColor=#B20000;" parent="1" vertex="1">
            <mxGeometry x="1700.42" y="594" width="246.1" height="41.48" as="geometry" />
          </mxCell>
        </UserObject>
        <mxCell id="--BF2uBDJJ6zDiC4mo0v-23" style="edgeStyle=orthogonalEdgeStyle;rounded=0;orthogonalLoop=1;jettySize=auto;html=1;strokeWidth=5;fillColor=#e51400;strokeColor=#B20000;" parent="1" source="--BF2uBDJJ6zDiC4mo0v-20" target="--BF2uBDJJ6zDiC4mo0v-22" edge="1">
          <mxGeometry relative="1" as="geometry" />
        </mxCell>
        <mxCell id="VpuxRaJbw_OcJhJ4wg8s-1" value="" style="edgeStyle=orthogonalEdgeStyle;rounded=0;orthogonalLoop=1;jettySize=auto;html=1;strokeWidth=5;fillColor=#f0a30a;strokeColor=#BD7000;" edge="1" parent="1" source="ddtsMOl4UW6Yk28fR5wZ-20" target="PEcHKm6xACgB4PoNaAM6-135">
          <mxGeometry relative="1" as="geometry">
            <Array as="points" />
            <mxPoint x="498" y="302" as="sourcePoint" />
            <mxPoint x="1143" y="553" as="targetPoint" />
          </mxGeometry>
        </mxCell>
        <mxCell id="PEcHKm6xACgB4PoNaAM6-135" value="get_measurements_gwe_avg_percent_change_table" style="rounded=0;whiteSpace=wrap;html=1;fillColor=#e3c800;fontColor=#000000;strokeColor=#B09500;" parent="1" vertex="1">
          <mxGeometry x="923.9600000000002" y="227" width="314.05" height="30" as="geometry" />
        </mxCell>
        <mxCell id="VpuxRaJbw_OcJhJ4wg8s-2" value="Change" style="rounded=0;whiteSpace=wrap;html=1;" vertex="1" parent="1">
          <mxGeometry x="2040" y="523" width="120" height="60" as="geometry" />
        </mxCell>
      </root>
    </mxGraphModel>
  </diagram>
  <diagram id="QqLx_yv1EwiIC4twr4-H" name="ERD">
    <mxGraphModel dx="794" dy="1659" grid="1" gridSize="10" guides="1" tooltips="1" connect="1" arrows="1" fold="1" page="1" pageScale="1" pageWidth="850" pageHeight="1100" math="0" shadow="0">
      <root>
        <mxCell id="0" />
        <mxCell id="1" parent="0" />
        <mxCell id="l_6iq-9skBgi3-7nM3ub-1" value="Stations&#xa;------------&#xa;_id pk int&#xa;site_code pk text&#xa;stn_id pk text&#xa;swn text&#xa;well_name text&#xa;continuous_data_station_number text&#xa;latitude numeric&#xa;longitude numeric&#xa;gse numeric&#xa;rpe numeric&#xa;gse_method text&#xa;gse_acc text&#xa;basin_code text&#xa;basin_name text&#xa;county_name text&#xa;well_depth numeric&#xa;well_use text&#xa;well_type text&#xa;wcr_no text&#xa;monitoring_program text&#xa;&#xa;perforations&#xa;------------&#xa;_id pk  int&#xa;site_code text FK &gt;- Stations.site_code&#xa;top_prf_int numeric&#xa;bot_prf_int numeric&#xa;&#xa;measurements&#xa;------------&#xa;_id pk int&#xa;site_code text FK &gt;- Stations.site_code&#xa;msmt_date timestamp&#xa;wlm_rpe numeric&#xa;wlm_gse numeric&#xa;gwe numeric&#xa;gse_gwe numeric&#xa;wlm_qa_desc text&#xa;wlm_qa_detail text&#xa;wlm_mthd_desc text&#xa;wlm_acc_desc text&#xa;wlm_org_name text&#xa;coop_org_name text&#xa;monitoring_program text&#xa;source text&#xa;msmt_cmt text" style="text;whiteSpace=wrap;" parent="1" vertex="1">
          <mxGeometry x="70" y="-730" width="470" height="710" as="geometry" />
        </mxCell>
        <UserObject label="-- Exported from QuickDBD: https://www.quickdatabasediagrams.com/&#xa;-- NOTE! If you have used non-SQL datatypes in your design, you will have to change these here.&#xa;&#xa;&#xa;CREATE TABLE &quot;Stations&quot; (&#xa;    &quot;_id&quot; int  NOT NULL ,&#xa;    &quot;site_code&quot; text  NOT NULL ,&#xa;    &quot;stn_id&quot; text  NOT NULL ,&#xa;    &quot;swn&quot; text  NOT NULL ,&#xa;    &quot;well_name&quot; text  NOT NULL ,&#xa;    &quot;continuous_data_station_number&quot; text  NOT NULL ,&#xa;    &quot;latitude&quot; numeric  NOT NULL ,&#xa;    &quot;longitude&quot; numeric  NOT NULL ,&#xa;    &quot;gse&quot; numeric  NOT NULL ,&#xa;    &quot;rpe&quot; numeric  NOT NULL ,&#xa;    &quot;gse_method&quot; text  NOT NULL ,&#xa;    &quot;gse_acc&quot; text  NOT NULL ,&#xa;    &quot;basin_code&quot; text  NOT NULL ,&#xa;    &quot;basin_name&quot; text  NOT NULL ,&#xa;    &quot;county_name&quot; text  NOT NULL ,&#xa;    &quot;well_depth&quot; numeric  NOT NULL ,&#xa;    &quot;well_use&quot; text  NOT NULL ,&#xa;    &quot;well_type&quot; text  NOT NULL ,&#xa;    &quot;wcr_no&quot; text  NOT NULL ,&#xa;    &quot;monitoring_program&quot; text  NOT NULL ,&#xa;    CONSTRAINT &quot;pk_Stations&quot; PRIMARY KEY (&#xa;        &quot;_id&quot;,&quot;site_code&quot;,&quot;stn_id&quot;&#xa;    )&#xa;)&#xa;&#xa;GO&#xa;&#xa;CREATE TABLE &quot;perforations&quot; (&#xa;    &quot;_id&quot; int  NOT NULL ,&#xa;    &quot;site_code&quot; text  NOT NULL ,&#xa;    &quot;top_prf_int&quot; numeric  NOT NULL ,&#xa;    &quot;bot_prf_int&quot; numeric  NOT NULL ,&#xa;    CONSTRAINT &quot;pk_perforations&quot; PRIMARY KEY (&#xa;        &quot;_id&quot;&#xa;    )&#xa;)&#xa;&#xa;GO&#xa;&#xa;CREATE TABLE &quot;measurements&quot; (&#xa;    &quot;_id&quot; int  NOT NULL ,&#xa;    &quot;site_code&quot; text  NOT NULL ,&#xa;    &quot;msmt_date&quot; timestamp  NOT NULL ,&#xa;    &quot;wlm_rpe&quot; numeric  NOT NULL ,&#xa;    &quot;wlm_gse&quot; numeric  NOT NULL ,&#xa;    &quot;gwe&quot; numeric  NOT NULL ,&#xa;    &quot;gse_gwe&quot; numeric  NOT NULL ,&#xa;    &quot;wlm_qa_desc&quot; text  NOT NULL ,&#xa;    &quot;wlm_qa_detail&quot; text  NOT NULL ,&#xa;    &quot;wlm_mthd_desc&quot; text  NOT NULL ,&#xa;    &quot;wlm_acc_desc&quot; text  NOT NULL ,&#xa;    &quot;wlm_org_name&quot; text  NOT NULL ,&#xa;    &quot;coop_org_name&quot; text  NOT NULL ,&#xa;    &quot;monitoring_program&quot; text  NOT NULL ,&#xa;    &quot;source&quot; text  NOT NULL ,&#xa;    &quot;msmt_cmt&quot; text  NOT NULL ,&#xa;    CONSTRAINT &quot;pk_measurements&quot; PRIMARY KEY (&#xa;        &quot;_id&quot;&#xa;    )&#xa;)&#xa;&#xa;GO&#xa;&#xa;ALTER TABLE &quot;perforations&quot; ADD CONSTRAINT &quot;fk_perforations_site_code&quot; FOREIGN KEY(&quot;site_code&quot;)&#xa;REFERENCES &quot;Stations&quot; (&quot;site_code&quot;)&#xa;GO&#xa;&#xa;ALTER TABLE &quot;measurements&quot; ADD CONSTRAINT &quot;fk_measurements_site_code&quot; FOREIGN KEY(&quot;site_code&quot;)&#xa;REFERENCES &quot;Stations&quot; (&quot;site_code&quot;)&#xa;GO" link="-- Exported from QuickDBD: https://www.quickdatabasediagrams.com/&#xa;-- NOTE! If you have used non-SQL datatypes in your design, you will have to change these here.&#xa;&#xa;&#xa;CREATE TABLE &quot;Stations&quot; (&#xa;    &quot;_id&quot; int  NOT NULL ,&#xa;    &quot;site_code&quot; text  NOT NULL ,&#xa;    &quot;stn_id&quot; text  NOT NULL ,&#xa;    &quot;swn&quot; text  NOT NULL ,&#xa;    &quot;well_name&quot; text  NOT NULL ,&#xa;    &quot;continuous_data_station_number&quot; text  NOT NULL ,&#xa;    &quot;latitude&quot; numeric  NOT NULL ,&#xa;    &quot;longitude&quot; numeric  NOT NULL ,&#xa;    &quot;gse&quot; numeric  NOT NULL ,&#xa;    &quot;rpe&quot; numeric  NOT NULL ,&#xa;    &quot;gse_method&quot; text  NOT NULL ,&#xa;    &quot;gse_acc&quot; text  NOT NULL ,&#xa;    &quot;basin_code&quot; text  NOT NULL ,&#xa;    &quot;basin_name&quot; text  NOT NULL ,&#xa;    &quot;county_name&quot; text  NOT NULL ,&#xa;    &quot;well_depth&quot; numeric  NOT NULL ,&#xa;    &quot;well_use&quot; text  NOT NULL ,&#xa;    &quot;well_type&quot; text  NOT NULL ,&#xa;    &quot;wcr_no&quot; text  NOT NULL ,&#xa;    &quot;monitoring_program&quot; text  NOT NULL ,&#xa;    CONSTRAINT &quot;pk_Stations&quot; PRIMARY KEY (&#xa;        &quot;_id&quot;,&quot;site_code&quot;,&quot;stn_id&quot;&#xa;    )&#xa;)&#xa;&#xa;GO&#xa;&#xa;CREATE TABLE &quot;perforations&quot; (&#xa;    &quot;_id&quot; int  NOT NULL ,&#xa;    &quot;site_code&quot; text  NOT NULL ,&#xa;    &quot;top_prf_int&quot; numeric  NOT NULL ,&#xa;    &quot;bot_prf_int&quot; numeric  NOT NULL ,&#xa;    CONSTRAINT &quot;pk_perforations&quot; PRIMARY KEY (&#xa;        &quot;_id&quot;&#xa;    )&#xa;)&#xa;&#xa;GO&#xa;&#xa;CREATE TABLE &quot;measurements&quot; (&#xa;    &quot;_id&quot; int  NOT NULL ,&#xa;    &quot;site_code&quot; text  NOT NULL ,&#xa;    &quot;msmt_date&quot; timestamp  NOT NULL ,&#xa;    &quot;wlm_rpe&quot; numeric  NOT NULL ,&#xa;    &quot;wlm_gse&quot; numeric  NOT NULL ,&#xa;    &quot;gwe&quot; numeric  NOT NULL ,&#xa;    &quot;gse_gwe&quot; numeric  NOT NULL ,&#xa;    &quot;wlm_qa_desc&quot; text  NOT NULL ,&#xa;    &quot;wlm_qa_detail&quot; text  NOT NULL ,&#xa;    &quot;wlm_mthd_desc&quot; text  NOT NULL ,&#xa;    &quot;wlm_acc_desc&quot; text  NOT NULL ,&#xa;    &quot;wlm_org_name&quot; text  NOT NULL ,&#xa;    &quot;coop_org_name&quot; text  NOT NULL ,&#xa;    &quot;monitoring_program&quot; text  NOT NULL ,&#xa;    &quot;source&quot; text  NOT NULL ,&#xa;    &quot;msmt_cmt&quot; text  NOT NULL ,&#xa;    CONSTRAINT &quot;pk_measurements&quot; PRIMARY KEY (&#xa;        &quot;_id&quot;&#xa;    )&#xa;)&#xa;&#xa;GO&#xa;&#xa;ALTER TABLE &quot;perforations&quot; ADD CONSTRAINT &quot;fk_perforations_site_code&quot; FOREIGN KEY(&quot;site_code&quot;)&#xa;REFERENCES &quot;Stations&quot; (&quot;site_code&quot;)&#xa;GO&#xa;&#xa;ALTER TABLE &quot;measurements&quot; ADD CONSTRAINT &quot;fk_measurements_site_code&quot; FOREIGN KEY(&quot;site_code&quot;)&#xa;REFERENCES &quot;Stations&quot; (&quot;site_code&quot;)&#xa;GO" id="l_6iq-9skBgi3-7nM3ub-2">
          <mxCell style="text;whiteSpace=wrap;fontSize=10;" parent="1" vertex="1">
            <mxGeometry x="499.90999999999997" y="-1080" width="560" height="1150" as="geometry" />
          </mxCell>
        </UserObject>
        <mxCell id="l_6iq-9skBgi3-7nM3ub-4" value="" style="shape=image;verticalLabelPosition=bottom;labelBackgroundColor=default;verticalAlign=top;aspect=fixed;imageAspect=0;image=data:image/png,iVBORw0KGgoAAAANSUhEUgAAA0EAAAJLCAYAAAAhEZ0LAAAgAElEQVR4Xuy9CZAdxZXvfYQAS914PCB1S6DtYVkIkLWLRVgYDaDXgDC7PyIQDxM9Y4dMoBkICDsEjgEmDApPiIAZEVhhT3QwPCCCz2zGbP0EjAiE9VgEWgyyPlkGLQipWxL2QDdmMXz3pH2uslNV91blrbxZlfUvhwPdvplZJ38nl/pXnsw7qK+//wvCBQIgAAIgAAIgAAIgAAIgAAIlITAIIqgknkY1QQAEQAAEQAAEQAAEQAAEFAGIIDQEEAABEAABEAABEAABEACBUhGACCqVu1FZEAABEAABEAABEAABEAABiCC0ARAAARAAARAAARAAARAAgVIRgAgqlbtRWRAAARAAARAAARAAARAAAYggtAEQAAEQAAEQAAEQAAEQAIFSEYAIKpW7UVkQAAEQAAEQAAEQAAEQAAGIILQBEAABEAABEAABEAABEACBUhGACCqVu1FZEAABEAABEAABEAABEAABiCC0ARAAARAAARAAARAAARAAgVIRgAgqlbtRWRAAARAAARAAARAAARAAAYggtAEQAAEQAAEQAAEQAAEQAIFSEchEBLX+w/9bKmiobHgE+v7j/wmvUqgRCIAACIAACIAACIBAJAGIIDQMEKgQgAhCMwABEAABEAABEACB8hCACCqPr1HTGgQggtA8QAAEQAAEQAAEQKA8BCCCyuNr1BQiqNRtAGG7pXY/Kl8SAnih5d/RGGv9+yA0C1z1a4ig0FoK6mNFwFUHszIGmZwQwMTsBCsKBYFcEcBY7t8dGGv9+yA0C1z1a4ig0FoK6mNFwFUHszIGmZwQwMTsBCsKBYFcEcBY7t8dGGv9+yA0C1z1a4ig0FoK6mNFwFUHszIGmZwQwMTsBCsKBYFcEcBY7t8dGGv9+yA0C1z1a4ig0FoK6mNFwFUHszIGmZwQwMTsBCsKBYFcEcBY7t8dGGv9+yA0C1z1a4ig0FoK6mNFwFUHszIGmZwQwMTsBCsKBYFcEcBY7t8dGGv9+yA0C1z1a4ig0FoK6mNFwFUHszIGmZwQwMTsBCsKBYFcEcBY7t8dGGv9+yA0C1z1a4ig0FoK6mNFwFUHszIGmZwQwMTsBCsKBYFcEcBY7t8dGGv9+yA0C1z1a4ig0FoK6mNFwFUHszIGmZwQwMTsBCsKBYFcEcBY7t8dGGv9+yA0C1z1a4ig0FoK6mNFwFUHszIGmZwQwMTsBCsKBYFcEcBY7t8dGGv9+yA0C1z1a4ig0FoK6mNFwFUHszIGmZwQwMTsBCsKBYFcEcBY7t8dGGv9+yA0C1z1a4igQFrK10f/Lf1mxx8CqU3zq+GqgzW/JrhjHAFMzGgbIBA+AYzl/n2Msda/D0KzwFW/hggKoKXsuOvb9Iv/+w5de9+rAdTGTxVcdTA/tcFdowhgYka7AIHwCWAs9+9jjLX+fRCaBa76NURQAC0FIqhxJ7rqYI1bhhKyIoCJOSuSKAcE8ksAY7l/32Cs9e+D0Cxw1a+9iSAO39rwk/PpzqffomvOPl7566FXttL9L/2eHr3276qfv/1vK6u+5If9UYe3qM/vvt9Po6/+RfW7C2aNreaTP177v1+lO595S3284/ITqvfhzxfe8V/02Gvb1Hdf3P+dAZ+lrEEL/lN9z/ddvbmXLjlxnPo8+Ye/VKFncfZkXTe2T+ek2/B/bzmHTvpa2wBeteoaWsfIqj6uOlhW9qGcxgm4npjThqSmTd84AZQAAuETwFju38eux1r/NTzQAoznbr3iql97F0Ev/66XTr7pKRLhYX7WBQcLERFF/KD/7ZP/R1UImULmF/80V4kWFjKmqLnmrOPpjv91gvouqQjidLroEmEUZY+IoCzrpos+rtvsCW1Ve/SVoHp1ddtMi1u6qw5WXCLhWd7IxKy/bGAy/MLGfEGTJiRV77MyXugvZsKjjxqBQHMIYCxvDudad2lkrM3aenne43L5ZbKLbQMYz7P22oHluerX3kVQrRUZETaM464rTxogQvhv3PCuvudl+t2u/z7gUABdDJiix8SbZCVIf8DhsuvZw6tcWdSNV6vYPn1VK2qlSuyrV1f3TbWYd3DVwYpJI0yrbSdmFkDb9/UfIHr0lzJpQ1LTpg/TI6gVCGRPAGN59kzTlmg71qa9T5L0/NKYL/2lVZJ8adJgPE9Dyy6tq37tXQTJSg9jMcWIfD7t2BEDQtl0hLo4kDL07/WQNgmli8qjC5YokbH0iTdjQ+tMe579zU4V6pdV3dKKND1Mz6yrXfMLP5erDhY+ueLU0HZiNvsf11gfI6JCUmuF55rpb3l4rRov9DGoVuhvrfBYtg3hsMVpk7A0ewIYy7NnmrbERsZafmbhSB255BlOPtcaG82tC+u3vU9Txh5+QFlpyuDnuK+N/JvY7RYYz9O2Drv0rvp1YUSQHvoWhZAfDPiS5U5TyEgeCZPjzyJSkogMUwTVskfCW5KKoCR1qyfSokJxoupq1/zCz+Wqg4VPrjg1tJ2YecLcsbdPhe3GXeabwFrhuVxGrfAJM9TWDH/lsuPCYxEOW5z2CEvdEMBY7oZrmlJtx1p5jhPhY257qLUNQcZV/q++dcFcCao3vvL3ZhkYz9N4301aV/26ECKIkfJhCbqo0DFzCNj1504a0PDrhYVxQxdhY4abmXn1tHxfedCIsyeNCKpXN/4+iUirtR/BtN9NEy12qa46WLGphGW97cQs/VmnYfZ9U9SYv9lVK4RV3xMk44H59lMfA2qFx9Yb98LyKGoDAgcSwFjuv1XYjrXm2CbPP7w69M6eD2tuQ+CtA1FhaboIins5ro+vZhlRBx5gPG9+G3PVrwshgqRx629jpRHyCsn/GH6YWj6VBxP9oYX/9vdzJ6hwOnmwMDcimzH/slSqh9LpK0HyxiHOHt6jlDQcrl7dZE9QrZUgtp/3J/CGPwmFiatr85tuMe7oqoMVo/blsNJ2YjZfuEiohhx8IuNB1IsIebMpZehjiqTXxyMey8wXOlK+/tKm3spwXOhvOTyNWpaZAMZy/963HWujQo/l+YZrJScJmzWUsP+oF766CIp6YW6Or7VeGmM899e2XPXrwoggaagyufNn/UFAD/3i71j8sBCRzmF+r++VMd/0SkxqLRFUy540K0FyTLceo2rWrd5KkAgfeSirVVd/TTjfd3bVwfJd63JZZzsxR1EyX6REhcNxvrjw3LhwuCxEkNiLcNhytW/U9i8EMJb7bwm2Yy0/65ir7LoIqrd1wJUIqrfdAuO5+zbnql97E0HukeEOIJCcgKsOltwCpHRNwGZijntzKC9B+HRKMwwjSXhu3KTJ5XLob71wuForQSZHhMO6blkoP08EMJb794bNWMtWx4XD8XgnY2PcNgQZk82oHZtwOL0MjOf+25PLlxsQQfnwL6zwTAATp2cHNOH2jUzMeugbm2pu2NVDUmVfTlx4Lu8X0tNHrSrpobZRByPEiSCEwzahIeEWuSaAsdy/exoZa9l6eQkU9ZuIcdsQ5GVULREkQqnW+Gq+NMJ47r89QQTlwwewImACmDgDdu5fq2Y7MXN288dS9dPZRBRxvHpcSKoZnquHsP7Dz3+d+ojsWitBCIcNvy2jhvEEMJb7bx22Y615/L85zoqIidsWUS8cTsjUOyI7SkhdcuK4KliM581vY676NVaCmu9L3DGHBFx1sBxWtbQm2U7MpQWGioNAAQlgLPfvNNuxNupgBP+1gQV5IOCqX0ME5cG7sME7AVcdzHvFYECVgO3EDIQgAALFIYCx3L+vbMdaiCD/vsurBa76NURQXj0Ou5pKwFUHa2olcLOaBGwnZmAFARAoDgGM5f59ZTvWQgT5911eLXDVryGC8upx2NVUAq46WFMrgZtBBKENgEDJCWAs998AbEWQf8thQV4JuOrXEEF59TjsaioBVx2sqZXAzSCC0AZAoOQEMJb7bwAQQf59EJoFrvo1RFBoLQX1sSLgqoNZGYNMTghgYnaCFYWCQK4IYCz37w6Mtf59EJoFrvo1RFBoLQX1sSLgqoNZGYNMTghgYnaCFYWCQK4IYCz37w6Mtf59EJoFrvo1RFBoLQX1sSLgqoNZGYNMTghgYnaCFYWCQK4IYCz37w6Mtf59EJoFrvo1RFBoLQX1sSLgqoNZGYNMTghgYnaCFYWCQK4IYCz37w6Mtf59EJoFrvo1RFBoLQX1sSLgqoNZGYNMTghgYnaCFYWCQK4IYCz37w6Mtf59EJoFrvo1RFBoLQX1sSLgqoNZGYNMTghgYnaCFYWCQK4IYCz37w6Mtf59EJoFrvo1RFBoLQX1sSLgqoNZGYNMTghgYnaCFYWCQK4IYCz37w6Mtf59EJoFrvp1JiKoZejQ0HijPiUj0P/RRyWrcfmqi4m5fD5HjctHwNXDUvlI2tcYY609O+SMJuCqX0MEocWBQIUARFD4zQATc/g+Rg1BwNXDEsgmJ4CxNjkrpExGwFW/hghKxh+pAicAERS4gyvVw8Qcvo9RQxBw9bAEsskJYKxNzgopkxFw1a8hgpLxR6rACUAEBe7gSvUQthu+j1FDEMBY7r8NYKz174PQLHDVryGCQmspqI8VAVcdzMoYZHJCABOzE6woFARyRQBjuX93YKz174PQLHDVryGCQmspqI8VAVcdzMoYZHJCABOzE6woFARyRQBjuX93YKz174PQLHDVryGCQmspqI8VAVcdzMoYZHJCABOzE6woFARyRQBjuX93YKz174PQLHDVryGCQmspqI8VAVcdzMoYZHJCABOzE6woFARyRQBjuX93YKz174PQLHDVryGCQmspqI8VAVcdzMoYZHJCABOzE6woFARyRQBjuX93YKz174PQLHDVryGCQmspqI8VAVcdzMoYZHJCABOzE6woFARyRQBjuX93YKz174PQLHDVryGCQmspqI8VAVcdzMoYZHJCABOzE6woFARyRQBjuX93YKz174PQLHDVryGCQmspOarPH/74IX3y6Sd08MGD6Stf/jINHnxQjqwbaIqrDpbbCpfQMEzMJXQ6qlw6AhjL/bscY61/H4Rmgat+nUsRtGpTD536L0/TfVedSgu+8dUBvvzef/yafv5fm2nrv11CY4e3hubnIOrz588/pw1vbaaPPv6EPv30Mxp80EHU2jKEJh07ng45+OBUdezr66fu51bSnNknUnvb8Ni8Pb17aNXqV+ii885JVb4kdtXBrIxBJicEMDE7wYpCQSBXBDCW+3cHxlr/PgjNAlf9OpciqJbzIILy3bS/+OILen3Db6m//08HGNpSEUJTJx1DBw8enHklIIIyRxpcgZiYg3MpKgQCBxBw9bAE1MkJYKxNzgopkxFw1a9zKYLMlaBbH1tPP/rFG4rUd/9uAlaCkrUZL6l29uyhLb/fru59UCX8rbVlKH300cf02Wefqb+1DP0S0aBBB9r2BdHxE79KQ4dUvtcufSWotaVFrQqNGX0Ubd+xU6WaOGE8TTpuIj3y+FPq89ChQ+jseaenrrurDpbaEGRwRgATszO0KDhwAghtDtzBGVcPY23GQB0Vh35deRzt6++vPH42dmXd4HURNG74YSo07sffnk43XjCFBi34T2UswuEa85mr3JsrAmhXRQjxNezwryhhs+l3W6lnz746t/yCvn7s1+jwv/2bRCLohBnT6O2t2+mNdRtUCBxWglx5NJxyXY5TCNsNp52gJvsJILQZrcGGAMZaG2rNy4N+vZ917kXQO70fqlUgET0Ih2teR7G50+a3KyJo919E0GGHtdDRY0fRO9t30gcf9FWLE9U9cD0ouQjqOGMutba2kKwS8eeKmMeeIBuHlShP1hNzLXQYp0rUsAKtKkKbA3VsE6qFsbYJkC1vgX49EBxEkGVDQrZoAn/44we0cfM71fA3PdVBBw2iUUe205BKyBvvGdrx3m4aVPnfoYceTKOOGklHtQ+jgyqHKOhXVDgcRBBanw2BrCdmhO3aeAF5ikIAoc1F8VT+7MRYmz+fiEXo1wUVQS/+89k0Z2I74Q1rfjuXWLZt567Knp1d9PnnAyMtR7QdQceMH6eS7fvDf9NvNm2hQZUkhx56CM2YfCwdcsiBJ8dBBOXf30Wx0OXEjLDdorQC2JmUAEKbk5JCOpMAxtr8tgn064KJIDxc5Lcz1bJsV+9e2rmrl3jplU+DO6KyP2jMUSOqWT6sHH39m99WRFDlkISDDxlMU4+bUPk9IYigYnq7GFa7nJgRtluMNgArkxNAaHNyVkg5kADG2vy2CPTrgokg3nCM0+Hy26FqWcbrQJ9UfiuIV3jMMDfO9/Enn1REEimRxD+oGnUlXQniPUJyQpzNbwXhdLhitrE0VmNiTkMLactOAKHNZW8B9vXHWGvPznVO9OsCiCDXjQDlg4BJACIo/DbRjIkZYbvht6My1RChzWXydnZ1xVibHUsXJaFf76fq5WCEbXv6aNw/PRTrWxx/7aLZo8xaBCCCwm8fLidmhO2G337KWkOENpfV8/b1xlhrz65ZOdGv/0LaiwhqlpNxHxBISgAiKCmp4qZzOTEjbLe47QKW1yeA0Ob6jJBiPwGMtcVoDejXEEHFaKmw0jkBiCDniL3fIOuJ2XuFYAAIgMABBDCW+28UGGv9+yA0C1z1a6wEhdZSUB8rAq46mJUxyOSEQNqJGWG7TtyAQkHAKQGM5U7xJiocY20iTEiUgoCrfg0RlMIJSBouAVcdLFxixatZ2om5eDWExSAAAhjL/bcBjLX+fRCaBa76NURQaC0F9bEi4KqDWRmDTE4IYGJ2ghWFgkCuCGAs9+8OjLX+fRCaBa76NURQaC0F9bEi4KqDWRmDTE4IYGJ2ghWFgkCuCGAs9+8OjLX+fRCaBa76NURQaC0F9bEi4KqDWRmDTE4IYGJ2ghWFgkCuCGAs9+8OjLX+fRCaBa76NURQaC0F9bEi4KqDWRmDTE4IYGJ2ghWFgkCuCGAs9+8OjLX+fRCaBa76NURQaC0F9bEi4KqDWRmDTE4IYGJ2ghWFgkCuCGAs9+8OjLX+fRCaBa76NURQaC0F9bEi4KqDWRmDTE4IYGJ2ghWFgkCuCGAs9+8OjLX+fRCaBa76NURQaC0F9bEi4KqDWRmDTE4IYGJ2ghWFgkCuCGAs9+8OjLX+fRCaBa76NURQaC0F9bEisGfvXmppabHKi0zFIICJuRh+gpUg0AgBVw9LjdhUtrwYa8vmcff1ddWvIYLc+w53KACBl19+mcZ/7WsQQgXwla2JmJhtySEfCBSHgKuHpeIQ8G8pxlr/PgjNAlf9GiIotJaC+lgReOmll2jcuHF0xLBhVvmRKf8EMDHn30ewEAQaJeDqYalRu8qUH2NtmbzdnLq66te5FEHrNrxFnVddS7fdtJg6zpxLu3p66cf/eifdtfTW5tCucZclty+jhx57gp58+D4a2d7m3Z6QDOjp3UOrVr9CF513TupqNZKXb8bhcNu2bqURI0bQ4Ucckfr+yJB/ApiY8+8jWAgCjRJw9bDUqF1lyd/X10dtw4eXpbqoZ5MIuOrXuRRBJtOZp3bQ7JNmQQQ1qbH5uk0jQqaRvFxf6WBvv/02DfnSl+jIo47yhQH3dUQAIsgRWBQLAjki4OphKUdVzK0pLIB+v2ULnXTSSbm1EYYVk4Crfu1VBHU/u5JuuGVJ1SNdd99BUycfT/pK0PKue2nb9ndVmrFjRtGjD3RVv5eMSVdleEVp/sWXV++3aGEnXbngUvXZ/E5s4e/uuf9BWra8S6W75IJzB6wEia1pbSlmM3Rr9SOPP6VuMHToEDp73unq3/I3/nfHGXOptbWFXli1utIWRtPR48bQmxs3VVZx9tHefe8fkDeNtXoHe2/nTvrTxx/T0UcfnaYIpM0Bgffee4/oiy8iRSxEUA4cBBNyT+APf/yQPvn0Ezr44MH0lS9/mQYPPij3NusGRj0s1RoXClW5nBu7rxJR8c4779CcOXNybinMKxqB4ESQiA4RIldffyOtfvk1WvNi9wARxOFw+kqQmU/C0zhfvYvLYRGz+LpFJAKMQ+6mTpmkxJF8p4e87d7dq0LzxE4ugy8WXnxxPvkujS31bC3j9+ZqztMrnqexo0fRpOMm0ttbt9Mb6zaoULm+vn7qfm6l+jeLJP5voytB5ulw7+/bR7t376ZjjzuujK4obJ2bKYJWbeqhU//labrvqlNpwTe+Stv29NHf//wlWrH4f3rn973/+DX9/L8209Z/u4TGDm/1bg8MyD+BP3/+OW14azN99PEn9Omnn9Hggw6i1pYhNOnY8XTIwQenqkAj43EjedlIiKBUrsosscyZYyt7a4dnvLcWWyQyc1NDBTXSNxvJG9evG6rMXzN7WwnSV17MUDezwesiSFZlZPXHTBsHRUSPvsIjaaVM+U4XWpyGV4HkfrpAeqbykK5/l9SWLBwXYhl6J4nqMCyKjj1mQnUFaNPmLTRxwnglkhrtYL/+9a/piMpeoEMOPbSK9pNPPiEe2EeMHHkg7spqw6BBg9Tf9f9+YXyWjPxA8dfEdFDl35yHc/O/Kx8G/G1Q5W/8d0mn0uBKRKCZIsg0aNCC/6Qzv34kRFAiTyFRngh8URnPXt/wW+rv/9MBZrVUhNDUScfQwYMHJza5kfG4kbxxD0tYCUrsOquEZvSE61V3bJGwclPDmRrpm43kjevXDVeIn9f6+vv5ua2hy7bBi6CQm4sYSiKCTIP10LaoyphCR09jCisRQbwydOTI9roiKK0tDcEOOHOUCDKrK6JHXw3iNI12sKoIOuSQ6i0//fRT2sciqHJYQtQlHYcfIPiS/3I41oDP3NEqQuezP/9Zpfmi8sZV/bfy/885Lf9X/sblVP59aGVfUn8lvlqlqXzWBdHgysMIl6f+y2Kp8u8vDRlCn1fKP6jyN35Y0f/LAkz/zGVx3hAvFyLo/pd+T5ff/WIV14v/fDbNmdhO+krQTQ+tpS09H6g049u/TL+746Lq95Ix6aoMryiN+6eHqvf78ben040XTFGfze/EFv7u1sfW049+8YZK992/mzBgJUhsTWtLiG0EdTqQwM6ePbTl99vVFwdVwt9aW4bSRx99TJ999pn6W8vQL6mXNQdcleHr+IlfpaFDKt9rV15Cm8UkiCB3rT5qH63tMyG2SLjzUxYl561fZ1EnryJIKqCvCnF42sgR7QNOh6u1EpQUgh7+xiF2+pVkJUhWiWqtBCW1BemiCZgiaM3a9dW9QWaOV19fW/3TCTOmNSyC8h4OJyKJ//vnv4op9d/KZyWkKheLNhZCLLb0/3KYi/m5tbW1ElbYp0JeagmmqqCqhMOw8GLBxcJLF2J5WrGKe9ixPbFIRIcIkXlL/g89+5v36Iv7vzNABHE4nL4SZOaT8DTOV+/icljE/OwfTiERYBxyd+rEEUocyXd6yNu2vX0qNE/s5DL4YuHFF+eT79LYUs9WfB8Ggc0VAbSrIoT4Gnb4V5Sw2fS7rdSzZ1+dCn5BXz/2a3T43/7NgHR5Cm1mwyCC3LTT327ceMCJqrZjLbZIuPFRlqX67NfB7QmS1R5ZwdHD1dhp+hHZUXuCovbv1DuyWi9Hv/9ZlU34jewJsrEly4YZSllRHUzC3+S7ObNPVNXduGkznTZnNnGI3DdPOZkqK5rWx2tzeWU8GIFFFIuqWoJJBBULpY//9CcluFh46UJMF2giiFoqIuuTyuESKtSPhdNf/y/hfxIKqP5eEVUstqoraRV/SIihvH2OCj2MavcffPCBCjM8rLKhW65POazx/fdp9uzZqbuKvvJihrqZe4J0ESSrMrL6Y6aNM0REj77CI2mlTPlOF1qchleB5H66QPrfq7YM+C6pLalhIUNhCWx+uyKCdv9FBB12WAsdPXYUvbN9J33wQV+1TrLyPXA9qL4IykNoc9S4kFdn8QsmHl/zfu3etUv9nMShWgh5I2Mttkjk3eMDI26a3a+DE0HsbnPpUwSRGQ6nh83pBydIk4na5xPVnMwT4ES8cFrzO/3EuTSnwyW1Jf/N3Y+FstwqvxWknw43fepktR+Ihc/MaVOovW24OjBh2/YdShCZedPUAEdkp6EVn7Ya1lcRS7JSxQ9PEtanhM5fwwDlbxI+yCtWcukhhvzQZYYc6oJJt+bDDz8kvt+XDzus+mdeIbMVQVyICAopUMRQEhFkktJD26IomkJHT2MKKxFBvDI0bvhhdUVQWluyaREopQgE/vDHD2jj5neq4W+6zQcdNIhGHdlOQyohb7xnaMd7uysvGgZVHn4PplFHjaSj2of9ZW+jduUttDlqXMirXwZXVt3//NcwxLzayHbxwUFqH60RQt7IWIstEnn2eLQIMi12tWUhSBGUb3fDujIRwI+lhuHtuLCX/spKYaMnFumrQhyexsJDPx2u1kpQUrp6+BuH2EWJoForQfJdrZWgpLYgXbkIbNu5i7bv2FVZHR64TXhE2xF0zPhxCsa+P/w3/WbTFhpUSXLooYfQjMnHVh6CDzw5Lk+hzWw3wuHctOWocLgsxlpskXDjr0ZL9dmvIYLqeM9cyTGTJ/0toUYbCfIXk8BLL71E4ypHex6R8dGexaRRXKuzPhhBVntkBUcPV2NKcSJIX6XhvT1pjqzWxZR+//81Z3xDe4Ki9hLh+OzitnUXlu/q3Us7d/WqlVcOUT2isj9ozFH7D4b5sPLzBL/5bUUEVcJYDz5kME09bkLl94RqiyC2Uz/Zs5mhzcIIIshFa/lLmVkdjIAtEu58lFXJedmykFV9uJxcHIyQZYVQFgjYEHj55Zdp/Ne+Ri0tLTbZkScnBLIWQVwt83Q4EURmOJweNqcfnCBoovb5RGEzT4AT8cJpze/0E+fSnA6X1JacuBVmNJEArwN9UvmtIF7hiTqe/+PKHjuOamWRxD+oGnf5Dm3W7YIIctuAsjoiG1sk3Popi9Lz1K+zqA9EUBYUUUbhCZinwxW+QiWtgAsRVFKUqDYIFJIAfizVj9vkx1LHjB1LbcOH+zECd1NiYegAACAASURBVA2WAMLhgnUtKpYHAq46WB7qViYb8i6CzJUc0zdJf0uoTD5FXUEgDQGIoDS0sk27d88e2rZtG33jG9/ItmCL0rBFwgJajrO4ekbDSlCOnQ7TmkfAVQdrXg1wp3oEbH/Ar165+B4EQCA/BDCW+/MFH4qw5Xe/o5NOOsmfEbhzkARc9WuIoCCbCyqVloCrDpbWDqR3RwAiyB1blAwCeSGAsdyvJ7I4Hc5vDXD3PBJw1a8hgvLobdjUdAKuOljTK4IbxhKACELjAIHwCWAs9+9jjLX+fRCaBa76NURQaC0F9bEi4KqDWRmDTE4IYGJ2ghWFgkCuCGAs9+8OjLX+fRCaBa76NURQaC0F9bEi4KqDWRmDTE4IYGJ2ghWFgkCuCGAs9+8OjLX+fRCaBa76NURQaC0F9bEi4KqDWRmDTE4IYGJ2ghWFgkCuCGAs9+8OjLX+fRCaBa76NURQaC0F9bEi4KqDWRmDTE4IYGJ2ghWFgkCuCGAs9+8OjLX+fRCaBa76NURQaC0F9bEi4KqDWRmDTE4IYGJ2ghWFgkCuCGAs9+8OjLX+fRCaBa76NURQaC0F9bEi4KqDWRmDTE4IYGJ2ghWFgkCuCGAs9+8OjLX+fRCaBa76NURQaC0F9bEi4KqDWRmDTE4IYGJ2ghWFgkCuCGAs9+8OjLX+fRCaBa76NURQaC0F9bEi4KqDWRmDTE4IYGJ2ghWFgkCuCGAs9+8OjLX+fRCaBa76dalE0LoNb1HnVdfSmhe7U7ePmad2UNfdd9DUycfH5m2k/NQGpczQ07uHVq1+hS467xzq6+un7udW0pzZJ1J72/CUJaVPrt87fe7m5HDVwZpjPe6ShAAm5iSUkAYEik0AY7l//2Gs9e+D0Cxw1a8hghK2lJBEUMIqZ5YMIigzlCioAQKYmBuAh6wgUBACrh6WClL9XJiJsTYXbgjKCFf92qsIYmGxaGEnLVvepZx1yQXn0oypk+mGW5aoz/zdlQsuVf++5/4Hq+n48203LaaOM+eq75KWw+n4GjtmFD36wF/uGXft6uml+RdfXrXroceeqK4EdT+7smqj2L34ukXKDrN8+Rv//cmH76OR7W1eGuYjjz+l7jt06BD65iknD1gJ4u8mThhPmzZvUWnGjD6Khg8bRm+s26A+83eTjptYtVvK4j90nDGXWltb1HdvbtxULYM/T6/48uhxY0i/99nzTqe3t26vli33O2HGNFVGUltkNUu3W+5nA9hVB7OxBXncEMDE7IYrSg2LwB/++CF98ukndPDBg+krX/4yDR58UKEqiLHcv7sw1vr3QWgWuOrX3kUQCx8WEBJKJp9FaHDomggSCWMzP7PQSFJOmnC1Cy/rpPPndygRJrZIOJy+KiTfscDZvbt3QLhdVBk2oXhZNOZa4XAsPFj4sBCRdPJZBAuH0fH19IrnaezoUUoU6d+JKJF0+mdzJYjvJ6F4UoaIqaS2SPnDjjicTpszu2q3LsrScHPVwdLYgLRuCbiYmLft6aO///lLtGLx/7Q2ftWmHjr1X56m+646lRZ846sDyvnef/yafv5fm2nrv11CY4e3Wt8DGUGgHoE/f/45bXhrM3308Sf06aef0eCDDqLWliE06djxdMjBB9fLPuD7Rlb/G8nLRmAsT+UqJ4ltxto0z2dOjDYKvfr6G2n1y69Vny2j7inPokXeKpE1S1fbLVz1a+8iSG88uriQxsXigi9elYlbSTFD1eLKMUVKnPP1e8vKjZQ5YkTbgNUcPa1eflSHZlG0sPOK6gpW1o2vVnn1RJC+P0gXKdKgWVz09fdX9xXJvVgUHXvMBGofPkytLkWJEPPesnLEZejl89/1e/P3cbbwd+a+phdWra6sYB0xYNUqKWNXHSzp/ZHOPQGbibmeVYMW/Ced+fUjGxJBte4BEVTPA/g+CwJffPEFvb7ht9Tf/6cDimupCKGpk46hgwcPTnyrRoRMI3khghK7yGlCm7E2byKIn/myemmdt7o5db6jwl09oxVCBLEQkUYkfM1wuCRiKqkIihMwNy++Xh2MYIbmsU3mSpBpr9ith/g5aiuRxWYpgswbSLic3EO+l/A0c1Izw+Y4vb4SlESQiQjSRRdEUDNbVPHuZTMxcy3vf+n3dPndL1Yr/OI/n01zJrbT1659hLb0fKD+Pr79y3TPwjlqRee7fzdBrd7w9eNvT6cbL5hSE5a5EnTrY+vpR794Q+WRsrASVLz2ViSLd/bsoS2/365MPqgS/tbaMpQ++uhj+uyzz9TfWoZ+iWjQoAOr9AXR8RO/SkOHVL7XLjMEmr+KCqPmMXvsmNEqbJrnhT1799Hefe+rkjh0m8On016uHpbS2lHm9DZjbb3tBPKMJy+e9a0U+vNgHPda+eR5bfZJs9Tqj37VWuXRV4L4BTm/rOeoJN4+wZc876XZipG23ciLZI7e2b5jp8ouz2TmS+aol86NboWQ5zuOyuG+y89k5gtqve9LtFDaerrq14URQTowc6WmmStBbAefMCerUrVWgm5esrTu3qO0DcE2fVYiaM3a9YkmprgVJLFDxEuWK0GyKsUTatrLVQdLawfSuyNgMzFzuNu4f3qoKmbmLfk/9Oxv3qMv7v+OMlRfCRIxIytDZtq4mukiaNzww5SQEvHE5fMFEeSuXaBkos0VAbSrIoT4Gnb4V5Sw2fS7rdSzZ18dPF/Q14/9Gh3+t38zIJ354itJGDU/KPEDElaCit8ibcZa8+Vz1HYCPTKIBctdS2+tviCvt+dantWi8skL8lov16O8EieCeIuHvqXD5UqQLoJ4S0PUNoVaz1uNboWQ/iovvc1wOP25jF908LOW7AFP09JdPaMVQgStW/8mLe+6tyooovYEZbkSxI7hDnjizOlqv5K+J0hEkCyTStxo3J4gCX+TTlAvdjRNo0iTNgsRxOFqeoOWMnnlpq//I/rt/7e5KpDi9gSZExy/CZS3BzbhcGYHxp6gNK2iXGltJmYRQUwqKuwtSgSJgJFQNhFMSUTQO70fqlUgET0IhytXG/VV281vV0TQ7r+IoMMOa6Gjx46id7bvpA8+6KuaVFn0UdfA9aD6IihK1JgPRnwojxlRkLc3xr58U8T72oy1ulCI2pIg2wmmTpmkVlz0Zyl+Dps1fUr1IK16gkV+6kTyTZ8yecDLbc6f5ETgKBFU7wV51v6stdrD99K3Kdi+dK61FYJXjfnnV0yhxc+FfMlPs0i92QZ9S0RSHqUWQRwOt+T2ZdUlRoYWJ3rMxhu1asRpksR6yhImvzng67vfWaDC4UT48N/4zQELNBE7kkfK10+HS7Jkm7RB2KSTJUlzuTLpPhxpuPrSpn4i26uvr60ux7J9Zlgb/40nNhE+/Jnzs3jifUVyklyacDh9CbiR3z1y1cFs/IQ8bgjYTMxsiQgRsUoXQ0lEUL1VHH0lCCLIje9Ram0Cf/jjB7Rx8zvV8Dc99UEHDaJRR7bTkErIG+8Z2vHe7ooQGkSHHnowjTpqJB3VPowOqhyioF+68DHDpCWdGbIjogcrQcVvrTZjrS6ColZORLCcVQmRNPeIpxFB+ooRRND+Q6q41dXbD262TO7DbZX94GlEkG3rdvWM5nUlyBYG8oGA+UajUSKuOlijdiF/dgRsJmb97vqqkJzk5koEyb4jrARl53+UVJvAtp27Ki+xdtHnn8uaz1/Sj2g7go4ZP079e98f/pt+s2kLDaokOfTQQ2jG5GPpkEMOPDnOFEG1wqj55Zlc+gmlWAkqbou1GWsbWQlKcuhU1Elukm/kiHasBNURQXF9OG6LQ9xKkG2rdvWMVkoRpP8GUJRD6sWW2joR+bIjABGUHcuylGQzMcsqjYS4ySEJIlKyFkHYE1SW1pjPeu7q3Us7d/USnxbHp8EdUdkfNOaoEVVjP6yEsvzmtxURVDkk4eBDBtPU4yZUfk+otgjizHFh1Pzdxk2b1c8ccBr+Dbuo0Js0tFw9LKWxoexpbcbatHuCzJ9FqffcJs99UflkT5BeRgjhcLLFQCJ25FCqtAdR1doKwW09biWovW34gNUlvv+2He8m2ldu9iFX/bqUIqjsAxTqfyABVx0MrPNDwGZiZuvN0+H0E9/0UDkWRvqhBklXcXA6XH7aCCwh4nWgTyq/FcQrPGaYG/P5+JNPKiKJlEjiH1SNuyRsWlZ0osKoWfjMnDaF+GGJN3Rv275DCSIzbxq/YCxPQ8tNWtuxttZ2AvN0OP0UtiR7rXURJKe3ST4RYK5EEG/pMOuWFfl6J8DpP04vJ8HZiCC2N6oP11oJ4n4t9kl987bCCxGUVUtEOYUmgImz0O5LZLztxJyocCQCARDIBQGM5f7d4HKsjTo0IUmNbfMlKRtp3BNw1a8hgtz7DncoAAFXHawAVS+NiS4n5loQ9b1EUenqHZxQGgehoiCQAQGM5RlAbLAIl2NtnJipt83hnp/9O135vX+s/rxJkirWK7NeCF6SeyBNMgKu+jVEUDL+SBU4AVcdLHBshaqey4m5UCBgLAgETABjuX/nYqz174PQLHDVryGCQmspqI8VAVcdzMoYZHJCABOzE6woFARyRQBjuX93YKz174PQLHDVryGCQmspqI8VAVcdzMoYZHJCABOzE6woFARyRQBjuX93YKz174PQLHDVryGCQmspqI8VAVcdzMoYZHJCABOzE6woFARyRQBjuX93YKz174PQLHDVryGCQmspqI8VAVcdzMoYZHJCABOzE6woFARyRQBjuX93YKz174PQLHDVryGCQmspqI8VAVcdzMoYZHJCABOzE6woFARyRQBjuX93YKz174PQLHDVryGCQmspqI8VAVcdzMoYZHJCABOzE6woFARyRQBjuX93YKz174PQLHDVryGCQmspqI8VAVcdzMoYZHJCABOzE6woFARyRQBjuX93YKz174PQLHDVryGCQmspqI8VAVcdzMoYZHJCABOzE6woFARyRQBjuX93YKz174PQLHDVryGCQmspqI8VAVcdzMoYZHJCABOzE6woFARyRQBjuX93YKz174PQLHDVryGCQmspqI8VAVcdzMoYZHJCABOzE6woFARyRQBjuX93YKz174PQLHDVr3Mtgnb19NL8iy+nrrvvoKmTjw/Np6iPBYG+vn7qfm4lzZl9IrW3DbcoITqLqw6WmYEoqGECmJgbRogCQCD3BDCW+3cRxlr/PgjNAlf9GiIotJaC+lgRcNXBrIxBJicEMDE7wYpCQSBXBDCW+3cHxlr/PgjNAlf92psIuvr6G+lbZ82jjjPnkqz4PPnwfTSyvY26n11Jv3pmBf3oB9cMWAmaeWoHLVrYScuWdyn/XnLBuTRj6mS64ZYl6jN/d+WCS2v6ft2Gt6jzqmtp9kmzaPXLrxHfk1eb9HJvu2mxsksuvq9cYmNoDSyuPrLyMmb0UbR9x06VbOKE8TTpuIkk33WcMZdaW1sO+PzI40+ptJs2b1H5uIzhw4bRG+s2DChH7s3p5ZIye3r30KrVr9CwIw6nvfveJ/67uRKk57vovHOsXOOqg1kZg0xOCGBidoIVhYJArghgLPfvDoy1/n0QmgWu+rU3EXTP/Q/Se7t6aPF1i5ToWd51Ly3svEKJjyW3L6MjR7bTWfNOP0AEsfDhPCJm5DOXwWJozYvdiUSQCB0RYCyK7lp6a7VcETsXXtZJ58/vUOIq6T1Cany6CDphxjR6e+t2JWJYbCQRQSx8OJ+IGfmsl8O8nl7xPI0dPUqJK/07yTe9InaPHjemek8Jh+N8xx4zQX335sZNxB2F75f2ctXB0tqB9O4IYGJ2xxYlg4BOQMZtm5dSjeRlGzCW+2+LNmOt+TI8aS3kWbDes1/S8iQdv6jnF+XyjBmVP+mWDVc2pq1TM9IXbcuCNxHEjeLmJUvp0Qe6lOjhFZ3XKw/XLHBYePz0zp8of+l7gnhFRt8fpH9O2oGkMYrIiWrE3PhnTZ9C06dMVqtGeudi20SsNaNB+b5HLaHDtvGqTK2VIH3vDq/YyGe93L7+frXao0+YIm5aW4aq78x7cDl8mfm4XF6VSnth4kxLrHjpbSbm4tUSFoOAfwKNCJlG8kIE+fc9W2Az1iZ9hjNr6Epg8PNlVsLKlY358HZzrHD1jOZNBDE2bmQsRr5/zQ+VGBLxI59NgeJSBOlhbqYIMl2cJOyuOc3C/V2aKYLM2nAoXdvwYalEkC0RVx3M1h7ky56AzcTMVvCqtYTg8mdZRU4T0stvEx967AlVqTKNH9l7ESUWgYCEKA8dOoTOrkR08BUV7vzCqtU0dszo6kr+nr37VNgzX3reNHXGWJ6Glpu0NmOtPO/pY2WtrQnyQly2K4wdM0o9R8ZdUn7U1gdzm4ReRq2DufRn1BEj2tRL+6ixPqmNNt7AlgUbavvzeBVBsgLE+384FE0eKmRFqJkiSG/ostozckR7dbWqMczFzd0sEbRm7frqZKnTkreCSVeCbElj4rQlV5x8jUzM8kZQxiT+nCakN23YbnGowlIQOJCAuZoTF+4s8wtHAbBI4v9iJaj4LaqRsTbN1gR+eb17d+8BETtRBGttfZAydNFlvnSvVSY/P+oiSLZ5yBYNlytB2LLQWH/xKoLkAAQOPeM9N/xQ8csnu+nmxderI7GbKYLMvUb6niAJf5OGXKYju5Ps+5H9Orwnhw9BEMGih7/Jm8CocDgOX9P39sgkqIe8RYkgPiJbvwfff9uOdyPFVL1uAhFUj1Dxv29kYo46ECVNSK8Zflu2A1aK33pQgzQEdCETJWrMvZw8b8iBOxBBaUjnM20jY63+fCVRObI/XB839ZfV5raFeoJFfnLFjPrRy7cVQVFjfVKhZuPNZr2oDnXLglcRZIocUy03WwRJuIopcvTT4czlWZtGW6Q89USQHGLAdZKT4GxEkIgkYSPCqtZKEIsgsU/y2WzE5bwQQUVqlXa22kzMfCcZl+Su5tvCJCG9EEF2PkOuYhKIEkFmTcxTRmXshggqps91q23G2qg9QbX2Z9f6rpYIqrX1ASKo9r7tqD5c9C0LXkVQHrq67Wa8PNgOG7IjABGUHcu8lmQzMZt1MceLpCG9EEF5bRWwywUBUwTFhTvzvV99fW3VBP0kUbzQcuGZ5pRpM9ZGHVIlqz1Tp0xS+22yXgkyV5MgguJFUKhbFoITQdKR4rq6GYYCEdScQTHvd4EIyruHGrfPZmKW4/tlw62+J4gtShrSCxHUuP9QQnEIRO0Jkp8yMMOdN27aTKfNma1Cor95yskUdVpomppjLE9Dy01am7FWPxhB/xmUWj9XYrMnKGrrg4SrhSaCeKsBbxnAloX4dh6cCHLTpVFq6AQwcYbuYbtjW5kKr/ZIqCx/1sNlk4b0QgSF375Qw4EE5DQ4WdHRT4eThzIWPjOnTSEObebQ6m3bdyhBZOZNwxZjeRpabtI2KoKSbE0wfy6Fa1LrSOuo0+ekDPOnU7isLPcEjWxvU+XVs9HGG9iyYENtfx6IoMb4IXcgBDBxBuLIGtWwmZjDp4IagkBYBDCW+/dnHsdaRP34bxeNWOCqX0MENeIV5A2GgKsOFgygACqSx4k5AKyoAgjkigDGcv/u8DHW1tsKcc/P/p2u/N4/DthXVI9UvTJxymc9gtl976pfQwRl5yOUVGACrjpYgZEEZ7qPiTk4iKgQCOScAMZy/w7CWOvfB6FZ4KpfQwSF1lJQHysCrjqYlTHI5IQAJmYnWFEoCOSKAMZy/+7AWOvfB6FZ4KpfQwSF1lJQHysCrjqYlTHI5IQAJmYnWFEoCOSKAMZy/+7AWOvfB6FZ4KpfQwSF1lJQHysCrjqYlTHI5IQAJmYnWFEoCOSKAMZy/+7AWOvfB6FZ4KpfQwSF1lJQHysCrjqYlTHI5IQAJmYnWFEoCOSKAMZy/+7AWOvfB6FZ4KpfQwSF1lJQHysCrjqYlTHI5IQAJmYnWFEoCOSKAMZy/+7AWOvfB6FZ4KpfQwSF1lJQHysCrjqYlTHI5IQAJmYnWFEoCOSKAMZy/+7AWOvfB6FZ4KpfQwSF1lJQHysCrjqYlTHI5IQAJmYnWFEoCOSKAMZy/+7AWOvfB6FZ4KpfQwSF1lJQHysCrjqYlTHI5IQAJmYnWFEoCOSKAMZy/+7AWOvfB6FZ4KpfQwSF1lJQHysCrjqYlTHI5IQAJmYnWFEoCOSKAMZy/+7AWOvfB6FZ4KpfQwSF1lJQHysCrjqYlTHI5IQAJmYnWFEoCOSKAMZy/+7AWOvfB6FZ4Kpf51oE7erppfkXX05dd99BUycfH5pPUR8LAn19/dT93EqaM/tEam8bblFCdBZXHSwzA1FQwwQwMTeMEAWAQO4JYCz37yKMtf59EJoFrvo1RFBoLQX1sSLgqoNZGYNMTghgYnaCFYWCQK4IYCzPlTtgDAjkmoA3EXT19TfSt86aRx1nziVZ8Xny4ftoZHsbdT+7kn71zAr60Q+uGbASNPPUDlq0sJOWLe9SUC+54FyaMXUy3XDLEvWZv7tywaV1ga/b8BZ1XnVtNQ+XJ/e+5/4Hq+VzgttuWqxslIttkEvy1L1hgRPIysuY0UfR9h07VU0mThhPk46bSPJdxxlzqbW15YDPjzz+lEq7afMWlY/LGD5sGL2xbsOAcgQPp5dLyuzp3UOrVr9Cw444nPbue5/47+ZKkJ7vovPOsaKNidMKW6EyQQQVyl0wFgSsCGAst8KGTCBQSgLeRBCLjfd29dDi6xYp0bO8615a2HmFEhxLbl9GR45sp7PmnX6ACGLhw3lEyMhnLoPF0JoXu+s6koWMiBu+10OPPaFEEF8cfidliDiTzxde1knnz+9QQivN/eoalOMEugg6YcY0envrdiViWGwkEUEsfDifiBn5rJfD1X96xfM0dvQoJa707yTf9IrYPXrcmOo9JRyO8x17zAT13ZsbNxFPgHy/tBcmzrTEipfehwjSQ3pHjGhDeG/xmg0stiAg47bNS6lG8rKpGMstHIYsIFBSAt5EEIuYm5cspUcf6FKih1d0Xq88XLPAYbHx0zt/UhUlsieIxYu+P0j/bK4mxflTxJMpdHQRFLXCY+bj8tlOEW6htp9aQofrzKsytVaC9L07vGIjn/Vy+/r71WqPPmGKuGltGaq+M+/B5fBl5uNyeVUq7YWJMy2x4qWHCCqez2BxMQk0ImQayQsRVMz2AqtBwBcBbyKIK8wihgXH96/5oRJDIn7ks3kwQhYiSFad+H5yiR0ciqeHyvH3smJk/l3yJg3B8+XgRu/bTBFk2sqhdG3Dh6USQbb1hQiyJVecfDYiKEnY7l1Lb1UQokJlbVaCJA+vcvMqNV/6OCOr0EJeVsPFhjQhw2UL7y1Oay22pRKiPHToEDq7EtHBV1S48wurVtPYMaOrK/l79u5TYc986XnT0MBYnoYW0oJAuQl4FUGyAsT7f/hBQh44ZEXIhQiqtRLEIki/9NWl3bt7qytXZWoyzRJBa9aur06WOl95K5h0JcjWN5g4bckVJ5+NCEoStsvhsXGhso2KIAkX1kN99ZdBIohk9Zq/SxoyXMbw3uK01mJbaq7mxIU7y/zCUQAskvi/WAkqtu9hPQgUiYBXESQHIMyaPkXts+EHjl8+2U03L75eHYntQgTJ29KoPUHr1r+p9ibJKlHUniAJfxMxFfrx3Un2/ch+Hd6Tw4cgiGDRw9/kTWBUOByHr+l7e2QS1EPeokQQH5Gt34Pvv23Hu5Fiql6nhAiqR6j439uIoCRhu/yChA9a0fcjSqjs1CmTqvuAku4JMkN79c/sBf1ljZk26Wp5LZv1g2CK73XUwAcBXchEiRpzLyfPG3LgDkSQD4/hniBQTgJeRZApcuJWabLcE8Ru1kPbJORE3qTKQQnSHEyRo4ePmCfHhdiE6okgOcSA6y4nwdmIIBFJwlCEVa2VIBZBYp/ks9mIy3khgkJsvQPrZCOC5KVJrbDdWqGy+uEuWYggFkDmCZZso74SlGTfpIgg0+uhh/eG38rzUcMoEWRaZp4yKmM3RFA+fAgrQKAMBLyKoDwAjtojlAe7YENzCUAENZe3j7vZiqB6Ybv6apFZr0bC4UTYmGG5vOoU9R0LpDQrQXIwjQ9f4J5hEzBFUFy4M1N49fW1VRj6SaJ4oRV2G0HtQCAPBIITQfLAEAf3np/9O135vX8c8HUZfu8nD40tzzZABOXZO9nYZiuC6oXtsnX6SZF6qKy++pPFSpAZxsb7KFe//FrqlSAWTHE2cygyLhBohEDUniD5KQMz3Hnjps102pzZKiT6m6ecTFGnhaaxBWN5GlpICwLlJhCcCCq3O1F7WwKYOG3JFSefrQiqF7YrBKJCZbNeCWLxIsKH78shufpvrCVdCZJ9RWUL7y1Oay2+pXIanKzo6KfDSbgzC5+Z06YQhzZzaPW27TuUIDLzpqGBsTwNLaQFgXITgAgqt/9R+78SwMQZflOwFUHhk0ENQSAcAhjLw/ElagICrglABLkmjPILQQATZyHc1JCReRFB9UJ2EZ7bkJuRueQEMJaXvAGg+iCQggBEUApYSBouAUyc4fpWapYXERQ+adQQBPwRwFjujz3uDAJFIwARVDSPwV4nBDBxOsGaq0IhgnLlDhgDAk4IYCx3ghWFgkCQBCCCgnQrKpWWACbOtMSKlx4iqHg+g8UgkJYAxvK0xJAeBMpLACKovL5HzTUCmDjDbw4QQeH7GDUEAYzlaAMgAAJJCUAEJSWFdEETwMQZtHtV5SCCwvcxaggCGMvRBkAABJISgAhKSgrpgiaAiTNo90IEhe9e1BAEFAGM5WgIIAACSQlABCUlhXRBE8DEGbR7IYLCdy9qCAIQQWgDIAACqQhABKXChcShEoAICtWz++uFcLjwfYwaggDGcrQBEACBpAQggpKSQrqgCWDiDNq9WAkK372oIQhgJQhtAARAIBUBiKBUuJA4VAIQQaF6FitB4XsWNQSB/QQwlqM1gAAIJCUAEZSUFNIFv9iarwAAIABJREFUTQATZ9DuxUpQ+O5FDUEAK0FoAyAAAqkIQASlwoXEvgn09fVT93Mrac7sE6m9bXhm5kAEZYYytwVhT1BuXQPDQCAzAhjLM0OJgkAgeAIQQcG7GBVMQgATZxJKxU4DEVRs/8F6EEhCAGN5EkpIAwIgwAS8iqB1G96izquuVZ5YtLCTli3voicfvo9+/K930rfOmkcdZ86lXT29NP/iy9XfR7a3UfezK+lXz6ygu5beqvLNPLWj6klJA9dmR0BWXsaMPoq279ipCp44YTxNOm4iyXcdZ8yl1taWAz4/8vhTKu2mzVtUPi5j+LBh9Ma6DQPKEWs5vVxSZk/vHlq1+hUadsThtHff+8R/N1eC9HwXnXeOVeUxcVphK1QmiKBCuQvGgoAVAYzlVtiQCQRKScCrCGIBc9tNi5XYWXL7MnrosSeU2HlmxfP03q4eWnzdIiV6lnfdSws7r6imO3JkO1254FK68LJOOn9+h/o3p7vhliW05sXuUjrSVaV1EXTCjGn09tbtSsSw2Egiglj4cD4RM/JZL4dtf7ri87GjRylxpX8n+aZPnUxHjxtTvaeEw3G+Y4+ZoL57c+Mm9UN5fL+0FybOtMSKlz4PIkhe/PA4JS94uu6+g6ZOPr54QP9qMY/j9eqg19tFRZOWHxp/8yWhC7Y2Zcq4bfNSqpG8bCvGchuPIQ8IlJOANxFkTlr6YL57dy/dvGQpPfpAlxJHMyoPwK9XHrxZFLHw+emdPyFOw6tIuujh70QsldOd2de6ltDhu/GqTK2VIH3vDq/YyGe93L7+frXao0+YIm5aW4aq78x7cDl8mfm4XF6VSnth4kxLrHjp8yaCikcw2uKiiqAQ+EMEHehFjOUhtGzUAQSaQ8CbCJIVHhY6cvFkKiFt8u/vX/NDJYZE/MhnPZROR8VhdbwyhCsbAs0UQabFHErXNnxYKhFkW2tMnLbkipOvERGkh93qL170v8tqiDyYXnLBuWp1my8ZlyT92DGj1MscDvXlfCNGtKl/R+UxH3SjHnxr2SFjqpnvnvsfVCHIcsmqfD2PSjmcTuyVusuKvJTB3/PLK73ePJ7Hpat37zibk5Yfx19W4tL6s5a9tdpBPZ+yHRIiLpz5ZSBHO+jtKeoeph+jQsZl/px90ixa/fJrmUdQSIjy0KFD6Ox5pyubo8KdX1i1msaOGV1dyd+zd58Ke+ZLz1uvXejfYyxPQwtpQaDcBLyJoForQbz3R1aAZP/P1dffqPYJyYoQ55fVonK70G3tmyWC1qxdX50s9RpJaETSlSBbGpg4bckVJ5+tCNJXmPkhXEJ1o8JxWXDwJYJGQnolVDcuHEsXQWaeeg/M9eyIEkFiowg6uUeScOKo+4kI0leFROjw/c2V+7h0PPbHXaaN+mdzPklihxmOWI+jCLqkode6QEnrU7Zf7id1i7q/3IPFDO+TlbTi87iQcUmXVPim7eVmSFtcuLPMLxwFwCKJ/4twuLS0kR4EQMCWgDcRxAbH7QnSD0CYNX2KWtnhh49fPtlNNy++vho/rz+cyKBeLzbdFlRZ8yXZ9yP7dXhPDh+CIIJFD39jfnHhcBy+pu/tkUlQD3mLEkF8RLZeJt9/2453I8VUPf9BBNUjVPzvbURQ1F4TfvAUEaEfxiLj0dQpkwYc5mKG+koYr/4QLiKolmBJ8h3blcSOKPuTeDhuFUpWs3QRU6vecemSiKCoA3BMcZnUDnMlLq0/09ir8zD5m1zNEEP9c1Q5+rzHLwx53pw+ZXJsyPjIEe3qO1eHCelCJkrUmHs5ed6QA3cggpL0RKQBARDIgoBXEaSHtElYhTnRy+Aet/FVX+p39VYrC9BFLaOeCJJDDLh+chKcjQgSkSScRFjVWgliEST2ST6bjbicFyKoqC00ud1ZiSC+Y9R4JA+fZ1XCf/QTLV2KoKi9kUns4Id3M6Q4yfgZVW8WXfJyygxXY1ZRK0Fx6WqJCp27eF1sNu1KYocuQrk8c49pUo5xLbDWCl7WIkgXM6YIMu3jMDsRSM0UQaYd5imjMnZDBCUf05ASBECgMQJeRZBuetQeocaqhtwgkJwARFByVkVNmaUIiloRSbICo4sWnytBpthIusG+1kqQCImoFSu93mbIVtJ7m+0uTlzWKj8pf75XEn/mcSVI7ObVnriQcZNR1n3aXAmKC3fm+776+trq7fWTRPFCK2uvoDwQAAGTgDcRpG+uFaNcvZWC20GgHgGIoHqEiv+9jQjiWuuhSBKWK4e1mEf063uC6omBpCKIH7T10GFZ5ai170M/YEZWS/R869a/qX56QA6mSbsn6MSZ06s/YcD7nXjFXkSQ7CviFQnedG+uBJmrNnq6WqLCfFEWtyeoVvlxIogPRqi3JyjugIm4nlFvL1ctn6YNhzP3D+ltQ05M1UPGTcGade+O2hMkP2Vghjtv3LSZTpszW4VEf/OUkynqtNA09mEsT0MLaUGg3AS8iaByY0ft80YAE2fePJK9PbYiyHxhk/R0uLiHZgnh5e/j9qSYD9D6aWr6D0uLaIg61YwJ1sonv80mpNPsp5T78YZ8vr77nQVqr6YIGv4biy/9N94kD/Orla6W52vZnLT8KP5JTofLWgTV8o2NCJKTCE0/RoWMu14JYh/KaXCyoqOfDifhzix8Zk6bQhzazKHV27bvUILIzJtmNMBYnoYW0oJAuQlABJXb/6j9Xwlg4gy/KdiKoPDJoIYgEA4BjOXh+BI1AQHXBCCCXBNG+YUggImzEG5qyEiIoPr4osKU9VwuQ5Z93rs+mQNTFM1emzoWMQ/G8iJ6DTaDgB8CEEF+uOOuOSOAiTNnDnFgDkSQA6goEgRyRgBjec4cAnNAIMcEIIJy7ByY1jwCmDibx9rXnSCCfJHHfUGgeQQwljePNe4EAkUnABFUdA/C/kwIYOLMBGOuC4EIyrV7YBwIZEIAY3kmGFEICJSCAERQKdyMStYjgImzHqHifw8RVHwfogYgUI8AxvJ6hPA9CICAEIAIQlsAgQoBTJzhNwOIoPB9jBqCAMZytAEQAIGkBCCCkpJCuqAJYOIM2r2qchBB4fsYNQQBjOVoAyAAAkkJQAQlJYV0QRPAxBm0eyGCwncvaggCigDGcjQEEACBpAQggpKSQrqgCWDiDNq9EEHhuxc1BAGIILQBEACBVAQgglLhQuJQCUAEherZ/fVCOFz4PkYNQQBjOdoACIBAUgIQQUlJIV3QBDBxBu1erASF717UEASwEoQ2AAIgkIoARFAqXEgcKgGIoFA9i5Wg8D2LGoLAfgIYy9EaQAAEkhKACEpKCulyQaCvr5+6n1tJc2afSO1twzOzCRNnZihzWxDC4XLrGhgGApkRwFieGUoUBALBE4AICt7FqGASApg4k1AqdhqIoGL7D9aDQBICGMuTUEIaEAABJuBVBK3b8BZ1XnWt8sSihZ20bHkXPfnwfTSyvY3uuf9B9Vmu225aTB1nzq1+nnlqR/XfkqeeS+Pu9+N/vZO+ddY8Vf6unl6af/HlVTu6n11Jv3pmBd219FZVvM1969mV5+9l5WXM6KNo+46dytSJE8bTpOMmknzXccZcam1tOeDzI48/pdJu2rxF5eMyhg8bRm+s2zCgHKk/p5dLyuzp3UOrVr9Cw444nPbue5/47+ZKkJ7vovPOscKJidMKW6EyQQQVyl0wFgSsCGAst8KGTCBQSgJeRRALChE3S25fRg899oQSH3yxEFnzYrf6twgT+XzhZZ10/vwOunLBpcQi5YZbllTT1vJi3P2eWfE8vberhxZft0iVt7zrXlrYeYUSRWzXkSPb1b1s71vklqWLoBNmTKO3t25XIobFRhIRxMKH84mYkc96Oczn6YoPxo4epcSV/p3kmz51Mh09bkz1nhIOx/mOPWaC+u7NjZvUb0Tw/dJemDjTEiteehsRJGNP19130NTJx8dWWl6w8Bil5+EM/KJHxq401Hi8qnffNOUhLQjkiQBCm/PkDdgCAuUk4E0E6Q8NutDRRVDUCo+Zj/OyOBHREufGWvfbvbuXbl6ylB59oEuJnhmVB+7XKw/6LIq47J/e+RPiNObDTJL7Fr1Z1RI6XDdelam1EqTv3eEVG/msl9vX369We/RVHBE3rS1D1XfmPbgcvsx8XC6vSqW9IILSEite+maJIJ1M1HiVlBxEUFJSSAcC+wlgLEdrAAEQSErAmwiSFRcWHnLxpC/CRw9d4+9lxcj8u+TlcDperYm76t1P7v39a36oxJCIH/lse9+kjshrumaKIJMBh9K1DR+WSgTZcsTEaUuuOPmyEEGy8iy1vuSCc9XLEgmTHTtmlHppwivZvIoj4b7632WMM0Nv5TOXzeXyyri+ElS2UNzitKxiWIrQ5mL4CVaCAAg0j4A3EVRrZYb3BOmX/rCgr9qkwVTvfrICJPt/rr7+RrVPSFaEOL+sFqW5b9HTNksErVm7ns6ed/oBuCQcLulKkC1viCBbcsXJl4UI0ldnRBCxqNFXiuPC4eJEj4iiqHBbEUFlDMUtTssqhqUIbS6Gn2AlCIBA8wh4E0Fcxbg9OuvWv6n25cgqUdSeIAl/E3GTJHY+7n4suuQAhFnTp6gVJT6Y4ZdPdtPNi6+v7gXQw9/S3Ld57sz+Tkn2/ch+Hd6Tw4cgiGDRw9/YsrhwOA5f0/f2iPDRQ96iRBAfka2XyffftuPdSDFVjwxEUD1Cxf++URE0YkSbOrRFLvPljITL2oggLlM/kEXGRx7X+CpjKG7xW1y+atCsF1oIbc6X32ENCIBAPAGvIkgPMZPwD3krKgcliOmmyNFDQ8yT4+KqW+t+5gbouFh+m/sWuQHWE0FyiAHXUU6CsxFBIpKElQirWitBLILEPsmH0+GK3Nrc2t6oCOKDEcxTK9niLFaC4vYc8ksYEUEmnXohwG5povSiEWimCDLZILS5aK0F9oJAOQh4FUE64qg9Oy5d0Oz7uawLym6cAFaCGmeY9xIaFUEiRqL29DQaDsdl11oJKmMobt7bU9Hsa5YIQmhz0VoG7AWB8hLwJoL0TcCCP+nv/US5K6o8Pd09P/t3uvJ7/zggayP3K2+TCbPmEEFh+lWvVVYiSI675n2Dq19+LfFKENuih+TKqpK+J+jEmdOrR/Xz0f/6niCbEODwvYoaJiVQb1WfQ4sR2pyUJtKBAAiEQMCbCAoBHuoQDgGIoHB8GVeTRkUQh8OJ8OF7cBiu/ptiEirLokZOh+M88ncWT/rpcuYPRItI4v/OPmmWqsZ3v7OguiexbKG44bfI5tawnghCaHNz/YG7gQAI+CcAEeTfB7AgBwQggnLgBMcm2IggxyaheBAAgYwJYCzPGCiKA4GACUAEBexcVC05AUycyVkVNSVEUFE9B7tBIDkBjOXJWSElCJSdAERQ2VsA6q8IYOIMvyFABIXvY9QQBDCWow2AAAgkJQARlJQU0gVNABNn0O5VlYMICt/HqCEIYCxHGwABEEhKACIoKSmkC5oAJs6g3QsRFL57UUMQUAQwlqMhgAAIJCUAEZSUFNIFTQATZ9DuhQgK372oIQhABKENgAAIpCIAEZQKFxKHSgAiKFTP7q8XwuHC9zFqCAIYy9EGQAAEkhKACEpKCumCJoCJM2j3YiUofPeihiCAlSC0ARAAgVQEIIJS4ULiUAlABIXqWawEhe9Z1BAE9hPAWI7WAAIgkJQARFBSUkgXNAFMnEG7FytB4bsXNQQBrAShDYAACKQiABGUChcSh0oAIihUz2IlKHzPooYggJUgtAEQAIH0BCCC0jNDjgAJQAQF6FSjSjgYIXwfo4YggLEcbQAEQCApAYigpKSQLmgCmDiDdq+qHERQ+D5GDUEAYznaAAiAQFICuRZBu3p6af7Fl1PX3XfQ1MnHJ61TLtLNPLWjkHb7hNfTu4dWrX6FLjrvnNRmNJKXb4aJMzXywmWACCqcy2AwCKQmgLE8NTJkAIHSEoAIcuR6iKD0YBsRMo3khQhK76si5oAIKqLXYDMIpCMAEZSOF1KDQJkJeBNBV19/I33rrHnUceZckhWfJx++j0a2t1H3syvpV8+soB/94JoBK0EsLBYt7KRly7uUzy654FyaMXUy3XDLEvWZv7tywaV1/Sn3kzJeWfMGLey8QtnC95by5PvF1y1KXeZDjz0xYCWIbZdL6smf77n/wWp9+PNtNy1Wdsil51vzYnddO4qc4JHHn1LmDx06hM6ed7r6t/yN/91xxlxqbW2hF1atprFjRtPR48bQmxs30Z69+2jvvvcPyJuGBSbONLSKmRYiqJh+g9UgkIYAxvI0tJAWBMpNwJsI4of/93b1EAsMFh7Lu+6tCpElty+jI0e201mVB2E9HI4FAQsfzrNuw1vUedW11c8iXpIIhQsv66Tz53cowSQiRMSHvoIjZeqiJa656GVKPgnji/qO7RQxJjabnzmfiDOdV6hN1lzNeXrF8zR29CiadNxEenvrdnpj3QYVKtfX10/dz61U/2aRxP/FSlCorSK7etmIINchuXr5XFMe05KMYSYVrDxn105QUnMIyDg+Z/aJ1N42PLObQgRlhhIFgUDwBLyJIBYxNy9ZSo8+0EUsenhF5/XKQy4LHH74/+mdP1HwTRGk7w/SJ35zNSnOcyKe9AcNLodF0NQpk9RKlFxJy4xKJ7ZFPdiIuOH7cf2iRFaUnXwf3b7QWqcuZKJEDYuiY4+ZUF0B2rR5C02cMF6JJIig0FpD9vXJowjSaxnV55NSgAhKSgrpQicAERS6h1E/EMiOgDcRxFXgiZsFwPev+aESQyJ+5LP5Ftac6LMSQeaKi4TbCeZ6K0FRDy9c5s2Lr1dF8Ntd85LQPckr38uKVCMPRNk1j+aWFCWCTAtE9OirQZwGIqi5viri3bISQXqIqryUkbGKV6o5FJYvPTxX7+cS0svjCl/yokfGibFjRqmXQPoLEvNFixnSmzT8toh+g83ZEJAxc8zoo2j7jp2qUHM8lZBjSSufecWd0/KLJ764jOHDhqnVeb0csTQqjFnG6GFHHK7Cl7lsXtHXV4L0fDYH5PD9IYKyaS8oBQTKQMCrCJIVIN7/c9fSW0n2CcmKULNEkKwEjRzRrgSLiJ6sVoJkxateg9Lvt3t3r3VoTL375PV7UwStWbu+ujfItPnV19dW/3TCjGkQQXl1ao7sykIERYW26mJGwnXN8FwZY3i/H497LFpMEcSoJBwuTvTI2GQTfpsjV8AUDwR0EcRjZlSIcS0RxMJHH2vls14OVysujFnG9+mVqA/ez2mGw5kr/Sxm+H5pL4igtMSQHgTKS8CrCJIDEGZNn1Ldn/PLJ7vVCgofie1CBLGrox4geAVGRJCEyrEoW/3ya5HhamaT4TJPnDm9useJD1fQ9wTJ3h55I8zf7drdo/ZC8SoYX+aeIH2li/cEMRtJG2KTjdoTJOFv8h2/NeRr46bNdNqc2WrC/eYpJ1Nff7/18dpcHibOEFvUwDo1KoJGjGg7IHw1LrS11gsN/Tu2UFaCkoogyaOvUCcJv9UPXAnf26ihScBc3dE/c1pelaklgswVG/mslxM1Dou4aW0ZqsZo8x4ypps/j8Dl8kE4aS+M5WmJIT0IlJeAVxFkihwzBMyVCGJ3S0jL7JNm0bs736seQCDCh9OwMNIPbKjXTPQyOe13v7Og+vtGegiNfgKcvBWWsvU9T3rIC39vs2G6ns15+17CISQUQg+PkDeIPKnOnDZFbablt5Dbtu9QgsjMm6ZumDjT0Cpm2kZFkC5ShACPF/wSRw5xiVpFXrf+zQEvO2T8sV0JilolThp+W0zPweosCDRTBJn2cihd2/BhqUSQbZ0xltuSQz4QKB8BryIoL7j1PUF5sQl2NJcAJs7m8vZxt0ZFUFFWgpKG3/rwAe7pj0CzRFBcGLOs5iddCbIlhbHclhzygUD5CAQngszVE9OlUYcc1BNBNmWWrykVu8aYOIvtvyTWNyqCOES33p6guP2EafcEyWqRrBrLUf76nqC04bdsP67yEqglgjjsjFfSZbWdf3+ND0HQD0ZIEg7H5eh7e8ww5rhwOF7V5/vLPfj+23a8G7sntJYXMZaXt42j5iCQlkBwIigtAKQHASaAiTP8dpCFCBJxIrTM0+HiRJB+OpycIGeGw7FIkbBZDn3Vf7hZP1FOjsm3Cb8N38uoYRyBeiJIDjjg/HISnI0I4vxRYcy1VoJYBIl9Yj9Oh0NbBgEQcE0AIsg1YZRfCAIQQYVwU0NG2oighm4Yk1l+HDrkQ05ccEOZIJCEAMbyJJSQBgRAgAlABKEdgECFACbO8JuBLxEUFU5b77fHwvcGaggCbghgLHfDFaWCQIgEIIJC9CrqlJoAJs7UyAqXwZcIKhwoGAwCBSaAsbzAzoPpINBkAhBBTQaO2+WTACbOfPolS6sggrKkibJAIJ8EMJbn0y+wCgTySAAiKI9egU1NJ4CJs+nIm35DiKCmI8cNQaDpBDCWNx05bggChSUAEVRY18HwLAlg4sySZj7LggjKp19gFQhkSQBjeZY0URYIhE0AIihs/6J2CQlg4kwIqsDJIIIK7DyYDgIJCWAsTwgKyUAABHA6HNoACDABTJzhtwOIoPB9jBqCAMZytAEQAIGkBLASlJQU0gVNABNn0O5VlYMICt/HqCEIYCxHGwABEEhKACIoKSmkC5oAJs6g3QsRFL57UUMQUAQwlqMhgAAIJCUAEZSUFNIFTQATZ9DuhQgK372oIQhABKENgAAIpCIAEZQKFxKHSgAiKFTP7q8XwuHC9zFqCAIYy9EGQAAEkhKACEpKCumCJoCJM2j3YiUofPeihiCAlSC0ARAAgVQEci2CdvX00vyLL6euu++gqZOPT1Ux34lnntpR1+51G96izquupTUvdtc0V+cwYkRbYZnU80lP7x5atfoVuui8c+olPeD7RvJyYRBBqZEXLgNWggrnMhgMAqkJYCxPjQwZQKC0BCCCHLk+SxGkm1hkYVgPdSNCppG8EEH1PBPG9xBBYfgRtQCBWgQggtA+QAAEkhLwJoKuvv5G+tZZ86jjzLkkD/ZPPnwfjWxvo+5nV9KvnllBP/rBNQNWPVhYLFrYScuWd6n6XXLBuTRj6mS64ZYl6jN/d+WCS+vWXe4nZbyy5g1a2HmFsoXvLeXJ94uvW5S6zIcee2LAShDbLpfUU/42dswoevSBrth7l2Ul6JHHn1KIhg4dQmfPO139W/7G/+44Yy61trbQC6tW09gxo+nocWPozY2baM/efbR33/sH5K3rNC0BJs40tIqZFiKomH6D1SCQhgDG8jS0kBYEyk3Amwi65/4H6b1dPcQCg4XH8q57q0Jkye3L6MiR7XRW5UFYD4dj0cDCh/NIKJl8FvFSL7SM3X3hZZ10/vwOJZjYDhZVt920WIkgfQVHyhTRUqup6GVKPgnji/qO7TTD4eLuzfcVDmUKh3t6xfM0dvQomnTcRHp763Z6Y90GFSrX19dP3c+tVP9mkcT/xUpQuQeyJLWHCEpCCWlAoDkEZByfM/tEam8bntlNIYIyQ4mCQCB4At5EEAuAm5csVSsgLHp4Ref1ykMuCxwWDT+98ycKvimC9P1BumgwV5PiPBe1D4fLYRE0dcoktRIlV9Iyo9KJbVyWue+H68crTyNHtFe/4zLi7l1GERQlalgUHXvMhOoK0KbNW2jihPFKJEEEBT9WNVxBiKCGEaIAEMg9AYig3LsIBoJAbgh4E0FMgIUCr7J8/5ofKjEk4kc+m/tfzH02WYkgESW8EiQrQ7qH6q0ERQkrLvPmxderYlgEmReH7k2fMnmAQIq7d5lFkMlNRI++GsRpIIJyM6bk1hBbEST9mysm4bgyJph9VlaUBUJUGGxuAcGwoAnImDlm9FG0fcdOVVdzPJWQY0krn3nFndPyiye+uIzhw4ap1Xm9HAEYFcYsY/SwIw5X4ctcNq/o6ytBej6bA3L4/hBBQTdjVA4EMiXgVQTJChDv/7lr6a0k+4RkRahZIkhWgmRlRh5wsloJkhUv03O6eJJ/R927rCJozdr11b1BJrtXX19b/dMJM6ZBBGU6LIRZmK0IkvGBX5LwmMX7/bifSr+UEFwZL+RzXBhsmHRRq7wT0EUQj5lRIca1RBALH32slc96OcwgLoxZRND0StQH7+c0w+HMlX4WM3y/tBdEUFpiSA8C5SXgVQTJAQizpk+p7s/55ZPdagWFj8R2IYLY1VEPJ/wGVw9P43Qsyla//Jp64NFD1aKaC5d54szp1T1OfLiCvidIDl4QscPf8SWhcuZqkn7vMoogmUwl/E0mUH5ryNfGTZvptDmz1YT7zVNOpr7+fuvjtbk8TJzhD4I2Isjsl/qLEemXUeND3OqwjAPh00YN80bAXN3RP7OtvCpTSwSZKzbyWS8nahwWcdPaMlSN0eY9ZEw3fx6By+WDcNJeGMvTEkN6ECgvAa8iyBQ5cQ8cIiayCIcTV0uYyuyTZtG7O9+rHsog4oPTsTDSD2yo10z0Mjntd7+zoPr7RnpYjB4yI3/nt8dx9+a9SmU4GIGZSTiEhELo4RHyBpEn1ZnTpqjNtPwWctv2HUoQmXnr+Uv/HhNnGlrFTGsjguTQFg7X1ccOET56qJyMGbxiZP5d8iY9wbKYhGF1ngk0UwSZHDiUrm34sFQiyJYlxnJbcsgHAuUj4FUE5QW3vicoLzbBjuYSwMTZXN4+7mYjgmqtBJmrw/oq0e7dvdWDX3zUFfcEAZNAs0RQXBizrOYnXQmy9SDGcltyyAcC5SMQnAjSfwMoyp1RoSv1RJBNmeVrSsWuMSbOYvsvifU2IojLjdsTtG79m2qlWFaJovYERYXBcqgvLhBoNoFaIojDznglXVbb+ffX+BAE/WCEJOFwXI6+t8cMY44Lh+NVfb6/3IPvv23Hu7F7Qmuxw1je7JaF+4FAcQkEJ4KK6wpY7pMAJk6f9Jtzb1sRpIe28e+SycEIvBIkByVIDfQ9UIaEAAAgAElEQVQj/EVAyXfmyXHNqTXuAgJ/IVBPBMkBB5xWToKzEUGcPyqMudZKEIsgsU/8hdPh0HJBAARcE4AIck0Y5ReCAERQIdzUkJG2Iki/adQeoYaMQmYQAIFMCWAszxQnCgOBoAlABAXtXlQuKQFMnElJFTedjQiKCoVNclpkcSnBchAoNgGM5cX2H6wHgWYSgAhqJm3cK7cEMHHm1jWZGWYjgjK7OQoCARBoCgGM5U3BjJuAQBAEIIKCcCMq0SgBTJyNEsx/foig/PsIFoJAowQwljdKEPlBoDwEIILK42vUtAYBTJzhNw+IoPB9jBqCAMZytAEQAIGkBCCCkpJCuqAJYOIM2r2qchBB4fsYNQQBjOVoAyAAAkkJQAQlJYV0QRPAxBm0eyGCwncvaggCigDGcjQEEACBpAQggpKSQrqgCWDiDNq9EEHhuxc1BAGIILQBEACBVAQgglLhQuJQCUAEherZ/fVCOFz4PkYNQQBjOdoACIBAUgIQQUlJIV3QBDBxBu1erASF717UEASwEoQ2AAIgkIoARFAqXEgcKgGIoFA9i5Wg8D2LGoLAfgIYy9EaQAAEkhKACEpKCumCJoCJM2j3YiUofPeihiCAlSC0ARAAgVQEIIJS4ULiUAlABIXqWawEhe9Z1BAEsBKENgACIJCeQK5F0K6eXpp/8eXUdfcdNHXy8elr12COdRveos6rrqU1L3aT2PLkw/fRyPa2uiXPPLXDym7bfHUNKkCCnt49tGr1K3TReeektraRvHwziKDUyAuXAQcjFM5lMBgEUhPAWJ4aGTKAQGkJQATVcD1EUHP7RSNCppG8EEHN9bOvu0EE+SKP+4JA8whABDWPNe4EAkUn4E0EXX39jfSts+ZRx5lzD1hl6X52Jf3qmRX0ox9cM2AliFdJFi3spGXLuxT3Sy44l2ZMnUw33LJEfebvrlxwaV2fJC2H0/E1dswo+umdP1G26PfX7ycrRWLXQ489kWglqF4+sYHL1Veh7rn/wSoH/u62mxYrlnLp+XglqwjXI48/pcwcOnQInT3vdPVv+Rv/u+OMudTa2kIvrFpd8cloOnrcGHpz4ybas3cf7d33/gF509QZE2caWsVMCxFUTL/BahBIQwBjeRpaSAsC5SbgTQTxQ/x7u3po8XWLiEXP8q57aWHnFepBfsnty+jIke10VuVBWA+H4wd7Fj6cR1Zp5DOXwWIoyQN/0nKiVoLi7nfhZZ10/vwOJcLEliRhfLXyRX2nh+ZJXUVIyWfOJyx1znlv6uZqztMrnqexo0fRpOMm0ttbt9Mb6zaoULm+vn7qfm6l+jeLJP4vVoLy7l3/9kEE+fcBLAABISDj+JzZJ1J72/DMwEAEZYYSBYFA8AS8iSAWGDcvWUqPPtClRA+v6LxeechlgcMP8bzywpcpgnRhoe+fSbNnx9x3E1fO7t29sXuC9PuJnfpKTZK9PVE2Sz4uU/YjSSsUcTN1yiTFJWp/ki7cJB/fJ8k+Jt+tXRcyUaKGRdGxx0yorgBt2ryFJk4Yr0QSRJBv7+X//hBB+fcRLASBRglABDVKEPlBoDwEvIkgRswP/Pwg//1rfqjEkIgf+WwejJBUvNR74E9aTlIRpKfTBcvNi6+veaBDlGBhBpxPRJDZFCUET/LK9xIOF1VmUZpzlAgybRfRo68GcRqIoKJ42Z+dNiJI+tPsk2bR6pdfU+OVGRZbKxQ16UEq/qjgzmUhIGPmmNFH0fYdO1W1zfFUQo4lrXzmFXdOyy+e+OIyhg8bplbn9XKEZVQYs4zRw444XIUvc9m8oq+vBOn5bA7I4ftDBJWlRaOeINA4Aa8iSFaAeP/PXUtvJdknJCtCRRFB7AZzZSaLlSBZKavnZn1FKUqQ1cufl+9NEbRm7frq3iDTxldfX1v90wkzpkEE5cWJObajEREkQkf6GosiHrNEJInYiQthzTEWmFYSAroI4jEzKsS4lghi4aOPtfJZL4dRxoUxy/g+vRL1wfs5zXA4c6WfxQzfL+0FEZSWGNKDQHkJeBVBcgDCrOlT1F4a3r/yyye71UoIH4ldFBHEK0/88HPizOnVPU68PynpnqC4fPreHnnY4jJ37e5Re6h49Ywvc0+QLsCEqaTNc1OP2hMk4W/yHb815Gvjps102pzZasL95iknU19/v/Xx2lweJs48t4xsbGtEBInIiTq2n1/e8Bg2fcrk2BBW/dCSbGqDUkAgHQFzdUf/zCXxqkwtEWSu2MhnvZyocVjETWvLUDVGm/eQMd38eQQulw/CSXthLE9LDOlBoLwEvIog84HCDOXyLYJY3MgpaxIGYz4MmfuAuCnxW2K+vvudBYl+30juEZVPP+VND7vhVTQ+gU4uXXDpJ87x90kOi8hLF5BwCAmF0MMj5A0iT6ozp01Rm2n5LeS27TuUIDLzpqkTJs40tIqZNksRpPd7UwSZdJKeWllMqrC6KASaKYJMJhxK1zZ8WCoRZMsVY7ktOeQDgfIR8CqCyocbNc4rAUycefVMdnZlKYL0lw6yYjtyRHv1sJfsrEZJIJANgWaJoLgwZlnNT7oSZFtrjOW25JAPBMpHIDgRZK6CmC5t5kblPNlSvqadrsaYONPxKmLqLEWQeVS/vidIjqfXQ1g5vBcXCPgkUEsEcdgZr6TLajv//hofgqAfjJAkHI7L0ff2mGHMceFwvKrP95d78P237Xg3dk9oLY4Yy322MtwbBIpFIDgRVCz8sDYvBDBx5sUT7uzIWgRJOKq59y8uhNVdzVAyCNQnUE8EyQEHXJKcBGcjgjh/VBhzrZUgFkFin9QEp8PV9ylSgAAINEYAIqgxfsgdCAGIoEAcWaMaNiLILC7N75GFTxQ1BIH8EcBYnj+fwCIQyCsBiKC8egZ2NZUAJs6m4vZyM4ggL9hxUxBoKgGM5U3FjZuBQKEJQAQV2n0wPisCmDizIpnfcrIQQfmtHSwDARBgAhjL0Q5AAASSEoAISkoK6YImgIkzaPeqykEEhe9j1BAEMJajDYAACCQlABGUlBTSBU0AE2fQ7oUICt+9qCEIKAIYy9EQQAAEkhKACEpKCumCJoCJM2j3QgSF717UEAQggtAGQAAEUhGACEqFC4lDJQARFKpn99cL4XDh+xg1BAGM5WgDIAACSQlABCUlhXRBE8DEGbR7sRIUvntRQxDAShDaAAiAQCoCEEGpcCFxqAQggkL1LFaCwvcsaggC+wlgLEdrAAEQSEoAIigpKaQLmgAmzqDdi5Wg8N2LGoIAVoLQBkAABFIRgAhKhQuJQyUAERSqZ7ESFL5nUUMQwEoQ2gAIgEB6AhBB6ZkhR4AEIIICdKpRJRyMEL6PUUMQwFiONgACIJCUAERQUlJIFzQBTJxBu1dVDiIofB+jhiCAsRxtAARAICmBXIugXT29NP/iy6nr7jto6uTjk9Ypt+lmntoRTF1cQO7p3UOrVr9CF513TuriG8nLN8PEmRp54TJABBXOZTAYBFITwFieGhkygEBpCUAENdH1EEG1YTciZBrJCxHUxE7g8VYQQR7h49Yg0CQCEEFNAo3bgEAABLyJoKuvv5G+ddY86jhzLsmKz5MP30cj29uo+9mV9KtnVtCPfnDNgJUgFhGLFnbSsuVdCv0lF5xLM6ZOphtuWaI+83dXLri0rlu4fMkj5Sy+blE1H99HrjUvdtf9e9wNpV5yj4cee2LASpB+H6k7p73n/gerdeTPt920WHGSK86+uhXPeYJHHn9KWTh06BA6e97p6t/yN/53xxlzqbW1hV5YtZrGjhlNR48bQ29u3ER79u6jvfvePyBvmupi4kxDq5hpIYKK6TdYDQJpCGAsT0MLaUGg3AS8iSB+0H9vVw+x+GBRsrzrXlrYeYV62F9y+zI6cmQ7nVV5ENbD4fjhn4UP51m34S3qvOra6mcRNrpoiXOtviIj+USEXHhZZ9UO3ca4v9dqPpzn/PkdSpjJfSS0L+o7tl2Ek9TD/GxjR1GauLma8/SK52ns6FE06biJ9PbW7fTGug0qVK6vr5+6n1up/s0iif+LlaCieNmfnWUSQTI+6mOK/qLF1gtYzbYlV658jYzHjeRlyhBB5WprqC0INELAmwjiSfrmJUvp0Qe6lOjhFZ3XKw+5LHD4Qf+nd/5E1csUQfr+IH1CNleT4qBwOl5tkkvPt3t3rxJWupDi7+P+rpdj3i/KHrGX05r3EXEzdcokVeeoBxb9wUa3v5YdjTSOZufVJ7+oiZBF0bHHTKiuAG3avIUmThivRBImzmZ7q3j3gwj6y0p7IxdEUCP0ypO3kfG4kbwQQeVpY6gpCGRBwJsIYuN5QuWH/e9f80MlhkT8yGfzYARzArYRQXxfM9yM/8Z2RIkd/i5KfNSDH5WH63fz4utVVhZB5iXhfJJXvpdwOBs76tmZp++jRJBpn4gefTWI02DizJMn82mLrQjS+6OE48pLijShq0lXYtKG/UaF1crfxo4ZpV4o8YsVPZTYDB3Wy9BfNNUL6c2np2GVbwIIbfbtAdwfBEAgCQGvIkhWgHj/z11LbyXZJyQrQi5EkDzQyANJvZUgWxFUbyVIVsHqOSmJffXKKMr3pghas3Z9dW+QWYdXX19b/dMJM6ZBBBXFyR7ttBVBLBDkRQSPWby3j8cPvlhc1ApdNcNhk4brJg37jQurjQqHkzLN0OGoMvTw4LiQXo+uxK1zTgChzTl3EMwDARBQBLyKIDkAYdb0KWrfDL9V/eWT3Wq1hI/EdimC5GGEhdfql1+rhp/pq0tiD69Sxf29Vjvih4sTZ06v7nviwxj0PUGyB0oeWPi7Xbt71P4ovidf5p4gGzuK0tajJk4Jf5Pv5sw+UVVn46bNdNqc2cQhct885WTq6++3Pl6by0MceVFaib2dNiLIXH3VX0qICEoauqrv56tVi6Qr3lEr13KPkSPaqyG35guZenWoFZqLcDj79lemnAhtLpO3UVcQKC4BryLIFDlxDxwiHJI+HNSLexfhw27jN7z6oQx6+Ad/b77lFVcneaPLaSXMZPZJs1TW735nQfU3j/QQFP0EOHnbLPeKC0/R7StuExxouYRRyG8F6afDTa/sG+MT4Vj4zJw2hdrbhqsDE7Zt36EEkZk3DROIoDS0ipnWRgTJoS3yUkL6tAifeqGrJqkkJ1gmHedEBEXdY/qUyYlEUJSQ4vGRX0zpZcg9JKQ3hN9tK2YrLobVCG0uhp9gJQiUnYBXEVR2+Kh/fghABOXHF64ssRFBtVaCzJctZuhq0pBXs75pRFDcPWqdDoeVIFctDOUKAYQ2oy2AAAgUgUBwIshcyTGdkHRzcj3nNes+9ezA99kQgAjKhmOeS7ERQbLyE7UnaN36N2uGrurhb3rIa71VlKQiiEVY3D3YbjmBslY4nJRh7vvR9wTFhfTm2dewzS8BhDb75Y+7gwAIJCMQnAhKVm2kAoGBBCCCwm8RtiJID3njwwXkYAQWELVCV0VACVnzR4/jiKcRQbXuIeG2LGj0Y/fjDm0Re/TwW738qJDe8FsNamhLAKHNtuSQDwRAoFkEIIKaRRr3yTUBiKBcuycT42xFkH7zqD1CmRiHQkAABDIhgLE8E4woBARKQQAiqBRuRiXrEcDEWY9Q8b+3EUFRYa+NhNQijLb47Qg1yDcBjOX59g+sA4E8EYAIypM3YIs3Apg4vaFv2o1tRFDTjMONQAAEMiGAsTwTjCgEBEpBACKoFG5GJesRwMRZj1Dxv4cIKr4PUQMQqEcAY3k9QvgeBEBACEAEoS2AQIUAJs7wmwFEUPg+Rg1BAGM52gAIgEBSAhBBSUkhXdAEMHEG7V5VOYig8H2MGoIAxnK0ARAAgaQEIIKSkkK6oAlg4gzavRBB4bsXNQQBRQBjORoCCIBAUgIQQUlJIV3QBDBxBu1eiKDw3YsaggBEENoACIBAKgIQQalwIXGoBCCCQvXs/nohHC58H6OGIICxHG0ABEAgKQGIoKSkkC5oApg4g3YvVoLCdy9qCAJYCUIbAAEQSEUAIigVLiQOlQBEUKiexUpQ+J5FDUFgPwGM5WgNIAACSQlABCUlhXRBE8DEGbR7sRIUvntRQxDAShDaAAiAQCoCEEGpcCFxqAQggkL1LFaCwvcsaggCWAlCGwABEEhPINciaFdPL82/+HLquvsOmjr5+PS1Q45CEejp3UOrVr9CF513Tmq7G8nLN4MISo28cBlwMELhXAaDQSA1AYzlqZEhAwiUlgBEUGldn7+KNyJkGskLEZS/tuDCIoggF1RRJgjkiwBEUL78AWtAIM8EvImgq6+/kb511jzqOHMuyYrPkw/fRyPb26j72ZX0q2dW0I9+cM2AlaCZp3bQooWdtGx5l2J6yQXn0oypk+mGW5aoz/zdlQsuTcSby5JLVprWbXiLOq+6lmafNItWv/warXmxm+RvUj7fW+yMu5HUh+176LEnDrCN6yc2Sz0WX7dIpUtbR70e9exKBMZjokcef0rdfejQIXT2vNPVv+Vv/O+OM+ZSa2sLvbBqNY0dM5qOHjeG3ty4ifbs3Ud7971/QN40VcHEmYZWMdNCBBXTb7AaBNIQwFiehhbSgkC5CXgTQffc/yC9t6uH+OGfRcHyrntpYecVShQtuX0ZHTmync6qPAjr4XD8wM/CgvOIOJHPIixYuNS7Lrysk86f36EEk+RjAbF7d68SQbfdtFjZIaJEPrNdLGrqiQ1dBEn9WPSIbVwPEV76/VkApqljVD2S1L8eH1/fm6s5T694nsaOHkWTjptIb2/dTm+s26BC5fr6+qn7uZXq3yyS+L9YCfLlteLcFyKoOL6CpcUm0Mh43EhepgYRVOy2A+tBoJkEvIkgFjE3L1lKjz7QpUQPr+i8XnnIZdHAD/c/vfMnioMpgvT9QbqYMFeT4iBGpeP7sQAbOaJdiSAROSK0RFjY3kPPx3ax2JHLLFOvk4gwqbOeVgSbLnqkHiLgmtmQsriXPvlFTYQsio49ZkJ1BWjT5i00ccJ4JZIwcWbhgbDLgAgK27+oXX4INDIeN5IXIig/bQCWgEARCHgTQfKAz4Lj+9f8UIkhET/y2TwYIalA0EWG6QRT2PD3HJo3a/oUmj5l8gARJCtUbJtcbEPSlSBJZwodXgWTkD4pV9ImraOIILN+aUIC89ZAo0SQaaOIHn01iNNg4sybN/Nnj60IqhUSa/ZlfRVZxjizj9cjUytc1ixTfwmih8YWeUW4Hh98n38CCG3Ov49gIQiAAJFXESQrQLz/566ltyoxwvuEZEXIhQjyvRIk4iVOIKURQbKSFkpDNkXQmrXrq3uDzDq++vra6p9OmDENIiiURuCwHrYiiPtkVEgsm8or1eZKsXy2DVetFS6rr/bqIcVxf3eIE0WDQCwBhDajcYAACBSBgFcRJAcg8CoM78/hSf2XT3bTzYuvV0diuxBB7JR6e4L0lZ64B6Baq02m0KoVxsbCjw9hSLsSxPfXH3zkbXWRjxOPmjgl/E2+mzP7RNWvNm7aTKfNmU0cIvfNU06mvv5+6+O1uTzEkRdhuGrMRhsRVCskVkRQ1Mpw1IpzknBVHiviwmWjQmA5fdzfa41RjZFEbhCoTQChzWghIAACRSDgVQSZIifugUMe7JOukiSZ/GudDqc/1OihMHLaW6PhcCJ8uIHwG2b9UIi0ddTrYYbiFKEBmjZKGIX8VpB+Otz0yr4xPhGOhc/MaVOovW24OjBh2/YdShCZedPUHyIoDa1iprURQfVCYvXxQfoz78kz/y7EkoSrxoXLRokdLjdKcBXTQ7A6FAIIbQ7Fk6gHCIRNwKsIKhraqAeiotUB9kYTgAgKv2XYiKA0h6OYK7424apyv6hwWYig8NtoKDVEaHMonkQ9QCBsAsGJIHkQiXNbvVUcPV9UWZyfL94LkMU9wm5exakdRFBxfGVrqY0I4nvFhcSuW/+mWsWVg1NkvND3BMmx/0nDVU3RVStcVsKH+f76CrL+d1tWyAcCjRBAaHMj9JAXBECgWQSCE0HNAof7hEUAIigsf0bVxlYE1QqJld8Ok/uZe/JswlVrhcuaL2bMQxnEDpwOF357znsNEdqcdw/BPhAAAYggtAEQqBCACAq/GdiKIJ0MQmLDbyeoYbEJYCwvtv9gPQg0kwBEUDNp4165JYCJM7euycwwGxEUFxKb5PCVKMOzDNfNDAwKAoGACGAsD8iZqAoIOCYAEeQYMIovBgFMnMXwUyNW2oigRu6HvCAAAs0ngLG8+cxxRxAoKgGIoKJ6DnZnSgATZ6Y4c1kYRFAu3QKjQCBTAhjLM8WJwkAgaAIQQUG7F5VLSgATZ1JSxU0HEVRc38FyEEhKAGN5UlJIBwIgABGENgACFQKYOMNvBhBB4fsYNQQBjOVoAyAAAkkJQAQlJYV0QRPAxBm0e1XlIILC9zFqCAIYy9EGQAAEkhKACEpKCumCJoCJM2j3QgSF717UEAQUAYzlaAggAAJJCUAEJSWFdEETwMQZtHshgsJ3L2oIAhBBaAMgAAKpCEAEpcKFxKESgAgK1bP764VwuPB9jBqCAMZytAEQAIGkBCCCkpJCuqAJYOIM2r1YCQrfvaghCGAlCG0ABEAgFQGIoFS4kDhUAhBBoXoWK0HhexY1BIH9BDCWozWAAAgkJQARlJQU0gVNABNn0O7FSlD47kUNQQArQWgDIAACqQhABKXChcQuCfT07qFVq1+hi847J/VtGsnLN4MISo28cBmwJ6hwLoPBIJCaAMby1MiQAQRKSwAiqLSuz1/FGxEyjeSFCMpfW3BhEUSQC6ooEwTyRQAiKF/+gDUgkGcC3kXQzFM7qnzWvNhd/bf+966776Cpk4+v+d2unl6af/HltGhhJy1b3qXS3nbTYuo4c24i/lH3W7fhLeq86lqafdIsWv3ya8T2yd+4ULnXkw/fRyPb22LvI7ZdcsG59NBjT6h0nPfKBZeqf3c/u5JuuGVJNT+nW3zdIvWZ7dLrxN/NmDq5ml4vR9JLQfXsSgSmiYkeefwpdbehQ4fQ2fNOV/+Wv/G/O86YS62tLfTCqtU0dsxoOnrcGHpz4ybas3cf7d33/gF505iOiTMNrWKmhQgqpt9gNQikIYCxPA0tpAWBchPwKoIuvKyTFnZeoYTKPfc/SO/t6lEP//z38+d3KJEgAkEe6OO+YzeyCGLBctfSW6tiJYkQiCtz9+5eJYJ0McWiRD4vuX2ZEjX17qGLIK6f1ElEH5cpQs+sL38nokgEmHw2y4mqhy4s897UzdWcp1c8T2NHj6JJx02kt7dupzfWbVChcn19/dT93Er1bxZJ/F+sBOXdu/7tsxFB0nfr9fH/v71zDZGr2vb9/GjMp3u33R1vHiISo4Z00kl8tEQNam5H4/YNHtTr8TacQ7aYwxYDm+gHIxxt9iGinIg7nAONR1QQfG+ju4lKxEDYuhPzIIYmiGi8dyfpJH7q/nx7LO+oTFdWVa25alWtNef81Zeu6p6PMX5j1lr1rzHmbBfvdMz0lzsuY5TV1r72lDUm40Cgk+txJ32FPCKI9QcBCOQlUJkI0g/09od0+XCgYsb+0KFiafng0kTotPqb/cHi8c1Pm9VDg42MSxaUrA85Ot+8gf5EBOl8aZvzfkBKt7Nfi012FindNv0hxX5tt1XBZvO0RWbeBVFlO/vml3UjFFF0xeWLGxmgyWPfmSWLL0tEEjfOKiPnx9x1EUF1ooUIqlM0wrGlk+txJ30RQeGsITyBQC8I1EoEicNZ4kjFzNDgskSU2B/09W/rZ8un0gIpjwjKM5+KIMm87Bh/zbz35i/ldvKQDxHtviVuJYJEAEkWTEv4dFwd01UEpRdNulyuF4uq6BxZIig9looeOxskbbhxFqUeT79ORJBdympnhluVsqbf19rPzgQNDPQl161mpbLtouNaTqxzy7g6p/3FkT1eu+taO9v4e7wEKG2ON/Z4DgGfCNROBLXKzLhmgvJkQqrOBGkGRz9wdJIJ2jq27VcCzaeFmBYyImr2HTjU2BuU9uXr/Qcav7p65QpEkG/BrsDeTkRQszLbZqWs4p6IG/3CRt/X8rqZCMoqlW2FqaxyYhVBvpfTVrCkmLIJAUqbWRoQgIAPBCoTQQLH/gAh35p+sHMi+RDfyZ6g9P6ZPN9mttsTZI/RyZ6gLKGTLmOT7JUcwuCaCZKMkv2hSDNcddh3kPeNkHXj1PI3/dua4WuS4Y5OHjM3rRk2UiJ34/XXmemZmcLHa8t41JHnjZK/7ToRQVlltpJ9blbKqiIo6/qTJYKafQnSjHZZ5cR6DZZ50ln2PF8i+bsasLybBCht7iZdxoYABMoiUKkIskszxKEyToezy0pcBECr0+HsDzL26XA6Vzuh1a4cToWPMJCSGSm50wMj8pbD6Ycx2w+X0/HKWlCdjqNlFPq/guzT4YZmT8WTE+FE+KxaMWj6+y5KDkz48fhPiSBK93WxBRHkQsvPtp2IIPs9bpfZtiplta8V+t6WQ2C6JYJkjjzlvel9g1u3bE4CKiIo/fCpnNbPVRmm1ZQ2hxlXvIJAaAQqFUFlwsx7SEGZc2btESpzfMbqHQFEUO9YVzVTJyLI/kKl2cEpra5B6cNQpFROxtQ9QWVkgoSrazmxnQnyvZy2qnXFvOcTSIsgSptZJRCAQB0JBC+C0tmmdBDaZXHs9lljSX95yIeaZg+XOeq4SGKwCREUfpQ7EUFZZbatSlkPHjryq0NU2u0JchVBEq2i5cTXrBpK/hWBHupg7wnSDLSP5bThr2B/PKS02Z9YYSkEYiYQjAiKOYj43jkBRFDnDOs+QqciSP/RcXp/kOzhk0e6lFX/j5hy0X5llMPJmJ2WE8thD/L4p398qPHPqH0vp637GozJPkqbY4o2vkLATwKIID/jhtUlE0AElQy0hsMVEUE1dAOTIACBFgS4lrM8IACBvAQQQXlJ0S5oAtw4gw5v4pxPIqjMMt7wI4uHEDhHgGs5qwECEKAVY2cAACAASURBVMhLABGUlxTtgibAjTPo8HongsKPBh5CoDsEuJZ3hyujQiBEAoigEKOKT84EuHE6I/Oug0+ZIO/gYjAEakKAa3lNAoEZEPCAACLIgyBhYvcJcOPsPuOqZ0AEVR0B5odA9wlwLe8+Y2aAQCgEEEGhRBI/OiLAjbMjfF50RgR5ESaMhEBHBLiWd4SPzhCIigAiKKpw42wzAtw4w18biKDwY4yHEOBazhqAAATyEkAE5SVFu6AJcOMMOryJc4ig8GOMhxDgWs4agAAE8hJABOUlRbugCXDjDDq8iKDww4uHEEgIcC1nIUAAAnkJIILykqJd0AS4cQYdXkRQ+OHFQwggglgDEICAEwFEkBMuGodKABEUamTP+UU5XPgxxkMIcC1nDUAAAnkJIILykqJd0AS4cQYdXjJB4YcXDyFAJog1AAEIOBFABDnhonGoBBBBoUaWTFD4kcVDCJwjwLWc1QABCOQlELQIOnFqymy472Ez/sqLCY/Rx54w+76cyMsmaWePsXzZVU59aexG4NTUabNn71fm3jtvd+s427qTvjIZN05n5N51oBzOu5BhMAScCXAtd0ZGBwhESyBoEWRH9eDhbwuJoGhXRgWOdyJkOumLCKog2BVMiQiqADpTQqDHBBBBPQbOdBDwmEClImjVDSNm08ZRs33HeILw/rvvMCuXLzNPPTuWvJa/PfrQAw280l4fkt2RzIxmaqTv2+9/9Kt+dhZHskDyWLRwvnnvzV/myxpPxdLwtavN3r/+zex85/VGNmlgoC95njWXjKd91XbxS/rP6+9rukTURpvD889sMSO3rm2Mp7ZoFivL7lbznzw5lQhAe5yJT3c3OCv7LU9uanBxiUtZ6//dDz9Ohpoz5wJz27qbk+f6O3k+cstaM3fuheaLPXtn47jAXHrJQnPk6KQ5feasOXP25/P6utjFjdOFlp9tEUF+xg2rIeBCgGu5Cy3aQiBuApWLIBEU8uFbBYS+1g/p+sH/ngdHzV0bRhJRpH8TgSEPFSYyjt2vVTlcs/FUMKgQscewRVB6LrFDxIn2G3theyLK8oogESgvb3uuwUH6pW2ROZrZLUKr2fxZ40hbFZI2Tx0nb1zKfPukszmf7PrcLFow3yy9con5/ofj5puDh5NSuenpGTPx2e7kuYgk+UkmqMxIhDlWERGk7/9272MXYpTYutCirY8EOrked9JXWCGCfFwx2AyBaghULoL0g7iKiHSGxxY69gcREQMbRx8xyweXJiJI/2Z/aFGBlN4TlPXBRsebN9CfZE3S48kYKoKy5lKhoaIt74enrA9Ej29+2qweGjRDg8sybcnioHZnza+22Xbb2am0rbZAahWXVhmuIsvZvvll3QhFFF1x+eJGBmjy2HdmyeLLEpHEjbMI8bj61EUExUUdb2Mk0Mn1uJO+iKAYVxs+Q6A4AS9EUFpgiLsqFNbPlk25iqCs/UHthEc7EXTw0BGzY/y1Rqmdiod23yBniaVmtrSy++KBgabzp0WQ2PbqG281yhB1+aitdRJB6aWtosfOBkkbbpzFLwKx9OxEBNklsJrtFW6tykrT77F22eV0OW+ruLQqA25nVydlyO2uZ7GsJfxsTYDSZlYIBCDgAwEvRJCAtIWOvA45E9QuK9VpJkjFVFZGS8vh8mToup0J2nfgUGNvUPrN9PX+A41fXb1yBSLIh6tNxTZ2IoKyylXT75WsMt10ZlZeu5TYNkNmi6BmpblllLtmld+6nrBZcdiZvgIClDZXAJ0pIQABZwJeiCD5sNFuT5BLOZyKqKw9RlmlY3rMdqtyuFZ7cvIcjJDeg2PvCUqLniy78+wJ0nHSGSXJPOkhEHURQRIju/xNb6prhq9JFvnRyWPmpjXDSZsbr7/OTM/MFD5eW8ajjtz52uFdh05EkP2lgJ2FblZWmvXFjQLLEkHNvpBoJ4KaXffKKHfNysDrFzRycAsPCDQjQGkzawMCEPCBgDciSGC2Oh2unQiSk+S0f6tT1pplSdqVw8mHDvt0OC2faVc+klXWoh+40rbogspzOpw9f1Y5nAofGVPKdKSUT/ZYyYebqsrhxBYto9D/FWSfDjc0e3KgnAgnwmfVikHT33dRcmDCj8d/SgRRuq/LGxAR5ELLz7adiCD7fawiSA5paVVWal8P9H0m769uiyC5FpVR7qrXjXS006d2+rkasLqbBLJEUHo+Spu7GQHGhgAE8hCoVATlMdDXNlIak94jlOVL3gMUXDnknd913FDbI4JCjew5vzoRQXYmyKVcVWdvdmBLu+xys6ikrxv262bZbNc9fzLO1rFtv9rnGP4qwcMyCKRFEKXNZVBlDAhAoGwCiKCSiOqHEHs4+2S7ZtO8+h//bh79539pe5R2OzObzV/2vp12dvj6d0SQr5HLb3cnIqhVuapmlu2y0vRBKfr+bLYnqMxyuHQZWyflrnb5m2a2bEGYnz4tYyKQtSdIT/aktDmmlYCvEKg3AURQveODdT0igAjqEegKp+lUBOnpben9QbKfTh7pslL9X2Hqcvr4/zwlts1wtcoEyRcfZZa72uW39sl4FYaSqT0gQGmzB0HCRAhETgARFPkCwP1fCCCCwl8JRURQ+FTwEAJhEeBaHlY88QYC3SSACOomXcb2hgA3Tm9CVdhQn0RQVnmr7Xi7A1cKQ6IjBDwnwLXc8wBiPgR6SAAR1EPYTFVfAtw46xubsizzSQSV5TPjQCA2AlzLY4s4/kKgOAFEUHF29AyIADfOgILZxBVEUPgxxkMIcC1nDUAAAnkJIILykqJd0AS4cQYd3sQ5RFD4McZDCHAtZw1AAAJ5CSCC8pKiXdAEuHEGHV5EUPjhxUMIJAS4lrMQIACBvAQQQXlJ0S5oAtw4gw4vIij88OIhBBBBrAEIQMCJACLICReNQyWACAo1suf8ohwu/BjjIQS4lrMGIACBvAQQQXlJ0S5oAtw4gw4vmaDww4uHECATxBqAAAScCCCCnHDROFQCiKBQI0smKPzI4iEEzhHgWs5qgAAE8hJABOUlRbugCXDjDDq8ZILCDy8eQoBMEGsAAhBwIoAIcsJF41AJIIJCjSyZoPAji4cQIBPEGoAABNwJIILcmdEjQAKIoACDmnKJgxHCjzEeQoBrOWsAAhDISwARlJcU7bpO4NTUabNn71fm3jtvd56rk74yGTdOZ+TedUAEeRcyDIaAMwGu5c7I6ACBaAkggqINff0c70TIdNIXEVS/tdANixBB3aDKmBCoFwFEUL3igTUQqDOBSkXQq2+8ZbbvGG/wef6ZLWbk1rWN16tuGGk8H3/lRbN82VXmxKkps+G+h83Od1438/r7fvX65MkpM/rYE2b42tVm71//ZvZ9OZH0t8fR36V/r+PVOVih2/buhx8nLs6Zc4G5bd3NyXP9nTwfuWWtmTv3QvPFnr1m0cIF5tJLFpojRyfN6TNnzZmzP5/X14UXN04XWn62RQT5GTeshoALAa7lLrRoC4G4CVQmglTMqChJv77nwVFz14YR8+hDD5iJT3ebp54dS4SPPNqJIFtMyTgbRx9JxJWIrr+fOGW2PLnJZI1vC6S4l0U13qezOZ/s+twsWjDfLL1yifn+h+Pmm4OHk1K56ekZM/HZ7uS5iCT5SSaompj5NGvdRdDBw98mX+JwHfJpVWFrFoFOrsed9BVbEEGsSQhAIC+BykVQVgYmne0RZ1TMLB9c2lYE6ZhZHypkbM0Y2R82bLGUFx7tyiVg3/yyboQiiq64fHEjAzR57DuzZPFliUjixlluLEIcDREUYlTxqY4EOrked9IXEVTH1YBNEKgvgcpEkCBRkaJ4NIOTJV4e3/y0WT00aNbPlkm1ywS1EkFZ8+r8mzaOJpknHtUQyBJBaUtU9NjZIGnDjbOamPk0ayciKE9JbZ6SXeEl16/7777DvP3+Rwk+ve7oHIsWzk9+v3XL5qQEWDLh+2ezoJLBbvbQL46yxpU+mk3X/tJOx5N5xQYtTZa/rVy+LMm+2/ZpX5sFZcQ+vQN6Zyulzb1jzUwQgEBxApWKINtsO/ujHxTsG2xZmSAZW0TW1rFt5r03z+1HKo6QnmURSIugfQcONfYGpef4ev+Bxq+uXrkCEVRWEAIep6gIcimpbVeyq9c2FSEqTiQrbX/5I6W78pAvZcZe2J6IEnu/ZDpMtggScWOPK21FuKhIs8uLZV+l/E3tURuy7JNxKCMO+A1SomuUNpcIk6EgAIGuEahMBMmNeMf4aw0hkndPkN60NWukhyvIhw8tc7PFk33zl7Yf7JxI5rQ/2OiNXz8kdI02A7ckkHXj1PI3/dua4WuSMY5OHjM3rRk2UiJ34/XXmemZmcLHa8t41JGHvziLiKBmJbUqZly/qEn3s7/8sct0Zd7//K83zMvbnkuuVe2+sGl1YIzMKddNfaTb2tfItGBqZp+ORRlx+O+bIh5S2lyEGn0gAIFeE6hMBImj8g2nloTI67QIyTodTtrZpR1axtFMBOlNXME2Ox0ufTJdrwPBfL8Q0DIK/V9B9ulwQ7PfhsuJcCJ8Vq0YNP19FyUHJvx4/KdEEKX7ujBFBLnQ8rNtWSJIvC9asptXBKkYkevav/7bS4kYavVoJYJEAKVP4pSxVMC5iqC0HZQR+/l+6KbVlDZ3ky5jQwACZRGoVASV5QTjQKBTAoigTgnWv3+ZIqjo4S0uIki+JJLHxfP62+5VzPOvA7L+rYBm1u0voGxRlM4EUUZc/3VeBwspba5DFLABAhBoRwAR1I4Qf4+CACIo/DAXEUFCpVVJbdYx/q1Kdl1EkGa885Tp5hFBmgWXQ2bk/6i5ZoLEL8qIw3+flOEhpc1lUGQMCECg2wQQQd0mzPheEEAEeRGmjowsKoLyltTaYqVZyW4rEaTiSdqIYJF5f/f7P7TdDyTt25XDqfCRtlL6K/sx9f+n5S2H031FdpkyZcQdLcmgO1PaHHR4cQ4CQRBABAURRpzolAAiqFOC9e9fVARV5Vmeo7Grso15IVBXAlzL6xoZ7IJA/QggguoXEyyqgAA3zgqg93hKn0RQ+hjrdDYqjY7/19PjxcR0tSXAtby2ocEwCNSOACKodiHBoCoIcOOsgnpv5/RJBPWWDLNBIBwCXMvDiSWeQKDbBBBB3SbM+F4Q4MbpRZg6MhIR1BE+OkPACwJcy70IE0ZCoBYEEEG1CANGVE2AG2fVEej+/Iig7jNmBghUTYBredURYH4I+EMAEeRPrLC0iwS4cXYRbk2GRgTVJBCYAYEuEuBa3kW4DA2BwAggggILKO4UI8CNsxg3n3ohgnyKFrZCoBgBruXFuNELAjESQATFGHV8Po8AN87wFwUiKPwY4yEEuJazBiAAgbwEEEF5SdEuaALcOIMOb+IcIij8GOMhBLiWswYgAIG8BBBBeUnRLmgC3DiDDi8iKPzw4iEEEgJcy1kIEIBAXgKIoLykaBc0AW6cQYcXERR+ePEQAogg1gAEIOBEABHkhIvGoRJABIUa2XN+UQ4XfozxEAJcy1kDEIBAXgKIoLykaBc0AW6cQYeXTFD44cVDCJAJYg1AAAJOBKISQQcPf2tGH3vC7PtywglSkca9nKuIfXXsc2rqtNmz9ytz7523O5vXSV+ZDBHkjNy7DmSCvAsZBkPAmQDXcmdkdIBAtAQQQV0KPSLIHWwnQqaTvogg91j52AMR5GPUsBkCbgQQQW68aA2BmAlUKoJW3TBiNm0cNdt3jCcxuP/uO8zK5cvMU8+OJa/lb48+9EDy/NU33mq0k9fPP7PFjNy6Nvlb3nGknTwWLZxv3nvzlzlbPbS9tNHsUbfmamdLDH9/98OPEzfnzLnA3Lbu5uS5/k6ej9yy1syde6H5Ys/e2RguMJdestAcOTppTp85a86c/fm8vi7MuHG60PKzLSLIz7hhNQRcCHAtd6FFWwjETaByESTCZ8uTm4xmTvT1xKe7EzEk4uPEqSmz4b6HG0Ik/VqESZ5xXLIz9zw4ajaOPpIILRFgfz9xKrGzG3PFvQTPeZ/O5nyy63OzaMF8s/TKJeb7H46bbw4eTkrlpqdnzMRnu5PnIpLkJ5kgVlE7AlWIIL1Wjb/yohkY6EuuY/J8+bKr2pn7q7/LdadIPx3EvvapTTvfed3M6+9zsoPGECiLgF7H1wxfY/r7LiprWEqbSyPJQBAIn0DlIsi+sds3evtGLWGQDw/NbtrpDwjNxjl5cirXnqAssST2yAeGsucKf4nl99AWMlmiRkTRFZcvbmSAJo99Z5YsviwRSYig/JxjbYkI+mU/JCIo1ndAHH6TCYojzngJgTIIeCGCRHyoMFGn0+VwecRUJyJI50UElbHsssfIEkHplip67GyQtEEEdS8uoYxcRAQ9vvlp89v165KMcFo8SLb6z3/ZZV7e9lyCyC6f1S9simaCtJ+MK1nut9//6FeZoFZz2SXGep20S4H/9NIfky+V7HZ26XEo8caPXxPQa+bCBf/DHP/p/yZ/TF9PteRY2+prybhLW/niSR4yxkW/+U2SnbfH0Rmzypj1Gv2b//7fkvJlGVsy+nYmyO5X5IAcmR8RxMqHAATyEvBGBNkOpT+MlC1MWpXNlT1X3kDF0C4tgvYdONTYG5T2/+v9Bxq/unrlCkRQDAukQx+LiCC7FFZEz47x1xplsmMvbDcXz+tP9i1K+exdG0aS51mlvK7lcFnj6Rc97eYavnZ1Isz0OiaCzP4CSK+fWaXHHSKme40J2CJIrplZJcatRJAIH/taq6/tccT9ZmXMen0fmt33K/s50+Vw6Uy/iBmZz/WBCHIlRnsIxEvACxF08NCR5MOHHmaQtSeozEyQLAdb7MgHoQ92TiTzI4K692bJ2hOk5W/6N/nWUB5HJ4+Zm9YMJzfcG6+/zkzPzBQ+XptvD7sX0zqNXEQEiZDYOrYtee+L6JGDW/bPfvst+wNFjEhWJSvDrHsKlw8ubewDyrsnKKtcTa87wjN9zH/WXLrnSDJZq4cGzdDgska/9PiUx9VplXbPlnR2x34ts0pWppUISmds9LU9TtZ1WMXN3AvnJNfo9Bx6TU//ewQZVw7CcX0gglyJ0R4C8RLwQgRJOZx8AJGSEH00Ez1pAZOVNZI27f5XkF2OYrfPK4J0/1CeueJdfud7ruUQWgphl0foN4hyU121YjDZTCvfQv54/KdEEKX7unDlxulCy8+2RUSQXk8km/K73/8hEUMqfvR1ulRX6UiJ2frZUw71MIS8IigrEy1zbt2yORlaRFD6Yc9l751EBPm5VrthdS9FUNp+KaXru+g3TiKoKAOu5UXJ0Q8C8RGoVATFhxuP60qAG2ddI1OeXUVFkGaAdP+P7hPSjJCdLUpbW2RPULtMkGamWs2lmSDNEs0b6CcTVN5S8nKkXomgZmXMms3PmwkqCplreVFy9INAfASiFEHpLE867BwdG98bgRtn+DEvKoL0AAQpK5M9P1oeK5mZtNiQAxQ0k5PeB5Q3EySREPFyzaqhpOxO9xjZe4L0+P6sudL/LqDZnqD04Q1c98J+D7QSQVJ2Jpl0zbbL/1+TQxDsgxHylMPJOPbennQZc7NyOMnqy/w6h8z/40//p+me0FaR4loe9jrGOwiUSSBKEVQmQMYKgwA3zjDi2MqLoiLIzuaI6Gl2cIp9YpueylYkE6Q+6Hhy0IE8/ukfH2qIrlZz6Wly0iddNiy/E7Fj/8sB9gSFv/bFw3YiSA84kLZ6ElwREST9s8qYW2WCRASpfRoNToeLY13iJQSqJIAIqpI+c9eGACKoNqHomiFFRVDXDCp5YMRMyUAZzksCXMu9DBtGQ6ASAoigSrAzad0IcOOsW0TKt6cuIqhb5biIoPLXDCP6R4BruX8xw2IIVEUAEVQVeeatFQFunLUKR1eMqYsI6opzDAoBCCQEuJazECAAgbwEEEF5SdEuaALcOIMOb+IcIij8GOMhBLiWswYgAIG8BBBBeUnRLmgC3DiDDi8iKPzw4iEEyASxBiAAAScCiCAnXDQOlQAiKNTInvOLTFD4McZDCHAtZw1AAAJ5CSCC8pKiXdAEuHEGHV4yQeGHFw8hQCaINQABCDgRQAQ54aJxqAQQQaFGlkxQ+JHFQwicI8C1nNUAAQjkJYAIykuKdkET4MYZdHjJBIUfXjyEAJkg1gAEIOBEABHkhIvGoRJABIUaWTJB4UcWDyFAJog1AAEIuBNABLkzo0eABBBBAQY15RIHI4QfYzyEANdy1gAEIJCXQCkiKO9ktIMABCBQFQFEUFXkmRcCvSOACOoda2aCgO8EEEG+RxD7IQCBXAQQQbkw0QgCXhNABHkdPoyHQE8JIIJ6ipvJIACBqggggqoiz7wQ6B0BRFDvWDMTBHwngAjyPYLYDwEI5CKACMqFiUYQ8JoAIsjr8GE8BHpKABHUU9xMBgEIVEUAEVQVeeaFQO8IIIJ6x5qZIOA7AUSQ7xHEfghAIBeBKkTQiVNTZsN9D5vxV140AwN9jefLl12Vy2YaQcBHAqemTps9e78y9955u7P5nfSVyRBBzsjpAIFoCSCCog09jkMgLgKIoLjijbfVEehEyHTSFxFUXcyZGQI+EkAE+Rg1bIYABJwJFBFBj29+2vx2/Tozcutao1mdne+8bub195mJT3ebP/9ll3l523OJLatuGGnYpG2KZILS86Rfv/rGW2b7jvHGXM8/syWxTx9ZdjjDogMEOiDw7ocfJ73nzLnA3Lbu5uS5/k6ej9yy1syde6H5Ys9es2jhAnPpJQvNkaOT5vSZs+bM2Z/P6+tiCpkgF1q0hUDcBBBBcccf7yEQDYEiIkgEx99PnDJbntyUiJ4d46+ZjaOPJKJj7IXt5uJ5/ebRhx4w9zw4au7aMJI8l3ZPPTtm9n050RBOLuVwrUSQBEvK62RseWhbfd3MjmiCjKO1IJDO5nyy63OzaMF8s/TKJeb7H46bbw4eTkrlpqdnzMRnu5PnIpLkJ5mgWoQQIyAQBQFEUBRhxkkIQKCICDp4+FuzdWybee/N8UT0rFy+zOyf/QAnokgEx59e+qM5eXLKjD72REOYCGn5m4il5YNLnfcE5RFBmmmyoyq2NrPDzhSxEiDQbQK2kMkSNSKKrrh8cSMDNHnsO7Nk8WWJSEIEdTs6jA8BCCgBRBBrAQIQiIJAEREkYKS8TETH737/h0QMqfjR1yo+0hA3bRw162dLgVwPRmhXDpeeT8vhWtkhGSoeEOgVgSwRlJ5bRY+dDZI2iKBeRYl5IAABRBBrAAIQiIJAURGkGSDd/6P7hDQjZGeL0iC7sSfInsMWTJKR0qxVFAHFydoSSIugfQcONfYGpY3+ev+Bxq+uXrkCEVTbqGIYBMIjgAgKL6Z4BAEIZBAoKoL0AITVQ4PJnh/ZJ/TBzgmzdctmo0dda/mblJ1pRia9D8jliGzJPmmGRw9CkGzUwUNHkn1JkpGSR9aeIN2zZNvBkdy8JXpJIGtPkJa/6d/WDF+TmHR08pi5ac2wkRK5G6+/zkzPzBQ+XlvG42CEXkaauSDgNwFEkN/xw3oIQCAngaIiyM7miJjI2nsjJtinsqmAKZIJkrH0cAV5LmV1chqc7gOSzNTb73/U8FrEli1ysuzIiYhmECiNgJ4Gp/8ryD4dbmh2b52cCCfCZ9WKQdPfd1FyYMKPx39KBFG6r4tRiCAXWrSFQNwEEEFxxx/vIRANgaIiKBpAOAqBAAggggIIIi5AoEcEEEE9As00EIBAtQTqIoI0O9SMRtbJb9WSY3YI+EMAEeRPrLAUAlUTQARVHQHmhwAEekKgLiKoJ84yCQQiJYAIijTwuA2BAgQQQQWg0QUCEPCPACLIv5hhMQRcCSCCXInRHgLxEkAExRt7PIdAVAQQQVGFG2cjJYAIijTwuA2BAgQQQQWg0QUCEPCPACLIv5hhMQRcCSCCXInRHgLxEkAExRt7PIdAVAQQQVGFG2cjJYAIijTwuA2BAgQQQQWg0QUCEPCPACLIv5hhMQRcCSCCXInRHgLxEkAExRt7PIdAVAQQQVGFG2cjJYAIijTwuA2BAgQQQQWg0QUCEPCPACLIv5hhMQRcCSCCXInRHgLxEkAExRt7PIdAVAQQQVGFG2cjJYAIijTwuA2BAgQQQQWg0QUCEPCPACLIv5hhMQRcCSCCXInRHgLxEkAExRt7PIdAVAQQQVGFG2cjJYAIijTwuA2BAgQQQQWg0QUCEPCPACLIv5hhMQRcCSCCXInRHgLxEkAExRt7PIdAVAQQQVGFG2cjJYAIijTwuA2BAgQQQQWg0QUCEPCPACLIv5hhMQRcCSCCXInRHgLxEkAExRt7PIdAVASqEEEnTk2ZDfc9bMZfedEMDPQ1ni9fdlVT9gcPf2tGH3vC7PtyIqr44Gw4BE5NnTZ79n5l7r3zdmenOukrkyGCnJHTAQLREkAERRt6HIdAXAQQQXHFG2+rI9CJkOmkLyKoupgzMwR8JIAI8jFq2AwBCDgTKCKCHt/8tPnt+nVm5Na1RrM6O9953czr7zMTn+42f/7LLvPytucSW1bdMNKwSdsUyQTpOIsWzk/G27pls5HMkcy3/+Bh87//1z8kGaVNG0fN9h3jSZvnn9mS2KiPLFucgdEBAgUJvPvhx0nPOXMuMLetuzl5rr+T5yO3rDVz515ovtiz1yxauMBceslCc+TopDl95qw5c/bn8/q6mEEmyIUWbSEQNwFEUNzxx3sIREOgiAh69Y23zN9PnDJbntyUiJAd46+ZjaOPJIJj7IXt5uJ5/ebRhx4w9zw4au7aMJI8l3ZPPTuWlLMVEUF2OZzMLw8ZV+ZbuXyZWT64NBFBw9euTgSYtlfh1cyWaAKNo5UTSGdzPtn1uVm0YL5ZeuUS8/0Px803s2JeSuWmp2fMxGe7k+cikuQnmaDKw4cBEIiGACIomlDjKATiJlBEBInA2Dq2zbz35nhDhEg2RkSRiI0/vfRHc/Lk1Hl7eORvIpZUsBTdSo/7GgAAEKFJREFUEyTz/+d/vZGIHRlT7LCFle4tkozV6qFBMzS4rKktdqYo7pWA990mYAuZLFEjouiKyxc3MkCTx74zSxZflogkRFC3o8P4EICAEkAEsRYgAIEoCBQRQQJGSssky/K73/8hESEqfvS1ZmLSEKVcbf1sKVCnByPo/P/6by8lYihdlifzpkVQli2STeIBgV4QyBJB6XlV9NjZIGmDCOpFhJgDAhAQAogg1gEEIBAFgaIiSMvQdP+P7hPSjJCdLUqD7LQcTsaT+eWhpXdZmSDNPM0b6G9krqIIKk7WkkBaBO07cKixNyht8Nf7DzR+dfXKFYigWkYUoyAQJgFEUJhxxSsIQCBFoKgI0gMQpNxMsimyT+eDnRONAwtkGhUhUnKmmaF0CVzRI7J1j5GMJ+VvKoLuv/uOpCwva0+Q7luybWl1LDeLBQJlEsjaE6Tlb/q3NcPXJFMenTxmblozbKRE7sbrrzPTMzOFj9eW8TgYocxIMhYEwiaACAo7vngHAQj8fwJFRVA689Ls//jYJ7LpaW1FMkFiro6lhyto6Z38zRZBb7//UeKdCiQNdpYtLAQI9JKAngan/yvIPh1uaPaADzkRToTPqhWDpr/vouTAhB+P/5QIonRfF7sRQS60aAuBuAkgguKOP95DIBoCRUVQ1YD0aGzJ+tgiSE+Dq9o+5odAnQggguoUDWyBQL0JIILqHR+sgwAESiJQFxGkmZxmbtniRkvh7N9lHYxQEiKGgYD3BBBB3ocQByDQMwKIoJ6hZiIIQKBKAnURQVUyYG4IhE4AERR6hPEPAuURQASVx5KRIACBGhNABNU4OJgGgZIIIIJKAskwEIiAACIogiDjIgQgYAwiiFUAgfAJIILCjzEeQqAsAoigskgyDgQgUGsCiKBahwfjIFAKAURQKRgZBAJREEAERRFmnIQABBBBrAEIhE8AERR+jPEQAmURQASVRZJxIACBWhNABNU6PBgHgVIIIIJKwcggEIiCACIoijDjJAQggAhiDUAgfAKIoPBjjIcQKIsAIqgskowDAQjUmgAiqNbhwTgIlEIAEVQKRgaBQBQEEEFRhBknIQABRBBrAALhE0AEhR9jPIRAWQQQQWWRZBwIQKDWBBBBtQ4PxkGgFAKIoFIwMggEoiCACIoizDgJAQggglgDEAifACIo/BjjIQTKIoAIKosk40AAArUmgAiqdXgwDgKlEEAElYKRQSAQBQFEUBRhxkkIQAARxBqAQPgEEEHhxxgPIVAWAURQWSQZBwIQqDUBRFCtw4NxECiFACKoFIwMAoEoCCCCoggzTkIAAogg1gAEekPg1NRps2fvV+beO293nrCTvjIZIsgZOR0gEC0BRFC0ocdxCMRFABEUV7zxtjoCnQiZTvoigqqLOTNDwEcCiCAfo4bNEICAM4EiIujxzU+b365fZ0ZuXWtOnJoyG+572Ox853Uzr7/PTHy62/z5L7vMy9ueS2xZdcNIw6Z9X06Yg4e/NaOPPWGGr11t9v71b0Z+1+yhY99/9x3m7fc/Sppt2jhqHn3ogUYXe/zxV140y5dd5cyADhDoBYF3P/w4mWbOnAvMbetuTp7r7+T5yC1rzdy5F5ov9uw1ixYuMJdestAcOTppTp85a86c/fm8vi42kwlyoUVbCMRNABEUd/zxHgLRECgigl594y3z9xOnzJYnNyWiZ8f4a2bj6COJKBp7Ybu5eF5/IlTueXC08Xvtc/v/vCURQc8/syVp3+phiyCd66lnxxrCSca/a8NIMpfYIX9TMRZNAHHUGwLpbM4nuz43ixbMN0uvXGK+/+G4+ebg4aRUbnp6xkx8tjt5LiJJfpIJ8ibMGAoB7wkggrwPIQ5AAAJ5CBQRQZLN2Tq2zbz35ngielYuX2b2z36AE6EiwuRPL/3RnDw5lYgdO9MjokZ/n0espLNM9mvxzc5AyWtbdOXxnTYQ6CUBW8hkiRoRRVdcvriRAZo89p1ZsviyRCQhgnoZKeaCQNwEEEFxxx/vIRANgSIiSOBIGZoImd/9/g+JGFLxo6+17C1d7qa/71QEZYksKdNbPTT4q3K5aAKJo7UnkCWC0kar6LGzQdIGEVT78GIgBIIhgAgKJpQ4AgEItCJQVARpBkj3/+g+Ic0IdVsEiU9kgljbPhFIi6B9Bw419gal/fh6/4HGr65euQIR5FOgsRUCnhNABHkeQMyHAATyESgqgvQABM28yJ6fD3ZOmK1bNjcOJ5BskR5WYP9dyuQ6zQTJIQzsCcoXY1rVg0DWniAtf9O/rRm+JjH26OQxc9OaYSMlcjdef52ZnpkpfLy2jMfBCPVYA1gBAR8IIIJ8iBI2QgACHRMoKoJ0f46KnKzMj7ZRI+3T4coQQTIup8N1vAQYoIcE9DQ4/V9B9ulwQ7N76+REOBE+q1YMmv6+i5IDE348/lMiiNJ9XcxGBLnQoi0E4iaACIo7/ngPgWgIFBVB0QDCUQgEQAARFEAQcQECPSKACOoRaKaBAASqJVClCEpnitIk8mSLqqXH7BDwgwAiyI84YSUE6kAAEVSHKGADBCDQdQJViqCuO8cEEIBAQgARxEKAAATyEkAE5SVFOwhAwGsCiCCvw4fxEMhFABGUCxONIACBWQKIIJYBBCAQBQFEUBRhxsnICSCCIl8AuA8BBwKIIAdYNIUABPwlgAjyN3ZYDoG8BBBBeUnRDgIQQASxBiAAgSgIIIKiCDNORk4AERT5AsB9CDgQQAQ5wKIpBCDgLwFEkL+xw3II5CWACMpLinYQgAAiiDUAAQhEQQARFEWYcTJyAoigyBcA7kPAgQAiyAEWTSEAAX8JIIL8jR2WQyAvAURQXlK0gwAEEEGsAQhAIAoCiKAowoyTkRNABEW+AHAfAg4EEEEOsGgKAQj4SwAR5G/ssBwCeQkggvKSoh0EIIAIYg1AAAJREEAERRFmnIycACIo8gWA+xBwIIAIcoBFUwhAwF8CiCB/Y4flEMhLABGUlxTtIAABRBBrAAIQiIIAIiiKMONk5AQQQZEvANyHgAMBRJADLJpCAAL+EkAE+Rs7LIdAXgKIoLykaAcBCCCCWAMQgEAUBOoqgk6cmjIb7nvYjL/yYhKH0ceeMPu+nHCKiT3G8mVXOfWlMQTKJnBq6rTZs/crc++dtzsP3UlfmQwR5IycDhCIlgAiKNrQ4zgE4iJQVxFkR+Hg4W8LiaC4Iom3dSfQiZDppC8iqO4rA/sgUC8CiKB6xQNrIACBLhEoKoJW3TBiNm0cNdt3jCeW3X/3HWbl8mXmqWfHktfyt0cfeqBhtbTXh2R3JDOjmRrp+/b7H/2qn53FkSyQPBYtnG/ee/OX+bLGU7E0fO1qs/evfzM733m9kU0aGOhLnmfNJeNpX7Vd/JL+8/r7mpJXG20Ozz+zxYzcurYxntqiWawsu1vNf/LkVCIA7XEmPt3d4Kzstzy5qcHFJS5dWlYMm0Hg3Q8/Tn47Z84F5rZ1NyfP9XfyfOSWtWbu3AvNF3v2zq71BebSSxaaI0cnzekzZ82Zsz+f19cFMpkgF1q0hUDcBBBBcccf7yEQDYFORJAICvnwrQJCX+uHdP3gf8+Do+auDSOJKNK/icCQhwoTGcfu16ocrtl4KhhUiNhj2CIoPZfYIeJE+429sD0RZXlFkAiUl7c91+Ag/dK2yBzN7Bah1Wz+rHGkrQpJm6eOkzcu0SzymjiazuZ8sutzs2jBfLP0yiXm+x+Om28OHk5K5aanZ8zEZ7uT5yKS5CeZoJoEETMgEAEBRFAEQcZFCEDAmE5EkH4QVxGRzvDYQscWFCIGNo4+YpYPLk1EkP5NRYvdL70nyG6jWRodb95Af5I1SY8nY6gIyppLhYaKtqw5stZK1p6jxzc/bVYPDZqhwWWZtmRxULuz5lfbbLvt7FTaVlsgtYpLqwwX74vuELCFTJaoEVF0xeWLGxmgyWPfmSWLL0tEEiKoOzFhVAhA4HwCiCBWBQQgEAWBbougtMAQqCoU1s+WBLmKoKz9Qe2ERzsRdPDQEbNj/LVGqZ2Kh7yZILtdM1ta2X3xwEDT+dMiSGx79Y23GmWIukjVBkRQfd+2WSIoba2KHjsbJG0QQfWNK5ZBIDQCiKDQIoo/EIBAJoFuiyCZ1BY68jrkTFC7rFSnmSAVU1kZLS2Hy5OhIxPU+wtCWgTtO3CosTcobc3X+w80fnX1yhWIoN6HixkhEC0BRFC0ocdxCMRFoNsiSD5st9sT5FIOpyIqa49RVumYHrPdqhyu1Z6cPAcjpPfg2HuC0qIny+48e4J0nHRGSTJPeggEIqje792sPUFa/qZ/WzN8TeLE0clj5qY1w0ZK5G68/jozPTNT+HhtGY+DEeq9NrAOAnUigAiqUzSwBQIQ6BqBXoggMb7V6XDtRJCcJKf9W52y1ixL0q4cTsSDfTqcniCXtxzOPnFOszBpWzSAeU6Hs+fPKodT4SNjymEOUsone6zkVDrK4br2VillYD0NTv9XkH063NDs6YpyIpwIn1UrBk1/30XJgQk/Hv8pEUTpvi4GIYJcaNEWAnETQATFHX+8h0A0BIqKoJAByYlr6T1CWf7mPUDBlVXe+V3HpX28BBBB8cYezyHgSgAR5EqM9hCAgJcEEEGm8f+K7ADaJ9Q1C+yr//Hv5tF//pe2R2m3WxgqptLzs2+nHTn+npcAIigvKdpBAAKIINYABCAQBQFEUBRhxsnICSCCIl8AuA8BBwKIIAdYNIUABPwlgAjyN3ZYDoG8BBBBeUnRDgIQQASxBiAAgSgIIIKiCDNORk4AERT5AsB9CDgQQAQ5wKIpBCDgLwFEkL+xw3II5CWACMpLinYQgAAiiDUAAQhEQQARFEWYcTJyAoigyBcA7kPAgQAiyAEWTSEAAX8JIIL8jR2WQyAvAURQXlK0gwAEEEGsAQhAIAoCiKAowoyTkRNABEW+AHAfAg4EEEEOsGgKAQj4SwAR5G/ssBwCeQkggvKSoh0EIIAIYg1AAAJREEAERRFmnIycACIo8gWA+xBwIIAIcoBFUwhAwF8CiCB/Y4flEMhLABGUlxTtIAABRBBrAAIQiIIAIiiKMONk5AQQQZEvANyHgAMBRJADLJpCAAL+EkAE+Rs7LIdAXgKIoLykaAcBCCCCWAMQgAAEIAABCEAAAhCAQFQEEEFRhRtnIQABCEAAAhCAAAQgAAFEEGsAAhCAAAQgAAEIQAACEIiKACIoqnDjLAQgAAEIQAACEIAABCCACGINQAACEIAABCAAAQhAAAJREUAERRVunIUABCAAAQhAAAIQgAAEEEGsAQhAAAIQgAAEIAABCEAgKgKIoKjCjbMQgAAEIAABCEAAAhCAACKINQABCEAAAhCAAAQgAAEIREUAERRVuHEWAhCAAAQgAAEIQAACEEAEsQYgAAEIQAACEIAABCAAgagIIIKiCjfOQgACEIAABCAAAQhAAAKIINYABCAAAQhAAAIQgAAEIBAVAURQVOHGWQhAAAIQgAAEIAABCEAAEcQagAAEIAABCEAAAhCAAASiIoAIiircOAsBCEAAAhCAAAQgAAEIIIJYAxCAAAQgAAEIQAACEIBAVAQQQVGFG2chAAEIQAACEIAABCAAAUQQawACEIAABCAAAQhAAAIQiIoAIiiqcOMsBCAAAQhAAAIQgAAEIIAIYg1AAAIQgAAEIAABCEAAAlER+H+A2/WJn+iucQAAAABJRU5ErkJggg==;" parent="1" vertex="1">
          <mxGeometry x="60" y="-1050" width="439.91" height="310" as="geometry" />
        </mxCell>
      </root>
    </mxGraphModel>
  </diagram>
</mxfile>
